<?xml version="1.0" encoding="UTF-8" standalone="no"?><svg xmlns="http://www.w3.org/2000/svg" xmlns:xlink="http://www.w3.org/1999/xlink" contentScriptType="application/ecmascript" contentStyleType="text/css" height="985.2px" preserveAspectRatio="none" style="width:1335px;height:985px;background:#FFFFFF;" version="1.1" viewBox="0 0 1335 985" width="1335.6px" zoomAndPan="magnify"><defs><filter height="300%" id="fk5wukpssoaeb" width="300%" x="-1" y="-1"><feGaussianBlur result="blurOut" stdDeviation="2.4"/><feColorMatrix in="blurOut" result="blurOut2" type="matrix" values="0 0 0 0 0 0 0 0 0 0 0 0 0 0 0 0 0 0 .4 0"/><feOffset dx="4.8" dy="4.8" in="blurOut2" result="blurOut3"/><feBlend in="SourceGraphic" in2="blurOut3" mode="normal"/></filter></defs><g><!--MD5=[d33d14762bbd2308f4a7d9b7d8815839]
class Tools--><rect codeLine="1" fill="#FEFECE" filter="url(#fk5wukpssoaeb)" height="74.2031" id="Tools" style="stroke:#A80036;stroke-width:1.7999999999999998;" width="169.2" x="144.6" y="828.6"/><ellipse cx="205.5" cy="847.8" fill="#ADD1B2" rx="13.2" ry="13.2" style="stroke:#A80036;stroke-width:1.2;"/><path d="M207.9,843.6 Q208.1437,843 208.425,842.7 Q208.7062,842.4 209.025,842.4 Q209.5875,842.4 209.9438,842.7375 Q210.3,843.075 210.3,843.8625 L210.3,845.7375 Q210.3,846.525 209.9625,846.8625 Q209.625,847.2 209.1,847.2 Q208.6313,847.2 208.3312,846.9938 Q208.0313,846.7875 207.9,846.2438 Q207.8438,845.8688 207.6375,845.6625 Q207.2625,845.2688 206.5875,845.0437 Q205.9125,844.8 205.2375,844.8 Q204.3937,844.8 203.6813,845.1375 Q202.9875,845.475 202.4438,846.225 Q201.9,846.975 201.9,848.0063 L201.9,849.1125 Q201.9,850.35 202.9125,851.175 Q203.925,852 205.725,852 Q206.7938,852 207.5438,851.7563 Q207.975,851.625 208.4625,851.1938 Q208.7813,850.95 208.95,850.875 Q209.1188,850.8 209.325,850.8 Q209.7188,850.8 210,851.1188 Q210.3,851.4187 210.3,851.85 Q210.3,852.2625 209.8875,852.75 Q209.2875,853.4625 208.3312,853.8562 Q207.075,854.4 205.5375,854.4 Q203.7375,854.4 202.2938,853.6875 Q201.1313,853.125 200.3063,851.9063 Q199.5,850.6875 199.5,849.2438 L199.5,847.9313 Q199.5,846.4313 200.2125,845.1188 Q200.9438,843.8063 202.2,843.1125 Q203.475,842.4 204.9,842.4 Q205.7625,842.4 206.5125,842.7 Q207.2625,843 207.9,843.6 Z " fill="#000000"/><text fill="#000000" font-family="sans-serif" font-size="14.4" lengthAdjust="spacing" textLength="37.2" x="230.1" y="853.6922">Tools</text><line style="stroke:#A80036;stroke-width:1.7999999999999998;" x1="145.8" x2="312.6" y1="867" y2="867"/><line style="stroke:#A80036;stroke-width:1.7999999999999998;" x1="145.8" x2="312.6" y1="876.6" y2="876.6"/><ellipse cx="157.8" cy="889.8" fill="#84BE84" rx="3.6" ry="3.6" style="stroke:#038048;stroke-width:1.2;"/><text fill="#000000" font-family="sans-serif" font-size="13.2" lengthAdjust="spacing" text-decoration="underline" textLength="138" x="168.6" y="895.1027">RandomArrow() : string</text><!--MD5=[3624bd638c8ffd9eacb7291c4daabaf3]
class FlyweightFactory--><rect codeLine="1" fill="#FEFECE" filter="url(#fk5wukpssoaeb)" height="124.0125" id="FlyweightFactory" style="stroke:#A80036;stroke-width:1.7999999999999998;" width="246" x="1003.8" y="267.6"/><ellipse cx="1061.1" cy="286.8" fill="#ADD1B2" rx="13.2" ry="13.2" style="stroke:#A80036;stroke-width:1.2;"/><path d="M1063.5,282.6 Q1063.7437,282 1064.025,281.7 Q1064.3062,281.4 1064.625,281.4 Q1065.1875,281.4 1065.5438,281.7375 Q1065.9,282.075 1065.9,282.8625 L1065.9,284.7375 Q1065.9,285.525 1065.5625,285.8625 Q1065.225,286.2 1064.7,286.2 Q1064.2313,286.2 1063.9312,285.9938 Q1063.6313,285.7875 1063.5,285.2438 Q1063.4438,284.8688 1063.2375,284.6625 Q1062.8625,284.2688 1062.1875,284.0438 Q1061.5125,283.8 1060.8375,283.8 Q1059.9937,283.8 1059.2813,284.1375 Q1058.5875,284.475 1058.0438,285.225 Q1057.5,285.975 1057.5,287.0062 L1057.5,288.1125 Q1057.5,289.35 1058.5125,290.175 Q1059.525,291 1061.325,291 Q1062.3938,291 1063.1438,290.7562 Q1063.575,290.625 1064.0625,290.1937 Q1064.3813,289.95 1064.55,289.875 Q1064.7188,289.8 1064.925,289.8 Q1065.3188,289.8 1065.6,290.1188 Q1065.9,290.4188 1065.9,290.85 Q1065.9,291.2625 1065.4875,291.75 Q1064.8875,292.4625 1063.9312,292.8563 Q1062.675,293.4 1061.1375,293.4 Q1059.3375,293.4 1057.8938,292.6875 Q1056.7313,292.125 1055.9063,290.9063 Q1055.1,289.6875 1055.1,288.2438 L1055.1,286.9313 Q1055.1,285.4313 1055.8125,284.1188 Q1056.5438,282.8063 1057.8,282.1125 Q1059.075,281.4 1060.5,281.4 Q1061.3625,281.4 1062.1125,281.7 Q1062.8625,282 1063.5,282.6 Z " fill="#000000"/><text fill="#000000" font-family="sans-serif" font-size="14.4" lengthAdjust="spacing" textLength="108" x="1085.7" y="292.6922">FlyweightFactory</text><rect fill="#FFFFFF" height="20.5125" style="stroke:#000000;stroke-width:1.2;stroke-dasharray:2.0,2.0;" width="10.8" x="1242.6" y="264"/><text fill="#000000" font-family="sans-serif" font-size="14.4" font-style="italic" lengthAdjust="spacing" textLength="8.4" x="1243.8" y="280.1484">T</text><line style="stroke:#A80036;stroke-width:1.7999999999999998;" x1="1005" x2="1248.6" y1="306" y2="306"/><ellipse cx="1017" cy="319.2" rx="3.6" ry="3.6" style="stroke:#038048;stroke-width:1.2;fill:none;"/><text fill="#000000" font-family="sans-serif" font-size="13.2" lengthAdjust="spacing" textLength="187.2" x="1027.8" y="324.5027">Flyweights : List&lt;Flyweight&lt;T&gt;&gt;</text><line style="stroke:#A80036;stroke-width:1.7999999999999998;" x1="1005" x2="1248.6" y1="332.2031" y2="332.2031"/><ellipse cx="1017" cy="345.4031" fill="#84BE84" rx="3.6" ry="3.6" style="stroke:#038048;stroke-width:1.2;"/><text fill="#000000" font-family="sans-serif" font-size="13.2" lengthAdjust="spacing" textLength="110.4" x="1027.8" y="350.7059">FlyweightFactory()</text><ellipse cx="1017" cy="362.0062" fill="#84BE84" rx="3.6" ry="3.6" style="stroke:#038048;stroke-width:1.2;"/><text fill="#000000" font-family="sans-serif" font-size="13.2" lengthAdjust="spacing" textLength="214.8" x="1027.8" y="367.309">GetFlyweight(state:T) : Flyweight&lt;T&gt;</text><ellipse cx="1017" cy="378.6094" fill="#84BE84" rx="3.6" ry="3.6" style="stroke:#038048;stroke-width:1.2;"/><text fill="#000000" font-family="sans-serif" font-size="13.2" lengthAdjust="spacing" textLength="174" x="1027.8" y="383.9121">GetFlyweights() : IEnumerable</text><!--MD5=[7c09b79604085ab4fbc76949cf75ab85]
class IFlyweight--><rect codeLine="1" fill="#FEFECE" filter="url(#fk5wukpssoaeb)" height="74.2031" id="IFlyweight" style="stroke:#A80036;stroke-width:1.7999999999999998;" width="117.6" x="1201.2" y="828.6"/><ellipse cx="1219.2" cy="847.8" fill="#B4A7E5" rx="13.2" ry="13.2" style="stroke:#A80036;stroke-width:1.2;"/><path d="M1220.4,844.2 L1220.4,851.4 L1222.8,851.4 L1223.3813,851.4 L1224,852.15 L1224,852.6 L1224,853.05 L1223.3813,853.8 L1222.8,853.8 L1215.6,853.8 L1215.0188,853.8 L1214.4,853.05 L1214.4,852.6 L1214.4,852.15 L1215.0188,851.4 L1215.6,851.4 L1218,851.4 L1218,844.2 L1215.6,844.2 L1215.0188,844.2 L1214.4,843.45 L1214.4,843 L1214.4,842.55 L1215.0188,841.8 L1215.6,841.8 L1222.8,841.8 L1223.3813,841.8 L1224,842.55 L1224,843 L1224,843.45 L1223.3813,844.2 L1222.8,844.2 L1220.4,844.2 Z " fill="#000000"/><text fill="#000000" font-family="sans-serif" font-size="14.4" font-style="italic" lengthAdjust="spacing" textLength="66" x="1236" y="853.6922">IFlyweight</text><rect fill="#FFFFFF" height="20.5125" style="stroke:#000000;stroke-width:1.2;stroke-dasharray:2.0,2.0;" width="10.8" x="1311.6" y="825"/><text fill="#000000" font-family="sans-serif" font-size="14.4" font-style="italic" lengthAdjust="spacing" textLength="8.4" x="1312.8" y="841.1484">T</text><line style="stroke:#A80036;stroke-width:1.7999999999999998;" x1="1202.4" x2="1317.6" y1="867" y2="867"/><line style="stroke:#A80036;stroke-width:1.7999999999999998;" x1="1202.4" x2="1317.6" y1="876.6" y2="876.6"/><ellipse cx="1214.4" cy="889.8" fill="#84BE84" rx="3.6" ry="3.6" style="stroke:#038048;stroke-width:1.2;"/><text fill="#000000" font-family="sans-serif" font-size="13.2" lengthAdjust="spacing" textLength="78" x="1225.2" y="895.1027">GetState() : T</text><!--MD5=[0f9f5b132fe1117282936dc99885cc40]
class Flyweight--><rect codeLine="4" fill="#FEFECE" filter="url(#fk5wukpssoaeb)" height="124.0125" id="Flyweight" style="stroke:#A80036;stroke-width:1.7999999999999998;" width="198" x="960.6" y="804"/><ellipse cx="1017.3" cy="823.2" fill="#ADD1B2" rx="13.2" ry="13.2" style="stroke:#A80036;stroke-width:1.2;"/><path d="M1019.7,819 Q1019.9437,818.4 1020.225,818.1 Q1020.5062,817.8 1020.825,817.8 Q1021.3875,817.8 1021.7438,818.1375 Q1022.1,818.475 1022.1,819.2625 L1022.1,821.1375 Q1022.1,821.925 1021.7625,822.2625 Q1021.425,822.6 1020.9,822.6 Q1020.4313,822.6 1020.1312,822.3938 Q1019.8313,822.1875 1019.7,821.6438 Q1019.6438,821.2688 1019.4375,821.0625 Q1019.0625,820.6687 1018.3875,820.4438 Q1017.7125,820.2 1017.0375,820.2 Q1016.1937,820.2 1015.4812,820.5375 Q1014.7875,820.875 1014.2438,821.625 Q1013.7,822.375 1013.7,823.4063 L1013.7,824.5125 Q1013.7,825.75 1014.7125,826.575 Q1015.725,827.4 1017.525,827.4 Q1018.5938,827.4 1019.3438,827.1563 Q1019.775,827.025 1020.2625,826.5938 Q1020.5813,826.35 1020.75,826.275 Q1020.9187,826.2 1021.125,826.2 Q1021.5188,826.2 1021.8,826.5188 Q1022.1,826.8188 1022.1,827.25 Q1022.1,827.6625 1021.6875,828.15 Q1021.0875,828.8625 1020.1312,829.2563 Q1018.875,829.8 1017.3375,829.8 Q1015.5375,829.8 1014.0938,829.0875 Q1012.9313,828.525 1012.1062,827.3063 Q1011.3,826.0875 1011.3,824.6438 L1011.3,823.3313 Q1011.3,821.8313 1012.0125,820.5188 Q1012.7438,819.2063 1014,818.5125 Q1015.275,817.8 1016.7,817.8 Q1017.5625,817.8 1018.3125,818.1 Q1019.0625,818.4 1019.7,819 Z " fill="#000000"/><text fill="#000000" font-family="sans-serif" font-size="14.4" lengthAdjust="spacing" textLength="61.2" x="1041.9" y="829.0922">Flyweight</text><rect fill="#FFFFFF" height="20.5125" style="stroke:#000000;stroke-width:1.2;stroke-dasharray:2.0,2.0;" width="10.8" x="1151.4" y="800.4"/><text fill="#000000" font-family="sans-serif" font-size="14.4" font-style="italic" lengthAdjust="spacing" textLength="8.4" x="1152.6" y="816.5484">T</text><line style="stroke:#A80036;stroke-width:1.7999999999999998;" x1="961.8" x2="1157.4" y1="842.4" y2="842.4"/><ellipse cx="973.8" cy="855.6" rx="3.6" ry="3.6" style="stroke:#038048;stroke-width:1.2;fill:none;"/><text fill="#000000" font-family="sans-serif" font-size="13.2" lengthAdjust="spacing" textLength="48" x="984.6" y="860.9027">State : T</text><line style="stroke:#A80036;stroke-width:1.7999999999999998;" x1="961.8" x2="1157.4" y1="868.6031" y2="868.6031"/><ellipse cx="973.8" cy="881.8031" fill="#84BE84" rx="3.6" ry="3.6" style="stroke:#038048;stroke-width:1.2;"/><text fill="#000000" font-family="sans-serif" font-size="13.2" lengthAdjust="spacing" textLength="105.6" x="984.6" y="887.1059">Flyweight(state:T)</text><ellipse cx="973.8" cy="898.4063" fill="#84BE84" rx="3.6" ry="3.6" style="stroke:#038048;stroke-width:1.2;"/><text fill="#000000" font-family="sans-serif" font-size="13.2" lengthAdjust="spacing" textLength="78" x="984.6" y="903.709">GetState() : T</text><ellipse cx="973.8" cy="915.0094" fill="#84BE84" rx="3.6" ry="3.6" style="stroke:#038048;stroke-width:1.2;"/><text fill="#000000" font-family="sans-serif" font-size="13.2" lengthAdjust="spacing" textLength="166.8" x="984.6" y="920.3121">«override» ToString() : string</text><!--MD5=[15c5a18786b3e54b8fb30dd60c7aef70]
class NamePart--><rect codeLine="1" fill="#FEFECE" filter="url(#fk5wukpssoaeb)" height="207.0281" id="NamePart" style="stroke:#A80036;stroke-width:1.7999999999999998;" width="235.2" x="682.8" y="762"/><ellipse cx="761.7" cy="781.2" fill="#ADD1B2" rx="13.2" ry="13.2" style="stroke:#A80036;stroke-width:1.2;"/><path d="M764.1,777 Q764.3438,776.4 764.625,776.1 Q764.9063,775.8 765.225,775.8 Q765.7875,775.8 766.1438,776.1375 Q766.5,776.475 766.5,777.2625 L766.5,779.1375 Q766.5,779.925 766.1625,780.2625 Q765.825,780.6 765.3,780.6 Q764.8313,780.6 764.5313,780.3938 Q764.2312,780.1875 764.1,779.6438 Q764.0437,779.2688 763.8375,779.0625 Q763.4625,778.6687 762.7875,778.4438 Q762.1125,778.2 761.4375,778.2 Q760.5938,778.2 759.8813,778.5375 Q759.1875,778.875 758.6438,779.625 Q758.1,780.375 758.1,781.4063 L758.1,782.5125 Q758.1,783.75 759.1125,784.575 Q760.125,785.4 761.925,785.4 Q762.9938,785.4 763.7438,785.1563 Q764.175,785.025 764.6625,784.5938 Q764.9812,784.35 765.15,784.275 Q765.3188,784.2 765.525,784.2 Q765.9187,784.2 766.2,784.5188 Q766.5,784.8188 766.5,785.25 Q766.5,785.6625 766.0875,786.15 Q765.4875,786.8625 764.5313,787.2563 Q763.275,787.8 761.7375,787.8 Q759.9375,787.8 758.4938,787.0875 Q757.3313,786.525 756.5063,785.3063 Q755.7,784.0875 755.7,782.6438 L755.7,781.3313 Q755.7,779.8313 756.4125,778.5188 Q757.1438,777.2063 758.4,776.5125 Q759.675,775.8 761.1,775.8 Q761.9625,775.8 762.7125,776.1 Q763.4625,776.4 764.1,777 Z " fill="#000000"/><text fill="#000000" font-family="sans-serif" font-size="14.4" lengthAdjust="spacing" textLength="67.2" x="786.3" y="787.0922">NamePart</text><line style="stroke:#A80036;stroke-width:1.7999999999999998;" x1="684" x2="916.8" y1="800.4" y2="800.4"/><ellipse cx="696" cy="813.6" rx="3.6" ry="3.6" style="stroke:#038048;stroke-width:1.2;fill:none;"/><text fill="#000000" font-family="sans-serif" font-size="13.2" lengthAdjust="spacing" textLength="139.2" x="706.8" y="818.9027">Text : Flyweight&lt;string&gt;</text><ellipse cx="696" cy="830.2031" rx="3.6" ry="3.6" style="stroke:#038048;stroke-width:1.2;fill:none;"/><text fill="#000000" font-family="sans-serif" font-size="13.2" lengthAdjust="spacing" textLength="99.6" x="706.8" y="835.5059">Next : NamePart?</text><line style="stroke:#A80036;stroke-width:1.7999999999999998;" x1="684" x2="916.8" y1="843.2063" y2="843.2063"/><ellipse cx="696" cy="856.4063" fill="#84BE84" rx="3.6" ry="3.6" style="stroke:#038048;stroke-width:1.2;"/><text fill="#000000" font-family="sans-serif" font-size="13.2" lengthAdjust="spacing" textLength="193.2" x="706.8" y="861.709">NamePart(text:Flyweight&lt;string&gt;)</text><ellipse cx="696" cy="873.0094" fill="#84BE84" rx="3.6" ry="3.6" style="stroke:#038048;stroke-width:1.2;"/><text fill="#000000" font-family="sans-serif" font-size="13.2" lengthAdjust="spacing" textLength="166.8" x="706.8" y="878.3121">GetPart() : Flyweight&lt;string&gt;</text><ellipse cx="696" cy="889.6125" fill="#84BE84" rx="3.6" ry="3.6" style="stroke:#038048;stroke-width:1.2;"/><text fill="#000000" font-family="sans-serif" font-size="13.2" lengthAdjust="spacing" textLength="129.6" x="706.8" y="894.9152">GetNext() : NamePart?</text><ellipse cx="696" cy="906.2156" fill="#84BE84" rx="3.6" ry="3.6" style="stroke:#038048;stroke-width:1.2;"/><text fill="#000000" font-family="sans-serif" font-size="13.2" lengthAdjust="spacing" textLength="204" x="706.8" y="911.5184">SetNext(nextPart:NamePart?) : void</text><ellipse cx="696" cy="922.8187" fill="#84BE84" rx="3.6" ry="3.6" style="stroke:#038048;stroke-width:1.2;"/><text fill="#000000" font-family="sans-serif" font-size="13.2" lengthAdjust="spacing" textLength="166.8" x="706.8" y="928.1215">«override» ToString() : string</text><ellipse cx="696" cy="939.4219" fill="#84BE84" rx="3.6" ry="3.6" style="stroke:#038048;stroke-width:1.2;"/><text fill="#000000" font-family="sans-serif" font-size="13.2" lengthAdjust="spacing" textLength="110.4" x="706.8" y="944.7246">ToStringId() : string</text><ellipse cx="696" cy="956.025" fill="#84BE84" rx="3.6" ry="3.6" style="stroke:#038048;stroke-width:1.2;"/><text fill="#000000" font-family="sans-serif" font-size="13.2" lengthAdjust="spacing" textLength="93.6" x="706.8" y="961.3277">HasNext() : bool</text><!--MD5=[09ce52be0ee7de43c61b6e2d59bf108b]
class Person--><rect codeLine="1" fill="#FEFECE" filter="url(#fk5wukpssoaeb)" height="190.425" id="Person" style="stroke:#A80036;stroke-width:1.7999999999999998;" width="290.4" x="309.6" y="498"/><ellipse cx="425.7" cy="517.2" fill="#ADD1B2" rx="13.2" ry="13.2" style="stroke:#A80036;stroke-width:1.2;"/><path d="M428.1,513 Q428.3438,512.4 428.625,512.1 Q428.9063,511.8 429.225,511.8 Q429.7875,511.8 430.1438,512.1375 Q430.5,512.475 430.5,513.2625 L430.5,515.1375 Q430.5,515.925 430.1625,516.2625 Q429.825,516.6 429.3,516.6 Q428.8313,516.6 428.5313,516.3938 Q428.2313,516.1875 428.1,515.6438 Q428.0438,515.2688 427.8375,515.0625 Q427.4625,514.6687 426.7875,514.4438 Q426.1125,514.2 425.4375,514.2 Q424.5938,514.2 423.8812,514.5375 Q423.1875,514.875 422.6438,515.625 Q422.1,516.375 422.1,517.4063 L422.1,518.5125 Q422.1,519.75 423.1125,520.575 Q424.125,521.4 425.925,521.4 Q426.9938,521.4 427.7438,521.1563 Q428.175,521.025 428.6625,520.5938 Q428.9813,520.35 429.15,520.275 Q429.3187,520.2 429.525,520.2 Q429.9188,520.2 430.2,520.5188 Q430.5,520.8188 430.5,521.25 Q430.5,521.6625 430.0875,522.15 Q429.4875,522.8625 428.5313,523.2563 Q427.275,523.8 425.7375,523.8 Q423.9375,523.8 422.4938,523.0875 Q421.3313,522.525 420.5062,521.3063 Q419.7,520.0875 419.7,518.6438 L419.7,517.3313 Q419.7,515.8313 420.4125,514.5188 Q421.1438,513.2063 422.4,512.5125 Q423.675,511.8 425.1,511.8 Q425.9625,511.8 426.7125,512.1 Q427.4625,512.4 428.1,513 Z " fill="#000000"/><text fill="#000000" font-family="sans-serif" font-size="14.4" lengthAdjust="spacing" textLength="48" x="450.3" y="523.0922">Person</text><line style="stroke:#A80036;stroke-width:1.7999999999999998;" x1="310.8" x2="598.8" y1="536.4" y2="536.4"/><ellipse cx="322.8" cy="549.6" rx="3.6" ry="3.6" style="stroke:#038048;stroke-width:1.2;fill:none;"/><text fill="#000000" font-family="sans-serif" font-size="13.2" lengthAdjust="spacing" textLength="98.4" x="333.6" y="554.9027">Name : NamePart</text><ellipse cx="322.8" cy="566.2031" rx="3.6" ry="3.6" style="stroke:#038048;stroke-width:1.2;fill:none;"/><text fill="#000000" font-family="sans-serif" font-size="13.2" lengthAdjust="spacing" textLength="120" x="333.6" y="571.5059">Coordinate : Vector2</text><line style="stroke:#A80036;stroke-width:1.7999999999999998;" x1="310.8" x2="598.8" y1="579.2063" y2="579.2063"/><ellipse cx="322.8" cy="592.4063" fill="#84BE84" rx="3.6" ry="3.6" style="stroke:#038048;stroke-width:1.2;"/><text fill="#000000" font-family="sans-serif" font-size="13.2" lengthAdjust="spacing" textLength="259.2" x="333.6" y="597.709">Person(name:NamePart, coordinate:Vector2)</text><ellipse cx="322.8" cy="609.0094" fill="#84BE84" rx="3.6" ry="3.6" style="stroke:#038048;stroke-width:1.2;"/><text fill="#000000" font-family="sans-serif" font-size="13.2" lengthAdjust="spacing" textLength="128.4" x="333.6" y="614.3121">GetName() : NamePart</text><ellipse cx="322.8" cy="625.6125" fill="#84BE84" rx="3.6" ry="3.6" style="stroke:#038048;stroke-width:1.2;"/><text fill="#000000" font-family="sans-serif" font-size="13.2" lengthAdjust="spacing" textLength="140.4" x="333.6" y="630.9152">Person(name:NamePart)</text><ellipse cx="322.8" cy="642.2156" fill="#84BE84" rx="3.6" ry="3.6" style="stroke:#038048;stroke-width:1.2;"/><text fill="#000000" font-family="sans-serif" font-size="13.2" lengthAdjust="spacing" text-decoration="underline" textLength="163.2" x="333.6" y="647.5184">RandomLocation() : Vector2</text><ellipse cx="322.8" cy="658.8188" fill="#84BE84" rx="3.6" ry="3.6" style="stroke:#038048;stroke-width:1.2;"/><text fill="#000000" font-family="sans-serif" font-size="13.2" lengthAdjust="spacing" textLength="110.4" x="333.6" y="664.1215">ToStringId() : string</text><ellipse cx="322.8" cy="675.4219" fill="#84BE84" rx="3.6" ry="3.6" style="stroke:#038048;stroke-width:1.2;"/><text fill="#000000" font-family="sans-serif" font-size="13.2" lengthAdjust="spacing" textLength="166.8" x="333.6" y="680.7246">«override» ToString() : string</text><!--MD5=[d3035a46ed259b92ad059485824df840]
class RegistryOffice--><rect codeLine="1" fill="#FEFECE" filter="url(#fk5wukpssoaeb)" height="190.425" id="RegistryOffice" style="stroke:#A80036;stroke-width:1.7999999999999998;" width="322.8" x="147" y="234"/><ellipse cx="257.7" cy="253.2" fill="#ADD1B2" rx="13.2" ry="13.2" style="stroke:#A80036;stroke-width:1.2;"/><path d="M260.1,249 Q260.3438,248.4 260.625,248.1 Q260.9063,247.8 261.225,247.8 Q261.7875,247.8 262.1438,248.1375 Q262.5,248.475 262.5,249.2625 L262.5,251.1375 Q262.5,251.925 262.1625,252.2625 Q261.825,252.6 261.3,252.6 Q260.8313,252.6 260.5313,252.3937 Q260.2313,252.1875 260.1,251.6437 Q260.0438,251.2687 259.8375,251.0625 Q259.4625,250.6688 258.7875,250.4438 Q258.1125,250.2 257.4375,250.2 Q256.5938,250.2 255.8813,250.5375 Q255.1875,250.875 254.6437,251.625 Q254.1,252.375 254.1,253.4063 L254.1,254.5125 Q254.1,255.75 255.1125,256.575 Q256.125,257.4 257.925,257.4 Q258.9938,257.4 259.7438,257.1563 Q260.175,257.025 260.6625,256.5938 Q260.9813,256.35 261.15,256.275 Q261.3187,256.2 261.525,256.2 Q261.9188,256.2 262.2,256.5188 Q262.5,256.8187 262.5,257.25 Q262.5,257.6625 262.0875,258.15 Q261.4875,258.8625 260.5313,259.2562 Q259.275,259.8 257.7375,259.8 Q255.9375,259.8 254.4937,259.0875 Q253.3312,258.525 252.5063,257.3063 Q251.7,256.0875 251.7,254.6437 L251.7,253.3312 Q251.7,251.8312 252.4125,250.5187 Q253.1437,249.2062 254.4,248.5125 Q255.675,247.8 257.1,247.8 Q257.9625,247.8 258.7125,248.1 Q259.4625,248.4 260.1,249 Z " fill="#000000"/><text fill="#000000" font-family="sans-serif" font-size="14.4" lengthAdjust="spacing" textLength="91.2" x="282.3" y="259.0922">RegistryOffice</text><line style="stroke:#A80036;stroke-width:1.7999999999999998;" x1="148.2" x2="468.6" y1="272.4" y2="272.4"/><ellipse cx="160.2" cy="285.6" rx="3.6" ry="3.6" style="stroke:#038048;stroke-width:1.2;fill:none;"/><text fill="#000000" font-family="sans-serif" font-size="13.2" lengthAdjust="spacing" textLength="244.8" x="171" y="290.9027">_nameRegistry : FlyweightFactory&lt;string&gt;</text><ellipse cx="160.2" cy="302.2031" rx="3.6" ry="3.6" style="stroke:#038048;stroke-width:1.2;fill:none;"/><text fill="#000000" font-family="sans-serif" font-size="13.2" lengthAdjust="spacing" textLength="141.6" x="171" y="307.5059">_persons : List&lt;Person&gt;</text><line style="stroke:#A80036;stroke-width:1.7999999999999998;" x1="148.2" x2="468.6" y1="315.2063" y2="315.2063"/><ellipse cx="160.2" cy="328.4063" fill="#84BE84" rx="3.6" ry="3.6" style="stroke:#038048;stroke-width:1.2;"/><text fill="#000000" font-family="sans-serif" font-size="13.2" lengthAdjust="spacing" textLength="93.6" x="171" y="333.709">RegistryOffice()</text><ellipse cx="160.2" cy="345.0094" fill="#84BE84" rx="3.6" ry="3.6" style="stroke:#038048;stroke-width:1.2;"/><text fill="#000000" font-family="sans-serif" font-size="13.2" lengthAdjust="spacing" textLength="291.6" x="171" y="350.3121">RegisterPerson(name:string, coord:Vector2) : void</text><ellipse cx="160.2" cy="361.6125" fill="#84BE84" rx="3.6" ry="3.6" style="stroke:#038048;stroke-width:1.2;"/><text fill="#000000" font-family="sans-serif" font-size="13.2" lengthAdjust="spacing" textLength="135.6" x="171" y="366.9152">ListWithMemory() : void</text><ellipse cx="160.2" cy="378.2156" fill="#84BE84" rx="3.6" ry="3.6" style="stroke:#038048;stroke-width:1.2;"/><text fill="#000000" font-family="sans-serif" font-size="13.2" lengthAdjust="spacing" textLength="153.6" x="171" y="383.5184">ExportMemoryTree() : void</text><ellipse cx="160.2" cy="394.8187" fill="#84BE84" rx="3.6" ry="3.6" style="stroke:#038048;stroke-width:1.2;"/><text fill="#000000" font-family="sans-serif" font-size="13.2" lengthAdjust="spacing" textLength="166.8" x="171" y="400.1215">Export(fileName:string) : void</text><ellipse cx="160.2" cy="411.4219" fill="#84BE84" rx="3.6" ry="3.6" style="stroke:#038048;stroke-width:1.2;"/><text fill="#000000" font-family="sans-serif" font-size="13.2" lengthAdjust="spacing" text-decoration="underline" textLength="224.4" x="171" y="416.7246">Import(fileName:string) : RegistryOffice</text><!--MD5=[157670393f9014ea34847ceb5851574b]
class ISubject--><rect codeLine="1" fill="#FEFECE" filter="url(#fk5wukpssoaeb)" height="74.2031" id="ISubject" style="stroke:#A80036;stroke-width:1.7999999999999998;" width="168" x="652.8" y="12"/><ellipse cx="698.34" cy="31.2" fill="#B4A7E5" rx="13.2" ry="13.2" style="stroke:#A80036;stroke-width:1.2;"/><path d="M699.54,27.6 L699.54,34.8 L701.94,34.8 L702.5213,34.8 L703.14,35.55 L703.14,36 L703.14,36.45 L702.5213,37.2 L701.94,37.2 L694.74,37.2 L694.1588,37.2 L693.54,36.45 L693.54,36 L693.54,35.55 L694.1588,34.8 L694.74,34.8 L697.14,34.8 L697.14,27.6 L694.74,27.6 L694.1588,27.6 L693.54,26.85 L693.54,26.4 L693.54,25.95 L694.1588,25.2 L694.74,25.2 L701.94,25.2 L702.5213,25.2 L703.14,25.95 L703.14,26.4 L703.14,26.85 L702.5213,27.6 L701.94,27.6 L699.54,27.6 Z " fill="#000000"/><text fill="#000000" font-family="sans-serif" font-size="14.4" font-style="italic" lengthAdjust="spacing" textLength="55.2" x="721.26" y="37.0922">ISubject</text><rect fill="#FFFFFF" height="20.5125" style="stroke:#000000;stroke-width:1.2;stroke-dasharray:2.0,2.0;" width="10.8" x="813.6" y="8.4"/><text fill="#000000" font-family="sans-serif" font-size="14.4" font-style="italic" lengthAdjust="spacing" textLength="8.4" x="814.8" y="24.5484">T</text><line style="stroke:#A80036;stroke-width:1.7999999999999998;" x1="654" x2="819.6" y1="50.4" y2="50.4"/><line style="stroke:#A80036;stroke-width:1.7999999999999998;" x1="654" x2="819.6" y1="60" y2="60"/><ellipse cx="666" cy="73.2" fill="#84BE84" rx="3.6" ry="3.6" style="stroke:#038048;stroke-width:1.2;"/><text fill="#000000" font-family="sans-serif" font-size="13.2" lengthAdjust="spacing" textLength="136.8" x="676.8" y="78.5027">Operation(subject:T) : T</text><!--MD5=[2d13777d0fbdaef71e28f10d95b6345c]
class CorrectedFlyweightFactory--><rect codeLine="4" fill="#FEFECE" filter="url(#fk5wukpssoaeb)" height="107.4094" id="CorrectedFlyweightFactory" style="stroke:#A80036;stroke-width:1.7999999999999998;" width="448.8" x="512.4" y="275.4"/><ellipse cx="645.3" cy="294.6" fill="#ADD1B2" rx="13.2" ry="13.2" style="stroke:#A80036;stroke-width:1.2;"/><path d="M647.7,290.4 Q647.9438,289.8 648.225,289.5 Q648.5063,289.2 648.825,289.2 Q649.3875,289.2 649.7438,289.5375 Q650.1,289.875 650.1,290.6625 L650.1,292.5375 Q650.1,293.325 649.7625,293.6625 Q649.425,294 648.9,294 Q648.4313,294 648.1313,293.7938 Q647.8313,293.5875 647.7,293.0438 Q647.6438,292.6688 647.4375,292.4625 Q647.0625,292.0687 646.3875,291.8438 Q645.7125,291.6 645.0375,291.6 Q644.1938,291.6 643.4812,291.9375 Q642.7875,292.275 642.2438,293.025 Q641.7,293.775 641.7,294.8063 L641.7,295.9125 Q641.7,297.15 642.7125,297.975 Q643.725,298.8 645.525,298.8 Q646.5938,298.8 647.3438,298.5563 Q647.775,298.425 648.2625,297.9938 Q648.5813,297.75 648.75,297.675 Q648.9187,297.6 649.125,297.6 Q649.5188,297.6 649.8,297.9188 Q650.1,298.2188 650.1,298.65 Q650.1,299.0625 649.6875,299.55 Q649.0875,300.2625 648.1313,300.6563 Q646.875,301.2 645.3375,301.2 Q643.5375,301.2 642.0938,300.4875 Q640.9313,299.925 640.1062,298.7063 Q639.3,297.4875 639.3,296.0438 L639.3,294.7313 Q639.3,293.2313 640.0125,291.9188 Q640.7438,290.6063 642,289.9125 Q643.275,289.2 644.7,289.2 Q645.5625,289.2 646.3125,289.5 Q647.0625,289.8 647.7,290.4 Z " fill="#000000"/><text fill="#000000" font-family="sans-serif" font-size="14.4" lengthAdjust="spacing" textLength="172.8" x="669.9" y="300.4922">CorrectedFlyweightFactory</text><line style="stroke:#A80036;stroke-width:1.7999999999999998;" x1="513.6" x2="960" y1="313.8" y2="313.8"/><rect fill="none" height="7.2" style="stroke:#C82930;stroke-width:1.2;" width="7.2" x="522" y="323.4"/><text fill="#000000" font-family="sans-serif" font-size="13.2" lengthAdjust="spacing" textLength="264" x="536.4" y="332.3027">_flyweightFactory : FlyweightFactory&lt;string&gt;</text><line style="stroke:#A80036;stroke-width:1.7999999999999998;" x1="513.6" x2="960" y1="340.0031" y2="340.0031"/><ellipse cx="525.6" cy="353.2031" fill="#84BE84" rx="3.6" ry="3.6" style="stroke:#038048;stroke-width:1.2;"/><text fill="#000000" font-family="sans-serif" font-size="13.2" lengthAdjust="spacing" textLength="417.6" x="536.4" y="358.5059">CorrectedFlyweightFactory(flyweightFactory:FlyweightFactory&lt;string&gt;)</text><ellipse cx="525.6" cy="369.8063" fill="#84BE84" rx="3.6" ry="3.6" style="stroke:#038048;stroke-width:1.2;"/><text fill="#000000" font-family="sans-serif" font-size="13.2" lengthAdjust="spacing" textLength="258" x="536.4" y="375.109">Operation(subject:string) : Flyweight&lt;string&gt;</text><!--MD5=[5006a590d4497dc871b9f944eabf0a99]
class IVector--><rect codeLine="1" fill="#FEFECE" filter="url(#fk5wukpssoaeb)" height="107.4094" id="IVector" style="stroke:#A80036;stroke-width:1.7999999999999998;" width="180" x="883.2" y="539.4"/><ellipse cx="944.7" cy="558.6" fill="#B4A7E5" rx="13.2" ry="13.2" style="stroke:#A80036;stroke-width:1.2;"/><path d="M945.9,555 L945.9,562.2 L948.3,562.2 L948.8812,562.2 L949.5,562.95 L949.5,563.4 L949.5,563.85 L948.8812,564.6 L948.3,564.6 L941.1,564.6 L940.5188,564.6 L939.9,563.85 L939.9,563.4 L939.9,562.95 L940.5188,562.2 L941.1,562.2 L943.5,562.2 L943.5,555 L941.1,555 L940.5188,555 L939.9,554.25 L939.9,553.8 L939.9,553.35 L940.5188,552.6 L941.1,552.6 L948.3,552.6 L948.8812,552.6 L949.5,553.35 L949.5,553.8 L949.5,554.25 L948.8812,555 L948.3,555 L945.9,555 Z " fill="#000000"/><text fill="#000000" font-family="sans-serif" font-size="14.4" font-style="italic" lengthAdjust="spacing" textLength="46.8" x="969.3" y="564.4922">IVector</text><line style="stroke:#A80036;stroke-width:1.7999999999999998;" x1="884.4" x2="1062" y1="577.8" y2="577.8"/><line style="stroke:#A80036;stroke-width:1.7999999999999998;" x1="884.4" x2="1062" y1="587.4" y2="587.4"/><text fill="#000000" font-family="sans-serif" font-size="13.2" lengthAdjust="spacing" textLength="80.4" x="890.4" y="605.9027">abs() : double</text><text fill="#000000" font-family="sans-serif" font-size="13.2" lengthAdjust="spacing" textLength="165.6" x="890.4" y="622.5059">cdot(param:IVector) : double</text><text fill="#000000" font-family="sans-serif" font-size="13.2" lengthAdjust="spacing" textLength="156" x="890.4" y="639.109">getComponents() : double[]</text><!--MD5=[3f551f1273bbfa514d2f681c1c48b5c1]
class Vector2--><rect codeLine="1" fill="#FEFECE" filter="url(#fk5wukpssoaeb)" height="173.8219" id="Vector2" style="stroke:#A80036;stroke-width:1.7999999999999998;" width="198" x="642.6" y="506.4"/><ellipse cx="711.9" cy="525.6" fill="#ADD1B2" rx="13.2" ry="13.2" style="stroke:#A80036;stroke-width:1.2;"/><path d="M714.3,521.4 Q714.5437,520.8 714.825,520.5 Q715.1062,520.2 715.425,520.2 Q715.9875,520.2 716.3438,520.5375 Q716.7,520.875 716.7,521.6625 L716.7,523.5375 Q716.7,524.325 716.3625,524.6625 Q716.025,525 715.5,525 Q715.0313,525 714.7312,524.7937 Q714.4313,524.5875 714.3,524.0437 Q714.2438,523.6687 714.0375,523.4625 Q713.6625,523.0688 712.9875,522.8438 Q712.3125,522.6 711.6375,522.6 Q710.7937,522.6 710.0813,522.9375 Q709.3875,523.275 708.8438,524.025 Q708.3,524.775 708.3,525.8063 L708.3,526.9125 Q708.3,528.15 709.3125,528.975 Q710.325,529.8 712.125,529.8 Q713.1938,529.8 713.9438,529.5563 Q714.375,529.425 714.8625,528.9938 Q715.1813,528.75 715.35,528.675 Q715.5188,528.6 715.725,528.6 Q716.1188,528.6 716.4,528.9187 Q716.7,529.2188 716.7,529.65 Q716.7,530.0625 716.2875,530.55 Q715.6875,531.2625 714.7312,531.6563 Q713.475,532.2 711.9375,532.2 Q710.1375,532.2 708.6938,531.4875 Q707.5313,530.925 706.7063,529.7063 Q705.9,528.4875 705.9,527.0437 L705.9,525.7312 Q705.9,524.2312 706.6125,522.9187 Q707.3438,521.6062 708.6,520.9125 Q709.875,520.2 711.3,520.2 Q712.1625,520.2 712.9125,520.5 Q713.6625,520.8 714.3,521.4 Z " fill="#000000"/><text fill="#000000" font-family="sans-serif" font-size="14.4" lengthAdjust="spacing" textLength="49.2" x="736.5" y="531.4922">Vector2</text><line style="stroke:#A80036;stroke-width:1.7999999999999998;" x1="643.8" x2="839.4" y1="544.8" y2="544.8"/><ellipse cx="655.8" cy="558" rx="3.6" ry="3.6" style="stroke:#038048;stroke-width:1.2;fill:none;"/><text fill="#000000" font-family="sans-serif" font-size="13.2" lengthAdjust="spacing" textLength="57.6" x="666.6" y="563.3027">X : double</text><ellipse cx="655.8" cy="574.6031" rx="3.6" ry="3.6" style="stroke:#038048;stroke-width:1.2;fill:none;"/><text fill="#000000" font-family="sans-serif" font-size="13.2" lengthAdjust="spacing" textLength="58.8" x="666.6" y="579.9059">Y : double</text><line style="stroke:#A80036;stroke-width:1.7999999999999998;" x1="643.8" x2="839.4" y1="587.6062" y2="587.6062"/><ellipse cx="655.8" cy="600.8063" fill="#84BE84" rx="3.6" ry="3.6" style="stroke:#038048;stroke-width:1.2;"/><text fill="#000000" font-family="sans-serif" font-size="13.2" lengthAdjust="spacing" textLength="162" x="666.6" y="606.109">Vector2(x:double, y:double)</text><ellipse cx="655.8" cy="617.4094" fill="#84BE84" rx="3.6" ry="3.6" style="stroke:#038048;stroke-width:1.2;"/><text fill="#000000" font-family="sans-serif" font-size="13.2" lengthAdjust="spacing" textLength="80.4" x="666.6" y="622.7121">abs() : double</text><ellipse cx="655.8" cy="634.0125" fill="#84BE84" rx="3.6" ry="3.6" style="stroke:#038048;stroke-width:1.2;"/><text fill="#000000" font-family="sans-serif" font-size="13.2" lengthAdjust="spacing" textLength="165.6" x="666.6" y="639.3152">cdot(param:IVector) : double</text><ellipse cx="655.8" cy="650.6156" fill="#84BE84" rx="3.6" ry="3.6" style="stroke:#038048;stroke-width:1.2;"/><text fill="#000000" font-family="sans-serif" font-size="13.2" lengthAdjust="spacing" textLength="156" x="666.6" y="655.9184">getComponents() : double[]</text><ellipse cx="655.8" cy="667.2188" fill="#84BE84" rx="3.6" ry="3.6" style="stroke:#038048;stroke-width:1.2;"/><text fill="#000000" font-family="sans-serif" font-size="13.2" lengthAdjust="spacing" textLength="166.8" x="666.6" y="672.5215">«override» ToString() : string</text><!--MD5=[175f95e045c1a44aed0b30df3abe0e5c]
class Program--><rect codeLine="11" fill="#FEFECE" filter="url(#fk5wukpssoaeb)" height="57.6" id="Program" style="stroke:#A80036;stroke-width:1.7999999999999998;" width="96" x="8.4" y="300.6"/><ellipse cx="26.4" cy="319.8" fill="#ADD1B2" rx="13.2" ry="13.2" style="stroke:#A80036;stroke-width:1.2;"/><path d="M28.8,315.6 Q29.0438,315 29.325,314.7 Q29.6063,314.4 29.925,314.4 Q30.4875,314.4 30.8438,314.7375 Q31.2,315.075 31.2,315.8625 L31.2,317.7375 Q31.2,318.525 30.8625,318.8625 Q30.525,319.2 30,319.2 Q29.5313,319.2 29.2313,318.9938 Q28.9313,318.7875 28.8,318.2438 Q28.7438,317.8688 28.5375,317.6625 Q28.1625,317.2688 27.4875,317.0438 Q26.8125,316.8 26.1375,316.8 Q25.2938,316.8 24.5813,317.1375 Q23.8875,317.475 23.3438,318.225 Q22.8,318.975 22.8,320.0062 L22.8,321.1125 Q22.8,322.35 23.8125,323.175 Q24.825,324 26.625,324 Q27.6937,324 28.4437,323.7562 Q28.875,323.625 29.3625,323.1937 Q29.6813,322.95 29.85,322.875 Q30.0187,322.8 30.225,322.8 Q30.6188,322.8 30.9,323.1188 Q31.2,323.4188 31.2,323.85 Q31.2,324.2625 30.7875,324.75 Q30.1875,325.4625 29.2313,325.8563 Q27.975,326.4 26.4375,326.4 Q24.6375,326.4 23.1937,325.6875 Q22.0313,325.125 21.2063,323.9063 Q20.4,322.6875 20.4,321.2438 L20.4,319.9313 Q20.4,318.4313 21.1125,317.1188 Q21.8438,315.8063 23.1,315.1125 Q24.375,314.4 25.8,314.4 Q26.6625,314.4 27.4125,314.7 Q28.1625,315 28.8,315.6 Z " fill="#000000"/><text fill="#000000" font-family="sans-serif" font-size="14.4" lengthAdjust="spacing" textLength="57.6" x="43.2" y="325.6922">Program</text><line style="stroke:#A80036;stroke-width:1.7999999999999998;" x1="9.6" x2="103.2" y1="339" y2="339"/><line style="stroke:#A80036;stroke-width:1.7999999999999998;" x1="9.6" x2="103.2" y1="348.6" y2="348.6"/><!--MD5=[12b6296d49fd96839311dfa2462ef343]
link Flyweight to IFlyweight--><path codeLine="10" d="M1158.624,865.8 C1164.696,865.8 1170.768,865.8 1176.828,865.8 " fill="none" id="Flyweight-to-IFlyweight" style="stroke:#A80036;stroke-width:1.2;"/><polygon fill="none" points="1176.996,857.4,1200.996,865.8,1176.996,874.2,1176.996,857.4" style="stroke:#A80036;stroke-width:1.2;"/><text fill="#000000" font-family="sans-serif" font-size="15.6" lengthAdjust="spacing" textLength="27.6" x="1168.3182" y="861.2162">&lt;T&gt;</text><!--MD5=[3a7ed6176cef515c0c3212d9bcf06105]
link Vector2 to IVector--><path codeLine="10" d="M840.66,593.4 C846.744,593.4 852.828,593.4 858.9,593.4 " fill="none" id="Vector2-to-IVector" style="stroke:#A80036;stroke-width:1.2;"/><polygon fill="none" points="859.116,585,883.116,593.4,859.116,601.8,859.116,585" style="stroke:#A80036;stroke-width:1.2;"/><!--MD5=[96fda1073ddd361cbc683a7d0540f09a]
reverse link Program to RegistryOffice--><path codeLine="13" d="M120.456,329.4 C129.24,329.4 138.036,329.4 146.82,329.4 " fill="none" id="Program-backto-RegistryOffice" style="stroke:#A80036;stroke-width:1.2;"/><polygon fill="#FFFFFF" points="104.64,329.4,111.84,334.2,119.04,329.4,111.84,324.6,104.64,329.4" style="stroke:#A80036;stroke-width:1.2;"/><!--MD5=[f8eb3ce1d26e15d934d389e177449d81]
reverse link RegistryOffice to FlyweightFactory--><path codeLine="15" d="M445.812,226.116 C467.364,214.332 490.104,204.144 513,197.4 C608.664,169.212 867.684,164.388 961.8,197.4 C1002.3,211.608 1040.244,240.396 1069.512,267.48 " fill="none" id="RegistryOffice-backto-FlyweightFactory" style="stroke:#A80036;stroke-width:1.2;"/><polygon fill="#FFFFFF" points="432.192,233.868,440.8237,234.4798,444.7083,226.7475,436.0766,226.1356,432.192,233.868" style="stroke:#A80036;stroke-width:1.2;"/><!--MD5=[7afd1960d9252c531ad327b7573715a9]
reverse link RegistryOffice to Person--><path codeLine="16" d="M369.12,439.104 C380.052,458.628 391.344,478.824 402.024,497.892 " fill="none" id="RegistryOffice-backto-Person" style="stroke:#A80036;stroke-width:1.2;"/><polygon fill="#FFFFFF" points="361.248,425.04,360.5726,433.6669,368.2762,437.6084,368.9516,428.9815,361.248,425.04" style="stroke:#A80036;stroke-width:1.2;"/><!--MD5=[57ccc8860b9a74e4fc321e27bfb6c72b]
link RegistryOffice to Tools--><path codeLine="17" d="M270.924,424.968 C262.98,448.488 255.564,473.88 250.8,498 C227.256,617.148 226.788,761.976 228.096,828.288 " fill="none" id="RegistryOffice-Tools" style="stroke:#A80036;stroke-width:1.2;"/><text fill="#000000" font-family="sans-serif" font-size="15.6" lengthAdjust="spacing" textLength="36" x="252" y="599.9941">Uses</text><!--MD5=[59082824b93e1134e4617db46de6ea24]
link RegistryOffice to CorrectedFlyweightFactory--><path codeLine="18" d="M469.884,329.4 C483.96,329.4 498.036,329.4 512.112,329.4 " fill="none" id="RegistryOffice-CorrectedFlyweightFactory" style="stroke:#A80036;stroke-width:1.2;"/><!--MD5=[905ba6903d9acd810040774c82fa1405]
reverse link FlyweightFactory to NamePart--><path codeLine="19" d="M1137.576,407.436 C1144.296,485.4 1142.676,606.048 1084.8,688.8 C1043.376,748.02 1001.172,724.164 939.6,762 C932.568,766.32 925.44,770.904 918.312,775.632 " fill="none" id="FlyweightFactory-backto-NamePart" style="stroke:#A80036;stroke-width:1.2;"/><polygon fill="#FFFFFF" points="1136.028,391.488,1131.939,399.1143,1137.406,405.8219,1141.495,398.1956,1136.028,391.488" style="stroke:#A80036;stroke-width:1.2;"/><!--MD5=[680cfc4acf105ca248da35b1350040bb]
reverse link Person to NamePart--><path codeLine="20" d="M587.976,698.64 C619.116,722.976 652.08,748.728 682.512,772.5 " fill="none" id="Person-backto-NamePart" style="stroke:#A80036;stroke-width:1.2;"/><polygon fill="#FFFFFF" points="575.676,689.028,578.3958,697.2428,587.0248,697.8917,584.305,689.677,575.676,689.028" style="stroke:#A80036;stroke-width:1.2;"/><!--MD5=[d52bf26e708a6cc9681ea24d8cdbdf93]
link NamePart to Flyweight--><path codeLine="21" d="M918.36,865.8 C930.264,865.8 942.156,865.8 954.06,865.8 " fill="none" id="NamePart-to-Flyweight" style="stroke:#A80036;stroke-width:1.2;"/><polygon fill="#A80036" points="960.288,865.8,949.488,861,954.288,865.8,949.488,870.6,960.288,865.8" style="stroke:#A80036;stroke-width:1.2;"/><!--MD5=[7ef5c3c677dcae5c1ab192976c826d1b]
reverse link ISubject to CorrectedFlyweightFactory--><path codeLine="22" d="M736.8,111.036 C736.8,160.068 736.8,228.396 736.8,275.232 " fill="none" id="ISubject-backto-CorrectedFlyweightFactory" style="stroke:#A80036;stroke-width:1.2;"/><polygon fill="none" points="728.4,110.712,736.8,86.712,745.2,110.712,728.4,110.712" style="stroke:#A80036;stroke-width:1.2;"/><!--MD5=[f1acae96855ca90dd9f33945fa1cb56b]
reverse link CorrectedFlyweightFactory to FlyweightFactory--><path codeLine="23" d="M977.364,329.4 C986.172,329.4 994.992,329.4 1003.8,329.4 " fill="none" id="CorrectedFlyweightFactory-backto-FlyweightFactory" style="stroke:#A80036;stroke-width:1.2;"/><polygon fill="#FFFFFF" points="961.512,329.4,968.712,334.2,975.912,329.4,968.712,324.6,961.512,329.4" style="stroke:#A80036;stroke-width:1.2;"/><!--MD5=[eef43a517c8258dabf3395d784541c06]
reverse link Person to Vector2--><path codeLine="25" d="M616.152,593.4 C624.888,593.4 633.612,593.4 642.348,593.4 " fill="none" id="Person-backto-Vector2" style="stroke:#A80036;stroke-width:1.2;"/><polygon fill="#A80036" points="600.444,593.4,607.644,598.2,614.844,593.4,607.644,588.6,600.444,593.4" style="stroke:#A80036;stroke-width:1.2;"/><!--MD5=[eb6c1f68d7f9b08fed2f87173b8c9711]
@startuml
!include .\\puml-classes\\Tools.puml
!include .\\puml-classes\\FlyweightFactory.puml
!include .\\puml-classes\\FlyweightString.puml
!include .\\puml-classes\\NamePart.puml
!include .\\puml-classes\\Person.puml
!include .\\puml-classes\\RegistryOffice.puml
!include .\\puml-classes\\Proxy.puml
!include .\\puml-classes\\IVector.puml
!include .\\puml-classes\\Vector2.puml

class Program

Program o- RegistryOffice

RegistryOffice o- FlyweightFactory
RegistryOffice o- - Person
RegistryOffice - - - Tools : Uses
RegistryOffice - CorrectedFlyweightFactory
FlyweightFactory o- NamePart
Person o- - NamePart
NamePart -> Flyweight
CorrectedFlyweightFactory - -u-|> ISubject
CorrectedFlyweightFactory o- FlyweightFactory

Person *- Vector2



@enduml

@startuml
class Tools {
    + {static} RandomArrow() : string
}
class "FlyweightFactory"<T> {
    + FlyweightFactory()
    + Flyweights : List<Flyweight<T>>
    + GetFlyweight(state:T) : Flyweight<T>
    + GetFlyweights() : IEnumerable
}
interface "IFlyweight"<T> {
    + GetState() : T
}
class "Flyweight"<T> {
    + State : T
    + Flyweight(state:T)
    + GetState() : T
    + <<override>> ToString() : string
}
"IFlyweight" "<T>" <|-L- "Flyweight"
class NamePart {
    + Text : Flyweight<string>
    + Next : NamePart?
    + NamePart(text:Flyweight<string>)
    + GetPart() : Flyweight<string>
    + GetNext() : NamePart?
    + SetNext(nextPart:NamePart?) : void
    + <<override>> ToString() : string
    + ToStringId() : string
    + HasNext() : bool
}
class Person {
    + Name : NamePart
    + Coordinate : Vector2
    + Person(name:NamePart, coordinate:Vector2)
    + GetName() : NamePart
    + Person(name:NamePart)
    + {static} RandomLocation() : Vector2
    + ToStringId() : string
    + <<override>> ToString() : string
}
class RegistryOffice {
    + _nameRegistry : FlyweightFactory<string>
    + _persons : List<Person>
    + RegistryOffice()
    + RegisterPerson(name:string, coord:Vector2) : void
    + ListWithMemory() : void
    + ExportMemoryTree() : void
    + Export(fileName:string) : void
    + {static} Import(fileName:string) : RegistryOffice
}
interface "ISubject"<T> {
    + Operation(subject:T) : T
}
class CorrectedFlyweightFactory {
    - _flyweightFactory : FlyweightFactory<string>
    + CorrectedFlyweightFactory(flyweightFactory:FlyweightFactory<string>)
    + Operation(subject:string) : Flyweight<string>
}
interface IVector {
    abs() : double
    cdot(param:IVector) : double
    getComponents() : double[]
}
class Vector2 {
    + X : double
    + Y : double
    + Vector2(x:double, y:double)
    + abs() : double
    + cdot(param:IVector) : double
    + getComponents() : double[]
    + <<override>> ToString() : string
}
IVector <|-L- Vector2

class Program

Program o- RegistryOffice

RegistryOffice o- FlyweightFactory
RegistryOffice o- - Person
RegistryOffice - - - Tools : Uses
RegistryOffice - CorrectedFlyweightFactory
FlyweightFactory o- NamePart
Person o- - NamePart
NamePart -> Flyweight
CorrectedFlyweightFactory - -u-|> ISubject
CorrectedFlyweightFactory o- FlyweightFactory

Person *- Vector2



@enduml

PlantUML version 1.2021.11(Sat Oct 02 15:26:11 CEST 2021)
(GPL source distribution)
Java Runtime: OpenJDK Runtime Environment
JVM: Dynamic Code Evolution 64-Bit Server VM
Default Encoding: Cp1252
Language: en
Country: US
--></g></svg>