<?xml version="1.0" encoding="UTF-8" standalone="no"?><svg xmlns="http://www.w3.org/2000/svg" xmlns:xlink="http://www.w3.org/1999/xlink" contentScriptType="application/ecmascript" contentStyleType="text/css" height="964.6px" preserveAspectRatio="none" style="width:1434px;height:964px;background:#FFFFFF;" version="1.1" viewBox="0 0 1434 964" width="1434.3px" zoomAndPan="magnify"><defs><filter height="300%" id="f1inqxk4d3873d" width="300%" x="-1" y="-1"><feGaussianBlur result="blurOut" stdDeviation="1.3999999999999997"/><feColorMatrix in="blurOut" result="blurOut2" type="matrix" values="0 0 0 0 0 0 0 0 0 0 0 0 0 0 0 0 0 0 .4 0"/><feOffset dx="2.7999999999999994" dy="2.7999999999999994" in="blurOut2" result="blurOut3"/><feBlend in="SourceGraphic" in2="blurOut3" mode="normal"/></filter></defs><g><!--MD5=[f14666a6eb306e35ef084e5392334b0c]
cluster Observer--><polygon fill="#FFFFFF" filter="url(#f1inqxk4d3873d)" points="319.9,179.9,371,179.9,375.9,196.4266,658,196.4266,658,612.5,319.9,612.5,319.9,179.9" style="stroke:#000000;stroke-width:1.0499999999999998;"/><line style="stroke:#000000;stroke-width:1.0499999999999998;" x1="319.9" x2="375.9" y1="196.4266" y2="196.4266"/><text fill="#000000" font-family="sans-serif" font-size="9.8" font-weight="bold" lengthAdjust="spacing" textLength="46.9" x="322.7" y="191.4732">Observer</text><!--MD5=[bcb14a5d1864425c15a4473ca296b0b1]
cluster Iterator--><polygon fill="#FFFFFF" filter="url(#f1inqxk4d3873d)" points="674.8,194.25,715.4,194.25,720.3,210.7766,819,210.7766,819,463.75,674.8,463.75,674.8,194.25" style="stroke:#000000;stroke-width:1.0499999999999998;"/><line style="stroke:#000000;stroke-width:1.0499999999999998;" x1="674.8" x2="720.3" y1="210.7766" y2="210.7766"/><text fill="#000000" font-family="sans-serif" font-size="9.8" font-weight="bold" lengthAdjust="spacing" textLength="36.4" x="677.6" y="205.8232">Iterator</text><!--MD5=[9637f819ccb2d1556332eb4842cfeb44]
cluster StateMachine--><polygon fill="#FFFFFF" filter="url(#f1inqxk4d3873d)" points="394.8,677.6,466.2,677.6,471.1,694.1266,1193.5,694.1266,1193.5,959.7,394.8,959.7,394.8,677.6" style="stroke:#000000;stroke-width:1.0499999999999998;"/><line style="stroke:#000000;stroke-width:1.0499999999999998;" x1="394.8" x2="471.1" y1="694.1266" y2="694.1266"/><text fill="#000000" font-family="sans-serif" font-size="9.8" font-weight="bold" lengthAdjust="spacing" textLength="67.2" x="397.6" y="689.1732">StateMachine</text><!--MD5=[fa17fd5fc6d55b921fb3753d8045edc1]
cluster ExecutionStrategy--><polygon fill="#FFFFFF" filter="url(#f1inqxk4d3873d)" points="870.8,199.15,964.6,199.15,969.5,215.6766,1062.6,215.6766,1062.6,439.6,870.8,439.6,870.8,199.15" style="stroke:#000000;stroke-width:1.0499999999999998;"/><line style="stroke:#000000;stroke-width:1.0499999999999998;" x1="870.8" x2="969.5" y1="215.6766" y2="215.6766"/><text fill="#000000" font-family="sans-serif" font-size="9.8" font-weight="bold" lengthAdjust="spacing" textLength="89.6" x="873.6" y="210.7232">ExecutionStrategy</text><!--MD5=[e9ff733817f6fb9250a01a6c97dd0c28]
cluster EventStrategy--><polygon fill="#FFFFFF" filter="url(#f1inqxk4d3873d)" points="1079.4,194.25,1152.9,194.25,1157.8,210.7766,1422.4,210.7766,1422.4,439.6,1079.4,439.6,1079.4,194.25" style="stroke:#000000;stroke-width:1.0499999999999998;"/><line style="stroke:#000000;stroke-width:1.0499999999999998;" x1="1079.4" x2="1157.8" y1="210.7766" y2="210.7766"/><text fill="#000000" font-family="sans-serif" font-size="9.8" font-weight="bold" lengthAdjust="spacing" textLength="69.3" x="1082.2" y="205.8232">EventStrategy</text><!--MD5=[1dcf94be89f1d1c6c4f8f797da90f5fa]
class IObserver--><rect codeLine="2" fill="#FEFECE" filter="url(#f1inqxk4d3873d)" height="43.2852" id="IObserver" style="stroke:#A80036;stroke-width:1.0499999999999998;" width="144.2" x="495.6" y="557.9"/><ellipse cx="545.475" cy="569.1" fill="#B4A7E5" rx="7.7" ry="7.7" style="stroke:#A80036;stroke-width:0.6999999999999998;"/><path d="M546.175,567 L546.175,571.2 L547.575,571.2 L547.9141,571.2 L548.275,571.6375 L548.275,571.9 L548.275,572.1625 L547.9141,572.6 L547.575,572.6 L543.375,572.6 L543.0359,572.6 L542.675,572.1625 L542.675,571.9 L542.675,571.6375 L543.0359,571.2 L543.375,571.2 L544.775,571.2 L544.775,567 L543.375,567 L543.0359,567 L542.675,566.5625 L542.675,566.3 L542.675,566.0375 L543.0359,565.6 L543.375,565.6 L547.575,565.6 L547.9141,565.6 L548.275,566.0375 L548.275,566.3 L548.275,566.5625 L547.9141,567 L547.575,567 L546.175,567 Z " fill="#000000"/><text fill="#000000" font-family="sans-serif" font-size="8.4" font-style="italic" lengthAdjust="spacing" textLength="38.5" x="559.825" y="572.5371">IObserver</text><line style="stroke:#A80036;stroke-width:1.0499999999999998;" x1="496.3" x2="639.1" y1="580.3" y2="580.3"/><line style="stroke:#A80036;stroke-width:1.0499999999999998;" x1="496.3" x2="639.1" y1="585.9" y2="585.9"/><rect fill="#F24D5C" height="4.2" style="stroke:#C82930;stroke-width:0.6999999999999998;" width="4.2" x="501.2" y="591.5"/><text fill="#000000" font-family="sans-serif" font-size="7.7" lengthAdjust="spacing" textLength="126" x="509.6" y="596.6933">SignalNewIncident() : List&lt;FireTruck&gt;</text><!--MD5=[157670393f9014ea34847ceb5851574b]
class ISubject--><rect codeLine="6" fill="#FEFECE" filter="url(#f1inqxk4d3873d)" height="52.9703" id="ISubject" style="stroke:#A80036;stroke-width:1.0499999999999998;" width="133" x="331.1" y="380.1"/><ellipse cx="378.525" cy="391.3" fill="#B4A7E5" rx="7.7" ry="7.7" style="stroke:#A80036;stroke-width:0.6999999999999998;"/><path d="M379.225,389.2 L379.225,393.4 L380.625,393.4 L380.9641,393.4 L381.325,393.8375 L381.325,394.1 L381.325,394.3625 L380.9641,394.8 L380.625,394.8 L376.425,394.8 L376.0859,394.8 L375.725,394.3625 L375.725,394.1 L375.725,393.8375 L376.0859,393.4 L376.425,393.4 L377.825,393.4 L377.825,389.2 L376.425,389.2 L376.0859,389.2 L375.725,388.7625 L375.725,388.5 L375.725,388.2375 L376.0859,387.8 L376.425,387.8 L380.625,387.8 L380.9641,387.8 L381.325,388.2375 L381.325,388.5 L381.325,388.7625 L380.9641,389.2 L380.625,389.2 L379.225,389.2 Z " fill="#000000"/><text fill="#000000" font-family="sans-serif" font-size="8.4" font-style="italic" lengthAdjust="spacing" textLength="32.2" x="392.875" y="394.7371">ISubject</text><line style="stroke:#A80036;stroke-width:1.0499999999999998;" x1="331.8" x2="463.4" y1="402.5" y2="402.5"/><line style="stroke:#A80036;stroke-width:1.0499999999999998;" x1="331.8" x2="463.4" y1="408.1" y2="408.1"/><rect fill="#F24D5C" height="4.2" style="stroke:#C82930;stroke-width:0.6999999999999998;" width="4.2" x="336.7" y="413.7"/><text fill="#000000" font-family="sans-serif" font-size="7.7" lengthAdjust="spacing" textLength="114.8" x="345.1" y="418.8933">Attach(IObserver observer) : void</text><rect fill="#F24D5C" height="4.2" style="stroke:#C82930;stroke-width:0.6999999999999998;" width="4.2" x="336.7" y="423.3852"/><text fill="#000000" font-family="sans-serif" font-size="7.7" lengthAdjust="spacing" textLength="83.3" x="345.1" y="428.5784">Notify() : List&lt;FireTruck&gt;</text><!--MD5=[a8538bef97d6952dd507d6ace6f991fb]
class ControlStation--><rect codeLine="3" fill="#FEFECE" filter="url(#f1inqxk4d3873d)" height="82.0258" id="ControlStation" style="stroke:#A80036;stroke-width:1.0499999999999998;" width="208.6" x="333.2" y="205.1"/><ellipse cx="407.225" cy="216.3" fill="#ADD1B2" rx="7.7" ry="7.7" style="stroke:#A80036;stroke-width:0.6999999999999998;"/><path d="M408.625,213.85 Q408.7672,213.5 408.9312,213.325 Q409.0953,213.15 409.2812,213.15 Q409.6094,213.15 409.8172,213.3469 Q410.025,213.5437 410.025,214.0031 L410.025,215.0969 Q410.025,215.5562 409.8281,215.7531 Q409.6312,215.95 409.325,215.95 Q409.0516,215.95 408.8766,215.8297 Q408.7016,215.7094 408.625,215.3922 Q408.5922,215.1734 408.4719,215.0531 Q408.2531,214.8234 407.8594,214.6922 Q407.4656,214.55 407.0719,214.55 Q406.5797,214.55 406.1641,214.7469 Q405.7594,214.9437 405.4422,215.3812 Q405.125,215.8187 405.125,216.4203 L405.125,217.0656 Q405.125,217.7875 405.7156,218.2687 Q406.3062,218.75 407.3562,218.75 Q407.9797,218.75 408.4172,218.6078 Q408.6687,218.5312 408.9531,218.2797 Q409.1391,218.1375 409.2375,218.0937 Q409.3359,218.05 409.4562,218.05 Q409.6859,218.05 409.85,218.2359 Q410.025,218.4109 410.025,218.6625 Q410.025,218.9031 409.7844,219.1875 Q409.4344,219.6031 408.8766,219.8328 Q408.1437,220.15 407.2469,220.15 Q406.1969,220.15 405.3547,219.7344 Q404.6766,219.4062 404.1953,218.6953 Q403.725,217.9844 403.725,217.1422 L403.725,216.3766 Q403.725,215.5016 404.1406,214.7359 Q404.5672,213.9703 405.3,213.5656 Q406.0437,213.15 406.875,213.15 Q407.3781,213.15 407.8156,213.325 Q408.2531,213.5 408.625,213.85 Z " fill="#000000"/><text fill="#000000" font-family="sans-serif" font-size="8.4" lengthAdjust="spacing" textLength="54.6" x="421.575" y="219.7371">ControlStation</text><line style="stroke:#A80036;stroke-width:1.0499999999999998;" x1="333.9" x2="541.1" y1="227.5" y2="227.5"/><rect fill="none" height="4.2" style="stroke:#C82930;stroke-width:0.6999999999999998;" width="4.2" x="338.8" y="233.1"/><text fill="#000000" font-family="sans-serif" font-size="7.7" lengthAdjust="spacing" textLength="145.6" x="347.2" y="238.2933">«readonly» _observators : List&lt;IObserver&gt;</text><rect fill="none" height="4.2" style="stroke:#C82930;stroke-width:0.6999999999999998;" width="4.2" x="338.8" y="242.7852"/><text fill="#000000" font-family="sans-serif" font-size="7.7" lengthAdjust="spacing" textLength="126.7" x="347.2" y="247.9784">«readonly» _incidents : List&lt;Incident&gt;</text><line style="stroke:#A80036;stroke-width:1.0499999999999998;" x1="333.9" x2="541.1" y1="252.4703" y2="252.4703"/><ellipse cx="340.9" cy="260.1703" fill="#84BE84" rx="2.1" ry="2.1" style="stroke:#038048;stroke-width:0.6999999999999998;"/><text fill="#000000" font-family="sans-serif" font-size="7.7" lengthAdjust="spacing" textLength="52.5" x="347.2" y="263.2636">ControlStation()</text><ellipse cx="340.9" cy="269.8555" fill="#84BE84" rx="2.1" ry="2.1" style="stroke:#038048;stroke-width:0.6999999999999998;"/><text fill="#000000" font-family="sans-serif" font-size="7.7" lengthAdjust="spacing" textLength="133.7" x="347.2" y="272.9487">RegisterIncident(incident:Incident) : void</text><ellipse cx="340.9" cy="279.5406" fill="#84BE84" rx="2.1" ry="2.1" style="stroke:#038048;stroke-width:0.6999999999999998;"/><text fill="#000000" font-family="sans-serif" font-size="7.7" lengthAdjust="spacing" textLength="190.4" x="347.2" y="282.6339">RegisterFireStations(fireStations:List&lt;FireStation&gt;) : void</text><!--MD5=[20b905dff0786ca8d47f0c935b848fc7]
class FireStation--><rect codeLine="3" fill="#FEFECE" filter="url(#f1inqxk4d3873d)" height="62.6555" id="FireStation" style="stroke:#A80036;stroke-width:1.0499999999999998;" width="158.2" x="488.6" y="375.2"/><ellipse cx="544.075" cy="386.4" fill="#ADD1B2" rx="7.7" ry="7.7" style="stroke:#A80036;stroke-width:0.6999999999999998;"/><path d="M545.475,383.95 Q545.6172,383.6 545.7812,383.425 Q545.9453,383.25 546.1312,383.25 Q546.4594,383.25 546.6672,383.4469 Q546.875,383.6437 546.875,384.1031 L546.875,385.1969 Q546.875,385.6562 546.6781,385.8531 Q546.4812,386.05 546.175,386.05 Q545.9016,386.05 545.7266,385.9297 Q545.5516,385.8094 545.475,385.4922 Q545.4422,385.2734 545.3219,385.1531 Q545.1031,384.9234 544.7094,384.7922 Q544.3156,384.65 543.9219,384.65 Q543.4297,384.65 543.0141,384.8469 Q542.6094,385.0437 542.2922,385.4812 Q541.975,385.9187 541.975,386.5203 L541.975,387.1656 Q541.975,387.8875 542.5656,388.3687 Q543.1562,388.85 544.2062,388.85 Q544.8297,388.85 545.2672,388.7078 Q545.5187,388.6312 545.8031,388.3797 Q545.9891,388.2375 546.0875,388.1937 Q546.1859,388.15 546.3062,388.15 Q546.5359,388.15 546.7,388.3359 Q546.875,388.5109 546.875,388.7625 Q546.875,389.0031 546.6344,389.2875 Q546.2844,389.7031 545.7266,389.9328 Q544.9937,390.25 544.0969,390.25 Q543.0469,390.25 542.2047,389.8344 Q541.5266,389.5062 541.0453,388.7953 Q540.575,388.0844 540.575,387.2422 L540.575,386.4766 Q540.575,385.6016 540.9906,384.8359 Q541.4172,384.0703 542.15,383.6656 Q542.8937,383.25 543.725,383.25 Q544.2281,383.25 544.6656,383.425 Q545.1031,383.6 545.475,383.95 Z " fill="#000000"/><text fill="#000000" font-family="sans-serif" font-size="8.4" lengthAdjust="spacing" textLength="41.3" x="558.425" y="389.8371">FireStation</text><line style="stroke:#A80036;stroke-width:1.0499999999999998;" x1="489.3" x2="646.1" y1="397.6" y2="397.6"/><ellipse cx="496.3" cy="405.3" rx="2.1" ry="2.1" style="stroke:#038048;stroke-width:0.6999999999999998;fill:none;"/><text fill="#000000" font-family="sans-serif" font-size="7.7" lengthAdjust="spacing" textLength="65.1" x="502.6" y="408.3933">Name : string «get»</text><line style="stroke:#A80036;stroke-width:1.0499999999999998;" x1="489.3" x2="646.1" y1="412.8852" y2="412.8852"/><ellipse cx="496.3" cy="420.5852" fill="#84BE84" rx="2.1" ry="2.1" style="stroke:#038048;stroke-width:0.6999999999999998;"/><text fill="#000000" font-family="sans-serif" font-size="7.7" lengthAdjust="spacing" textLength="140" x="502.6" y="423.6784">FireStation(name:string, position:Vector2)</text><ellipse cx="496.3" cy="430.2703" fill="#84BE84" rx="2.1" ry="2.1" style="stroke:#038048;stroke-width:0.6999999999999998;"/><text fill="#000000" font-family="sans-serif" font-size="7.7" lengthAdjust="spacing" textLength="97.3" x="502.6" y="433.3636">«override» ToString() : string</text><!--MD5=[81e2c545057382f0838e58852ba64b7a]
class ClosestFireTrucksIterator--><rect codeLine="3" fill="#FEFECE" filter="url(#f1inqxk4d3873d)" height="91.7109" id="ClosestFireTrucksIterator" style="stroke:#A80036;stroke-width:1.0499999999999998;" width="121.8" x="686" y="360.85"/><ellipse cx="697.445" cy="372.05" fill="#ADD1B2" rx="7.7" ry="7.7" style="stroke:#A80036;stroke-width:0.6999999999999998;"/><path d="M698.845,369.6 Q698.9872,369.25 699.1512,369.075 Q699.3153,368.9 699.5012,368.9 Q699.8294,368.9 700.0372,369.0969 Q700.245,369.2937 700.245,369.7531 L700.245,370.8469 Q700.245,371.3062 700.0481,371.5031 Q699.8512,371.7 699.545,371.7 Q699.2716,371.7 699.0966,371.5797 Q698.9216,371.4594 698.845,371.1422 Q698.8122,370.9234 698.6919,370.8031 Q698.4731,370.5734 698.0794,370.4422 Q697.6856,370.3 697.2919,370.3 Q696.7997,370.3 696.3841,370.4969 Q695.9794,370.6937 695.6622,371.1312 Q695.345,371.5687 695.345,372.1703 L695.345,372.8156 Q695.345,373.5375 695.9356,374.0187 Q696.5262,374.5 697.5762,374.5 Q698.1997,374.5 698.6372,374.3578 Q698.8887,374.2812 699.1731,374.0297 Q699.3591,373.8875 699.4575,373.8437 Q699.5559,373.8 699.6762,373.8 Q699.9059,373.8 700.07,373.9859 Q700.245,374.1609 700.245,374.4125 Q700.245,374.6531 700.0044,374.9375 Q699.6544,375.3531 699.0966,375.5828 Q698.3637,375.9 697.4669,375.9 Q696.4169,375.9 695.5747,375.4844 Q694.8966,375.1562 694.4153,374.4453 Q693.945,373.7344 693.945,372.8922 L693.945,372.1266 Q693.945,371.2516 694.3606,370.4859 Q694.7872,369.7203 695.52,369.3156 Q696.2637,368.9 697.095,368.9 Q697.5981,368.9 698.0356,369.075 Q698.4731,369.25 698.845,369.6 Z " fill="#000000"/><text fill="#000000" font-family="sans-serif" font-size="8.4" lengthAdjust="spacing" textLength="97.3" x="707.455" y="375.4871">ClosestFireTrucksIterator</text><line style="stroke:#A80036;stroke-width:1.0499999999999998;" x1="686.7" x2="807.1" y1="383.25" y2="383.25"/><rect fill="none" height="4.2" style="stroke:#C82930;stroke-width:0.6999999999999998;" width="4.2" x="691.6" y="388.85"/><text fill="#000000" font-family="sans-serif" font-size="7.7" lengthAdjust="spacing" textLength="96.6" x="700" y="394.0433">_fireTrucks : List&lt;FireTruck&gt;</text><rect fill="none" height="4.2" style="stroke:#C82930;stroke-width:0.6999999999999998;" width="4.2" x="691.6" y="398.5352"/><text fill="#000000" font-family="sans-serif" font-size="7.7" lengthAdjust="spacing" textLength="86.1" x="700" y="403.7284">_targetLocation : Vector2</text><rect fill="none" height="4.2" style="stroke:#C82930;stroke-width:0.6999999999999998;" width="4.2" x="691.6" y="408.2203"/><text fill="#000000" font-family="sans-serif" font-size="7.7" lengthAdjust="spacing" textLength="103.6" x="700" y="413.4136">_controlStation : List&lt;ISubject&gt;</text><line style="stroke:#A80036;stroke-width:1.0499999999999998;" x1="686.7" x2="807.1" y1="417.9055" y2="417.9055"/><rect fill="#F24D5C" height="4.2" style="stroke:#C82930;stroke-width:0.6999999999999998;" width="4.2" x="691.6" y="423.5055"/><text fill="#000000" font-family="sans-serif" font-size="7.7" lengthAdjust="spacing" textLength="56.7" x="700" y="428.6987">RefreshIterator()</text><ellipse cx="693.7" cy="435.2906" fill="#84BE84" rx="2.1" ry="2.1" style="stroke:#038048;stroke-width:0.6999999999999998;"/><text fill="#000000" font-family="sans-serif" font-size="7.7" lengthAdjust="spacing" textLength="53.9" x="700" y="438.3839">hasNext() : bool</text><ellipse cx="693.7" cy="444.9758" fill="#84BE84" rx="2.1" ry="2.1" style="stroke:#038048;stroke-width:0.6999999999999998;"/><text fill="#000000" font-family="sans-serif" font-size="7.7" lengthAdjust="spacing" textLength="69.3" x="700" y="448.069">getNext() : FireTruck</text><!--MD5=[2c7a3ce9c0939093a319e4d9d5a71ad6]
class IIterator`1--><rect codeLine="2" fill="#FEFECE" filter="url(#f1inqxk4d3873d)" height="52.9703" id="IIterator`1" style="stroke:#A80036;stroke-width:1.0499999999999998;" width="81.9" x="705.95" y="219.45"/><ellipse cx="716.45" cy="230.65" fill="#B4A7E5" rx="7.7" ry="7.7" style="stroke:#A80036;stroke-width:0.6999999999999998;"/><path d="M717.15,228.55 L717.15,232.75 L718.55,232.75 L718.8891,232.75 L719.25,233.1875 L719.25,233.45 L719.25,233.7125 L718.8891,234.15 L718.55,234.15 L714.35,234.15 L714.0109,234.15 L713.65,233.7125 L713.65,233.45 L713.65,233.1875 L714.0109,232.75 L714.35,232.75 L715.75,232.75 L715.75,228.55 L714.35,228.55 L714.0109,228.55 L713.65,228.1125 L713.65,227.85 L713.65,227.5875 L714.0109,227.15 L714.35,227.15 L718.55,227.15 L718.8891,227.15 L719.25,227.5875 L719.25,227.85 L719.25,228.1125 L718.8891,228.55 L718.55,228.55 L717.15,228.55 Z " fill="#000000"/><text fill="#000000" font-family="sans-serif" font-size="8.4" font-style="italic" lengthAdjust="spacing" textLength="37.8" x="726.25" y="234.0871">IIterator`1</text><rect fill="#FFFFFF" height="11.9656" style="stroke:#000000;stroke-width:0.6999999999999998;stroke-dasharray:2.0,2.0;" width="20.3" x="769.65" y="217.35"/><text fill="#000000" font-family="sans-serif" font-size="8.4" font-style="italic" lengthAdjust="spacing" textLength="18.9" x="770.35" y="226.7699">out T</text><line style="stroke:#A80036;stroke-width:1.0499999999999998;" x1="706.65" x2="787.15" y1="241.85" y2="241.85"/><line style="stroke:#A80036;stroke-width:1.0499999999999998;" x1="706.65" x2="787.15" y1="247.45" y2="247.45"/><text fill="#000000" font-family="sans-serif" font-size="7.7" lengthAdjust="spacing" textLength="53.9" x="710.15" y="258.2433">hasNext() : bool</text><text fill="#000000" font-family="sans-serif" font-size="7.7" lengthAdjust="spacing" textLength="42" x="710.15" y="267.9284">getNext() : T</text><!--MD5=[60d6b92408f98aed8df94d5c6e04aa63]
class State--><rect codeLine="3" fill="#FEFECE" filter="url(#f1inqxk4d3873d)" height="101.3961" id="State" style="stroke:#A80036;stroke-width:1.0499999999999998;" width="149.1" x="713.65" y="702.8"/><ellipse cx="775.425" cy="714" fill="#A9DCDF" rx="7.7" ry="7.7" style="stroke:#A80036;stroke-width:0.6999999999999998;"/><path d="M776.65,715.05 L774.3422,715.05 L774.0359,715.75 L774.0359,715.75 L774.3641,715.75 L774.725,716.1875 L774.725,716.45 L774.725,716.7125 L774.3641,717.15 L774.0359,717.15 L772.7125,717.15 L772.2859,717.15 L771.925,716.7125 L771.925,716.45 L771.925,716.1875 L772.2859,715.75 L772.7125,715.75 L774.3312,711.55 L773.7187,711.55 L772.9859,711.55 L772.625,711.1125 L772.625,710.85 L772.625,710.5875 L772.9859,710.15 L773.7187,710.15 L776.2891,710.15 L778.1703,715.75 L778.5641,715.75 L778.5641,715.75 L778.925,716.1875 L778.925,716.45 L778.925,716.7125 L778.5641,717.15 L778.1703,717.15 L776.8469,717.15 L776.4859,717.15 L776.125,716.7125 L776.125,716.45 L776.125,716.1875 L776.4859,715.75 L776.8469,715.75 L776.8469,715.75 L776.65,715.05 Z M776.2672,713.65 L775.425,711.1453 L774.7031,713.65 L776.2672,713.65 Z " fill="#000000"/><text fill="#000000" font-family="sans-serif" font-size="8.4" font-style="italic" lengthAdjust="spacing" textLength="19.6" x="789.775" y="717.4371">State</text><line style="stroke:#A80036;stroke-width:1.0499999999999998;" x1="714.35" x2="862.05" y1="725.2" y2="725.2"/><polygon fill="none" points="721.35,729.4,724.15,732.2,721.35,735,718.55,732.2" style="stroke:#B38D22;stroke-width:0.6999999999999998;"/><text fill="#000000" font-family="sans-serif" font-size="7.7" lengthAdjust="spacing" textLength="67.9" x="727.65" y="735.9933">fireTruck : FireTruck</text><line style="stroke:#A80036;stroke-width:1.0499999999999998;" x1="714.35" x2="862.05" y1="740.4852" y2="740.4852"/><ellipse cx="721.35" cy="748.1852" fill="#84BE84" rx="2.1" ry="2.1" style="stroke:#038048;stroke-width:0.6999999999999998;"/><text fill="#000000" font-family="sans-serif" font-size="7.7" lengthAdjust="spacing" textLength="130.9" x="727.65" y="751.2784">SetContext(newTruck:FireTruck) : void</text><ellipse cx="721.35" cy="757.8703" fill="#84BE84" rx="2.1" ry="2.1" style="stroke:#038048;stroke-width:0.6999999999999998;"/><text fill="#000000" font-family="sans-serif" font-size="7.7" lengthAdjust="spacing" textLength="95.2" x="727.65" y="760.9636">«virtual» HandleFree() : void</text><ellipse cx="721.35" cy="767.5555" fill="#84BE84" rx="2.1" ry="2.1" style="stroke:#038048;stroke-width:0.6999999999999998;"/><text fill="#000000" font-family="sans-serif" font-size="7.7" lengthAdjust="spacing" textLength="109.2" x="727.65" y="770.6487">«virtual» HandleTravelTo() : void</text><ellipse cx="721.35" cy="777.2406" fill="#84BE84" rx="2.1" ry="2.1" style="stroke:#038048;stroke-width:0.6999999999999998;"/><text fill="#000000" font-family="sans-serif" font-size="7.7" lengthAdjust="spacing" textLength="97.3" x="727.65" y="780.3339">«virtual» HandleBusy() : void</text><ellipse cx="721.35" cy="786.9258" fill="#84BE84" rx="2.1" ry="2.1" style="stroke:#038048;stroke-width:0.6999999999999998;"/><text fill="#000000" font-family="sans-serif" font-size="7.7" lengthAdjust="spacing" textLength="123.2" x="727.65" y="790.019">«virtual» HandleTravelReturn() : void</text><ellipse cx="721.35" cy="796.6109" fill="#84BE84" rx="2.1" ry="2.1" style="stroke:#038048;stroke-width:0.6999999999999998;"/><text fill="#000000" font-family="sans-serif" font-size="7.7" lengthAdjust="spacing" textLength="97.3" x="727.65" y="799.7042">«virtual» HandleWork() : void</text><!--MD5=[49c293e7b586f80bbf4013178c064b81]
class IdleState--><rect codeLine="12" fill="#FEFECE" filter="url(#f1inqxk4d3873d)" height="43.2852" id="IdleState" style="stroke:#A80036;stroke-width:1.0499999999999998;" width="123.2" x="406" y="900.2"/><ellipse cx="447.825" cy="911.4" fill="#ADD1B2" rx="7.7" ry="7.7" style="stroke:#A80036;stroke-width:0.6999999999999998;"/><path d="M449.225,908.95 Q449.3672,908.6 449.5312,908.425 Q449.6953,908.25 449.8812,908.25 Q450.2094,908.25 450.4172,908.4469 Q450.625,908.6437 450.625,909.1031 L450.625,910.1969 Q450.625,910.6562 450.4281,910.8531 Q450.2312,911.05 449.925,911.05 Q449.6516,911.05 449.4766,910.9297 Q449.3016,910.8094 449.225,910.4922 Q449.1922,910.2734 449.0719,910.1531 Q448.8531,909.9234 448.4594,909.7922 Q448.0656,909.65 447.6719,909.65 Q447.1797,909.65 446.7641,909.8469 Q446.3594,910.0437 446.0422,910.4812 Q445.725,910.9187 445.725,911.5203 L445.725,912.1656 Q445.725,912.8875 446.3156,913.3687 Q446.9062,913.85 447.9562,913.85 Q448.5797,913.85 449.0172,913.7078 Q449.2687,913.6312 449.5531,913.3797 Q449.7391,913.2375 449.8375,913.1937 Q449.9359,913.15 450.0562,913.15 Q450.2859,913.15 450.45,913.3359 Q450.625,913.5109 450.625,913.7625 Q450.625,914.0031 450.3844,914.2875 Q450.0344,914.7031 449.4766,914.9328 Q448.7437,915.25 447.8469,915.25 Q446.7969,915.25 445.9547,914.8344 Q445.2766,914.5062 444.7953,913.7953 Q444.325,913.0844 444.325,912.2422 L444.325,911.4766 Q444.325,910.6016 444.7406,909.8359 Q445.1672,909.0703 445.9,908.6656 Q446.6437,908.25 447.475,908.25 Q447.9781,908.25 448.4156,908.425 Q448.8531,908.6 449.225,908.95 Z " fill="#000000"/><text fill="#000000" font-family="sans-serif" font-size="8.4" lengthAdjust="spacing" textLength="33.6" x="462.175" y="914.8371">IdleState</text><line style="stroke:#A80036;stroke-width:1.0499999999999998;" x1="406.7" x2="528.5" y1="922.6" y2="922.6"/><line style="stroke:#A80036;stroke-width:1.0499999999999998;" x1="406.7" x2="528.5" y1="928.2" y2="928.2"/><ellipse cx="413.7" cy="935.9" fill="#84BE84" rx="2.1" ry="2.1" style="stroke:#038048;stroke-width:0.6999999999999998;"/><text fill="#000000" font-family="sans-serif" font-size="7.7" lengthAdjust="spacing" textLength="105" x="420" y="938.9933">«override» HandleBusy() : void</text><!--MD5=[baed7757e7ac533b1c299b01477eb642]
class BusyState--><rect codeLine="15" fill="#FEFECE" filter="url(#f1inqxk4d3873d)" height="43.2852" id="BusyState" style="stroke:#A80036;stroke-width:1.0499999999999998;" width="135.1" x="554.05" y="900.2"/><ellipse cx="599.375" cy="911.4" fill="#ADD1B2" rx="7.7" ry="7.7" style="stroke:#A80036;stroke-width:0.6999999999999998;"/><path d="M600.775,908.95 Q600.9172,908.6 601.0812,908.425 Q601.2453,908.25 601.4312,908.25 Q601.7594,908.25 601.9672,908.4469 Q602.175,908.6437 602.175,909.1031 L602.175,910.1969 Q602.175,910.6562 601.9781,910.8531 Q601.7812,911.05 601.475,911.05 Q601.2016,911.05 601.0266,910.9297 Q600.8516,910.8094 600.775,910.4922 Q600.7422,910.2734 600.6219,910.1531 Q600.4031,909.9234 600.0094,909.7922 Q599.6156,909.65 599.2219,909.65 Q598.7297,909.65 598.3141,909.8469 Q597.9094,910.0437 597.5922,910.4812 Q597.275,910.9187 597.275,911.5203 L597.275,912.1656 Q597.275,912.8875 597.8656,913.3687 Q598.4562,913.85 599.5062,913.85 Q600.1297,913.85 600.5672,913.7078 Q600.8187,913.6312 601.1031,913.3797 Q601.2891,913.2375 601.3875,913.1937 Q601.4859,913.15 601.6062,913.15 Q601.8359,913.15 602,913.3359 Q602.175,913.5109 602.175,913.7625 Q602.175,914.0031 601.9344,914.2875 Q601.5844,914.7031 601.0266,914.9328 Q600.2937,915.25 599.3969,915.25 Q598.3469,915.25 597.5047,914.8344 Q596.8266,914.5062 596.3453,913.7953 Q595.875,913.0844 595.875,912.2422 L595.875,911.4766 Q595.875,910.6016 596.2906,909.8359 Q596.7172,909.0703 597.45,908.6656 Q598.1937,908.25 599.025,908.25 Q599.5281,908.25 599.9656,908.425 Q600.4031,908.6 600.775,908.95 Z " fill="#000000"/><text fill="#000000" font-family="sans-serif" font-size="8.4" lengthAdjust="spacing" textLength="38.5" x="613.725" y="914.8371">BusyState</text><line style="stroke:#A80036;stroke-width:1.0499999999999998;" x1="554.75" x2="688.45" y1="922.6" y2="922.6"/><line style="stroke:#A80036;stroke-width:1.0499999999999998;" x1="554.75" x2="688.45" y1="928.2" y2="928.2"/><ellipse cx="561.75" cy="935.9" fill="#84BE84" rx="2.1" ry="2.1" style="stroke:#038048;stroke-width:0.6999999999999998;"/><text fill="#000000" font-family="sans-serif" font-size="7.7" lengthAdjust="spacing" textLength="116.9" x="568.05" y="938.9933">«override» HandleTravelTo() : void</text><!--MD5=[119f702f9554fb0b67e2e22dd5eed024]
class WorkingState--><rect codeLine="18" fill="#FEFECE" filter="url(#f1inqxk4d3873d)" height="43.2852" id="WorkingState" style="stroke:#A80036;stroke-width:1.0499999999999998;" width="149.1" x="713.65" y="900.2"/><ellipse cx="759.675" cy="911.4" fill="#ADD1B2" rx="7.7" ry="7.7" style="stroke:#A80036;stroke-width:0.6999999999999998;"/><path d="M761.075,908.95 Q761.2172,908.6 761.3812,908.425 Q761.5453,908.25 761.7312,908.25 Q762.0594,908.25 762.2672,908.4469 Q762.475,908.6437 762.475,909.1031 L762.475,910.1969 Q762.475,910.6562 762.2781,910.8531 Q762.0812,911.05 761.775,911.05 Q761.5016,911.05 761.3266,910.9297 Q761.1516,910.8094 761.075,910.4922 Q761.0422,910.2734 760.9219,910.1531 Q760.7031,909.9234 760.3094,909.7922 Q759.9156,909.65 759.5219,909.65 Q759.0297,909.65 758.6141,909.8469 Q758.2094,910.0437 757.8922,910.4812 Q757.575,910.9187 757.575,911.5203 L757.575,912.1656 Q757.575,912.8875 758.1656,913.3687 Q758.7562,913.85 759.8062,913.85 Q760.4297,913.85 760.8672,913.7078 Q761.1187,913.6312 761.4031,913.3797 Q761.5891,913.2375 761.6875,913.1937 Q761.7859,913.15 761.9062,913.15 Q762.1359,913.15 762.3,913.3359 Q762.475,913.5109 762.475,913.7625 Q762.475,914.0031 762.2344,914.2875 Q761.8844,914.7031 761.3266,914.9328 Q760.5937,915.25 759.6969,915.25 Q758.6469,915.25 757.8047,914.8344 Q757.1266,914.5062 756.6453,913.7953 Q756.175,913.0844 756.175,912.2422 L756.175,911.4766 Q756.175,910.6016 756.5906,909.8359 Q757.0172,909.0703 757.75,908.6656 Q758.4937,908.25 759.325,908.25 Q759.8281,908.25 760.2656,908.425 Q760.7031,908.6 761.075,908.95 Z " fill="#000000"/><text fill="#000000" font-family="sans-serif" font-size="8.4" lengthAdjust="spacing" textLength="51.1" x="774.025" y="914.8371">WorkingState</text><line style="stroke:#A80036;stroke-width:1.0499999999999998;" x1="714.35" x2="862.05" y1="922.6" y2="922.6"/><line style="stroke:#A80036;stroke-width:1.0499999999999998;" x1="714.35" x2="862.05" y1="928.2" y2="928.2"/><ellipse cx="721.35" cy="935.9" fill="#84BE84" rx="2.1" ry="2.1" style="stroke:#038048;stroke-width:0.6999999999999998;"/><text fill="#000000" font-family="sans-serif" font-size="7.7" lengthAdjust="spacing" textLength="130.9" x="727.65" y="938.9933">«override» HandleTravelReturn() : void</text><!--MD5=[11946eeffcb508ae86b46d54e5e26606]
class TravellingFromState--><rect codeLine="21" fill="#FEFECE" filter="url(#f1inqxk4d3873d)" height="43.2852" id="TravellingFromState" style="stroke:#A80036;stroke-width:1.0499999999999998;" width="121.1" x="887.25" y="900.2"/><ellipse cx="907.515" cy="911.4" fill="#ADD1B2" rx="7.7" ry="7.7" style="stroke:#A80036;stroke-width:0.6999999999999998;"/><path d="M908.915,908.95 Q909.0572,908.6 909.2212,908.425 Q909.3853,908.25 909.5712,908.25 Q909.8994,908.25 910.1072,908.4469 Q910.315,908.6437 910.315,909.1031 L910.315,910.1969 Q910.315,910.6562 910.1181,910.8531 Q909.9212,911.05 909.615,911.05 Q909.3416,911.05 909.1666,910.9297 Q908.9916,910.8094 908.915,910.4922 Q908.8822,910.2734 908.7619,910.1531 Q908.5431,909.9234 908.1494,909.7922 Q907.7556,909.65 907.3619,909.65 Q906.8697,909.65 906.4541,909.8469 Q906.0494,910.0437 905.7322,910.4812 Q905.415,910.9187 905.415,911.5203 L905.415,912.1656 Q905.415,912.8875 906.0056,913.3687 Q906.5962,913.85 907.6462,913.85 Q908.2697,913.85 908.7072,913.7078 Q908.9587,913.6312 909.2431,913.3797 Q909.4291,913.2375 909.5275,913.1937 Q909.6259,913.15 909.7462,913.15 Q909.9759,913.15 910.14,913.3359 Q910.315,913.5109 910.315,913.7625 Q910.315,914.0031 910.0744,914.2875 Q909.7244,914.7031 909.1666,914.9328 Q908.4337,915.25 907.5369,915.25 Q906.4869,915.25 905.6447,914.8344 Q904.9666,914.5062 904.4853,913.7953 Q904.015,913.0844 904.015,912.2422 L904.015,911.4766 Q904.015,910.6016 904.4306,909.8359 Q904.8572,909.0703 905.59,908.6656 Q906.3337,908.25 907.165,908.25 Q907.6681,908.25 908.1056,908.425 Q908.5431,908.6 908.915,908.95 Z " fill="#000000"/><text fill="#000000" font-family="sans-serif" font-size="8.4" lengthAdjust="spacing" textLength="77" x="919.485" y="914.8371">TravellingFromState</text><line style="stroke:#A80036;stroke-width:1.0499999999999998;" x1="887.95" x2="1007.65" y1="922.6" y2="922.6"/><line style="stroke:#A80036;stroke-width:1.0499999999999998;" x1="887.95" x2="1007.65" y1="928.2" y2="928.2"/><ellipse cx="894.95" cy="935.9" fill="#84BE84" rx="2.1" ry="2.1" style="stroke:#038048;stroke-width:0.6999999999999998;"/><text fill="#000000" font-family="sans-serif" font-size="7.7" lengthAdjust="spacing" textLength="102.9" x="901.25" y="938.9933">«override» HandleFree() : void</text><!--MD5=[66927e23199f04ebbf5d8f2d7e82a9c5]
class TravellingToState--><rect codeLine="24" fill="#FEFECE" filter="url(#f1inqxk4d3873d)" height="52.9703" id="TravellingToState" style="stroke:#A80036;stroke-width:1.0499999999999998;" width="149.1" x="1032.85" y="895.3"/><ellipse cx="1071.175" cy="906.5" fill="#ADD1B2" rx="7.7" ry="7.7" style="stroke:#A80036;stroke-width:0.6999999999999998;"/><path d="M1072.575,904.05 Q1072.7172,903.7 1072.8812,903.525 Q1073.0453,903.35 1073.2312,903.35 Q1073.5594,903.35 1073.7672,903.5469 Q1073.975,903.7437 1073.975,904.2031 L1073.975,905.2969 Q1073.975,905.7562 1073.7781,905.9531 Q1073.5812,906.15 1073.275,906.15 Q1073.0016,906.15 1072.8266,906.0297 Q1072.6516,905.9094 1072.575,905.5922 Q1072.5422,905.3734 1072.4219,905.2531 Q1072.2031,905.0234 1071.8094,904.8922 Q1071.4156,904.75 1071.0219,904.75 Q1070.5297,904.75 1070.1141,904.9469 Q1069.7094,905.1437 1069.3922,905.5812 Q1069.075,906.0187 1069.075,906.6203 L1069.075,907.2656 Q1069.075,907.9875 1069.6656,908.4687 Q1070.2562,908.95 1071.3062,908.95 Q1071.9297,908.95 1072.3672,908.8078 Q1072.6187,908.7312 1072.9031,908.4797 Q1073.0891,908.3375 1073.1875,908.2937 Q1073.2859,908.25 1073.4062,908.25 Q1073.6359,908.25 1073.8,908.4359 Q1073.975,908.6109 1073.975,908.8625 Q1073.975,909.1031 1073.7344,909.3875 Q1073.3844,909.8031 1072.8266,910.0328 Q1072.0937,910.35 1071.1969,910.35 Q1070.1469,910.35 1069.3047,909.9344 Q1068.6266,909.6062 1068.1453,908.8953 Q1067.675,908.1844 1067.675,907.3422 L1067.675,906.5766 Q1067.675,905.7016 1068.0906,904.9359 Q1068.5172,904.1703 1069.25,903.7656 Q1069.9937,903.35 1070.825,903.35 Q1071.3281,903.35 1071.7656,903.525 Q1072.2031,903.7 1072.575,904.05 Z " fill="#000000"/><text fill="#000000" font-family="sans-serif" font-size="8.4" lengthAdjust="spacing" textLength="66.5" x="1085.525" y="909.9371">TravellingToState</text><line style="stroke:#A80036;stroke-width:1.0499999999999998;" x1="1033.55" x2="1181.25" y1="917.7" y2="917.7"/><line style="stroke:#A80036;stroke-width:1.0499999999999998;" x1="1033.55" x2="1181.25" y1="923.3" y2="923.3"/><ellipse cx="1040.55" cy="931" fill="#84BE84" rx="2.1" ry="2.1" style="stroke:#038048;stroke-width:0.6999999999999998;"/><text fill="#000000" font-family="sans-serif" font-size="7.7" lengthAdjust="spacing" textLength="105" x="1046.85" y="934.0933">«override» HandleWork() : void</text><ellipse cx="1040.55" cy="940.6852" fill="#84BE84" rx="2.1" ry="2.1" style="stroke:#038048;stroke-width:0.6999999999999998;"/><text fill="#000000" font-family="sans-serif" font-size="7.7" lengthAdjust="spacing" textLength="130.9" x="1046.85" y="943.7784">«override» HandleTravelReturn() : void</text><!--MD5=[299df6412cb7f1c0a479276b8c1d8efa]
class IExecutionStrategy--><rect codeLine="3" fill="#FEFECE" filter="url(#f1inqxk4d3873d)" height="43.2852" id="IExecutionStrategy" style="stroke:#A80036;stroke-width:1.0499999999999998;" width="94.5" x="882.35" y="224.35"/><ellipse cx="892.85" cy="235.55" fill="#B4A7E5" rx="7.7" ry="7.7" style="stroke:#A80036;stroke-width:0.6999999999999998;"/><path d="M893.55,233.45 L893.55,237.65 L894.95,237.65 L895.2891,237.65 L895.65,238.0875 L895.65,238.35 L895.65,238.6125 L895.2891,239.05 L894.95,239.05 L890.75,239.05 L890.4109,239.05 L890.05,238.6125 L890.05,238.35 L890.05,238.0875 L890.4109,237.65 L890.75,237.65 L892.15,237.65 L892.15,233.45 L890.75,233.45 L890.4109,233.45 L890.05,233.0125 L890.05,232.75 L890.05,232.4875 L890.4109,232.05 L890.75,232.05 L894.95,232.05 L895.2891,232.05 L895.65,232.4875 L895.65,232.75 L895.65,233.0125 L895.2891,233.45 L894.95,233.45 L893.55,233.45 Z " fill="#000000"/><text fill="#000000" font-family="sans-serif" font-size="8.4" font-style="italic" lengthAdjust="spacing" textLength="72.1" x="902.65" y="238.9871">IExecutionStrategy</text><line style="stroke:#A80036;stroke-width:1.0499999999999998;" x1="883.05" x2="976.15" y1="246.75" y2="246.75"/><line style="stroke:#A80036;stroke-width:1.0499999999999998;" x1="883.05" x2="976.15" y1="252.35" y2="252.35"/><text fill="#000000" font-family="sans-serif" font-size="7.7" lengthAdjust="spacing" textLength="53.9" x="886.55" y="263.1433">execute() : float</text><!--MD5=[4fb047ded990add450a669c5a257225d]
class Emergency--><rect codeLine="6" fill="#FEFECE" filter="url(#f1inqxk4d3873d)" height="43.2852" id="Emergency" style="stroke:#A80036;stroke-width:1.0499999999999998;" width="72.1" x="882.35" y="385"/><ellipse cx="895.685" cy="396.2" fill="#ADD1B2" rx="7.7" ry="7.7" style="stroke:#A80036;stroke-width:0.6999999999999998;"/><path d="M897.085,393.75 Q897.2272,393.4 897.3912,393.225 Q897.5553,393.05 897.7412,393.05 Q898.0694,393.05 898.2772,393.2469 Q898.485,393.4437 898.485,393.9031 L898.485,394.9969 Q898.485,395.4562 898.2881,395.6531 Q898.0912,395.85 897.785,395.85 Q897.5116,395.85 897.3366,395.7297 Q897.1616,395.6094 897.085,395.2922 Q897.0522,395.0734 896.9319,394.9531 Q896.7131,394.7234 896.3194,394.5922 Q895.9256,394.45 895.5319,394.45 Q895.0397,394.45 894.6241,394.6469 Q894.2194,394.8437 893.9022,395.2812 Q893.585,395.7187 893.585,396.3203 L893.585,396.9656 Q893.585,397.6875 894.1756,398.1687 Q894.7662,398.65 895.8162,398.65 Q896.4397,398.65 896.8772,398.5078 Q897.1287,398.4312 897.4131,398.1797 Q897.5991,398.0375 897.6975,397.9937 Q897.7959,397.95 897.9162,397.95 Q898.1459,397.95 898.31,398.1359 Q898.485,398.3109 898.485,398.5625 Q898.485,398.8031 898.2444,399.0875 Q897.8944,399.5031 897.3366,399.7328 Q896.6037,400.05 895.7069,400.05 Q894.6569,400.05 893.8147,399.6344 Q893.1366,399.3062 892.6553,398.5953 Q892.185,397.8844 892.185,397.0422 L892.185,396.2766 Q892.185,395.4016 892.6006,394.6359 Q893.0272,393.8703 893.76,393.4656 Q894.5037,393.05 895.335,393.05 Q895.8381,393.05 896.2756,393.225 Q896.7131,393.4 897.085,393.75 Z " fill="#000000"/><text fill="#000000" font-family="sans-serif" font-size="8.4" lengthAdjust="spacing" textLength="43.4" x="906.115" y="399.6371">Emergency</text><line style="stroke:#A80036;stroke-width:1.0499999999999998;" x1="883.05" x2="953.75" y1="407.4" y2="407.4"/><line style="stroke:#A80036;stroke-width:1.0499999999999998;" x1="883.05" x2="953.75" y1="413" y2="413"/><ellipse cx="890.05" cy="420.7" fill="#84BE84" rx="2.1" ry="2.1" style="stroke:#038048;stroke-width:0.6999999999999998;"/><text fill="#000000" font-family="sans-serif" font-size="7.7" lengthAdjust="spacing" textLength="53.9" x="896.35" y="423.7933">execute() : float</text><!--MD5=[9931e02840d41b042444b5d87a162ae8]
class Fake--><rect codeLine="9" fill="#FEFECE" filter="url(#f1inqxk4d3873d)" height="43.2852" id="Fake" style="stroke:#A80036;stroke-width:1.0499999999999998;" width="72.1" x="978.95" y="385"/><ellipse cx="1003.31" cy="396.2" fill="#ADD1B2" rx="7.7" ry="7.7" style="stroke:#A80036;stroke-width:0.6999999999999998;"/><path d="M1004.71,393.75 Q1004.8522,393.4 1005.0162,393.225 Q1005.1803,393.05 1005.3662,393.05 Q1005.6944,393.05 1005.9022,393.2469 Q1006.11,393.4437 1006.11,393.9031 L1006.11,394.9969 Q1006.11,395.4562 1005.9131,395.6531 Q1005.7162,395.85 1005.41,395.85 Q1005.1366,395.85 1004.9616,395.7297 Q1004.7866,395.6094 1004.71,395.2922 Q1004.6772,395.0734 1004.5569,394.9531 Q1004.3381,394.7234 1003.9444,394.5922 Q1003.5506,394.45 1003.1569,394.45 Q1002.6647,394.45 1002.2491,394.6469 Q1001.8444,394.8437 1001.5272,395.2812 Q1001.21,395.7187 1001.21,396.3203 L1001.21,396.9656 Q1001.21,397.6875 1001.8006,398.1687 Q1002.3912,398.65 1003.4412,398.65 Q1004.0647,398.65 1004.5022,398.5078 Q1004.7537,398.4312 1005.0381,398.1797 Q1005.2241,398.0375 1005.3225,397.9937 Q1005.4209,397.95 1005.5412,397.95 Q1005.7709,397.95 1005.935,398.1359 Q1006.11,398.3109 1006.11,398.5625 Q1006.11,398.8031 1005.8694,399.0875 Q1005.5194,399.5031 1004.9616,399.7328 Q1004.2287,400.05 1003.3319,400.05 Q1002.2819,400.05 1001.4397,399.6344 Q1000.7616,399.3062 1000.2803,398.5953 Q999.81,397.8844 999.81,397.0422 L999.81,396.2766 Q999.81,395.4016 1000.2256,394.6359 Q1000.6522,393.8703 1001.385,393.4656 Q1002.1287,393.05 1002.96,393.05 Q1003.4631,393.05 1003.9006,393.225 Q1004.3381,393.4 1004.71,393.75 Z " fill="#000000"/><text fill="#000000" font-family="sans-serif" font-size="8.4" lengthAdjust="spacing" textLength="18.9" x="1016.19" y="399.6371">Fake</text><line style="stroke:#A80036;stroke-width:1.0499999999999998;" x1="979.65" x2="1050.35" y1="407.4" y2="407.4"/><line style="stroke:#A80036;stroke-width:1.0499999999999998;" x1="979.65" x2="1050.35" y1="413" y2="413"/><ellipse cx="986.65" cy="420.7" fill="#84BE84" rx="2.1" ry="2.1" style="stroke:#038048;stroke-width:0.6999999999999998;"/><text fill="#000000" font-family="sans-serif" font-size="7.7" lengthAdjust="spacing" textLength="53.9" x="992.95" y="423.7933">execute() : float</text><!--MD5=[bbff3ceeffb6f45eac3c69e23d3da763]
class IEventStrategy--><rect codeLine="3" fill="#FEFECE" filter="url(#f1inqxk4d3873d)" height="52.9703" id="IEventStrategy" style="stroke:#A80036;stroke-width:1.0499999999999998;" width="253.4" x="1090.6" y="219.45"/><ellipse cx="1186.325" cy="230.65" fill="#A9DCDF" rx="7.7" ry="7.7" style="stroke:#A80036;stroke-width:0.6999999999999998;"/><path d="M1187.55,231.7 L1185.2422,231.7 L1184.9359,232.4 L1184.9359,232.4 L1185.2641,232.4 L1185.625,232.8375 L1185.625,233.1 L1185.625,233.3625 L1185.2641,233.8 L1184.9359,233.8 L1183.6125,233.8 L1183.1859,233.8 L1182.825,233.3625 L1182.825,233.1 L1182.825,232.8375 L1183.1859,232.4 L1183.6125,232.4 L1185.2312,228.2 L1184.6187,228.2 L1183.8859,228.2 L1183.525,227.7625 L1183.525,227.5 L1183.525,227.2375 L1183.8859,226.8 L1184.6187,226.8 L1187.1891,226.8 L1189.0703,232.4 L1189.4641,232.4 L1189.4641,232.4 L1189.825,232.8375 L1189.825,233.1 L1189.825,233.3625 L1189.4641,233.8 L1189.0703,233.8 L1187.7469,233.8 L1187.3859,233.8 L1187.025,233.3625 L1187.025,233.1 L1187.025,232.8375 L1187.3859,232.4 L1187.7469,232.4 L1187.7469,232.4 L1187.55,231.7 Z M1187.1672,230.3 L1186.325,227.7953 L1185.6031,230.3 L1187.1672,230.3 Z " fill="#000000"/><text fill="#000000" font-family="sans-serif" font-size="8.4" font-style="italic" lengthAdjust="spacing" textLength="56" x="1200.675" y="234.0871">IEventStrategy</text><line style="stroke:#A80036;stroke-width:1.0499999999999998;" x1="1091.3" x2="1343.3" y1="241.85" y2="241.85"/><line style="stroke:#A80036;stroke-width:1.0499999999999998;" x1="1091.3" x2="1343.3" y1="247.45" y2="247.45"/><ellipse cx="1098.3" cy="255.15" fill="#84BE84" rx="2.1" ry="2.1" style="stroke:#038048;stroke-width:0.6999999999999998;"/><text fill="#000000" font-family="sans-serif" font-size="7.7" font-style="italic" lengthAdjust="spacing" textLength="202.3" x="1104.6" y="258.2433">Execute(fireTrucks:IIterator&lt;FireTruck&gt;) : List&lt;FireTruck&gt;</text><polygon fill="#FFFF44" points="1098.3,261.3352,1101.1,264.1352,1098.3,266.9352,1095.5,264.1352" style="stroke:#B38D22;stroke-width:0.6999999999999998;"/><text fill="#000000" font-family="sans-serif" font-size="7.7" lengthAdjust="spacing" textLength="235.2" x="1104.6" y="267.9284">GetClosest(fireTrucks:IIterator&lt;FireTruck&gt;, count:int) : List&lt;FireTruck&gt;</text><!--MD5=[415fd35c88f42b3db65e8c7c08b20f79]
class StrategyMz--><rect codeLine="7" fill="#FEFECE" filter="url(#f1inqxk4d3873d)" height="43.2852" id="StrategyMz" style="stroke:#A80036;stroke-width:1.0499999999999998;" width="147.7" x="1090.95" y="385"/><ellipse cx="1141.525" cy="396.2" fill="#ADD1B2" rx="7.7" ry="7.7" style="stroke:#A80036;stroke-width:0.6999999999999998;"/><path d="M1142.925,393.75 Q1143.0672,393.4 1143.2312,393.225 Q1143.3953,393.05 1143.5812,393.05 Q1143.9094,393.05 1144.1172,393.2469 Q1144.325,393.4437 1144.325,393.9031 L1144.325,394.9969 Q1144.325,395.4562 1144.1281,395.6531 Q1143.9312,395.85 1143.625,395.85 Q1143.3516,395.85 1143.1766,395.7297 Q1143.0016,395.6094 1142.925,395.2922 Q1142.8922,395.0734 1142.7719,394.9531 Q1142.5531,394.7234 1142.1594,394.5922 Q1141.7656,394.45 1141.3719,394.45 Q1140.8797,394.45 1140.4641,394.6469 Q1140.0594,394.8437 1139.7422,395.2812 Q1139.425,395.7187 1139.425,396.3203 L1139.425,396.9656 Q1139.425,397.6875 1140.0156,398.1687 Q1140.6062,398.65 1141.6562,398.65 Q1142.2797,398.65 1142.7172,398.5078 Q1142.9687,398.4312 1143.2531,398.1797 Q1143.4391,398.0375 1143.5375,397.9937 Q1143.6359,397.95 1143.7562,397.95 Q1143.9859,397.95 1144.15,398.1359 Q1144.325,398.3109 1144.325,398.5625 Q1144.325,398.8031 1144.0844,399.0875 Q1143.7344,399.5031 1143.1766,399.7328 Q1142.4437,400.05 1141.5469,400.05 Q1140.4969,400.05 1139.6547,399.6344 Q1138.9766,399.3062 1138.4953,398.5953 Q1138.025,397.8844 1138.025,397.0422 L1138.025,396.2766 Q1138.025,395.4016 1138.4406,394.6359 Q1138.8672,393.8703 1139.6,393.4656 Q1140.3437,393.05 1141.175,393.05 Q1141.6781,393.05 1142.1156,393.225 Q1142.5531,393.4 1142.925,393.75 Z " fill="#000000"/><text fill="#000000" font-family="sans-serif" font-size="8.4" lengthAdjust="spacing" textLength="40.6" x="1155.875" y="399.6371">StrategyMz</text><line style="stroke:#A80036;stroke-width:1.0499999999999998;" x1="1091.65" x2="1237.95" y1="407.4" y2="407.4"/><line style="stroke:#A80036;stroke-width:1.0499999999999998;" x1="1091.65" x2="1237.95" y1="413" y2="413"/><ellipse cx="1098.65" cy="420.7" fill="#84BE84" rx="2.1" ry="2.1" style="stroke:#038048;stroke-width:0.6999999999999998;"/><text fill="#000000" font-family="sans-serif" font-size="7.7" lengthAdjust="spacing" textLength="129.5" x="1104.95" y="423.7933">«override» Execute() : List&lt;FireTruck&gt;</text><!--MD5=[b82415e79366502edec35914ad6d6cb6]
class StrategyPz--><rect codeLine="10" fill="#FEFECE" filter="url(#f1inqxk4d3873d)" height="43.2852" id="StrategyPz" style="stroke:#A80036;stroke-width:1.0499999999999998;" width="147.7" x="1263.15" y="385"/><ellipse cx="1314.075" cy="396.2" fill="#ADD1B2" rx="7.7" ry="7.7" style="stroke:#A80036;stroke-width:0.6999999999999998;"/><path d="M1315.475,393.75 Q1315.6172,393.4 1315.7812,393.225 Q1315.9453,393.05 1316.1312,393.05 Q1316.4594,393.05 1316.6672,393.2469 Q1316.875,393.4437 1316.875,393.9031 L1316.875,394.9969 Q1316.875,395.4562 1316.6781,395.6531 Q1316.4812,395.85 1316.175,395.85 Q1315.9016,395.85 1315.7266,395.7297 Q1315.5516,395.6094 1315.475,395.2922 Q1315.4422,395.0734 1315.3219,394.9531 Q1315.1031,394.7234 1314.7094,394.5922 Q1314.3156,394.45 1313.9219,394.45 Q1313.4297,394.45 1313.0141,394.6469 Q1312.6094,394.8437 1312.2922,395.2812 Q1311.975,395.7187 1311.975,396.3203 L1311.975,396.9656 Q1311.975,397.6875 1312.5656,398.1687 Q1313.1562,398.65 1314.2062,398.65 Q1314.8297,398.65 1315.2672,398.5078 Q1315.5187,398.4312 1315.8031,398.1797 Q1315.9891,398.0375 1316.0875,397.9937 Q1316.1859,397.95 1316.3062,397.95 Q1316.5359,397.95 1316.7,398.1359 Q1316.875,398.3109 1316.875,398.5625 Q1316.875,398.8031 1316.6344,399.0875 Q1316.2844,399.5031 1315.7266,399.7328 Q1314.9937,400.05 1314.0969,400.05 Q1313.0469,400.05 1312.2047,399.6344 Q1311.5266,399.3062 1311.0453,398.5953 Q1310.575,397.8844 1310.575,397.0422 L1310.575,396.2766 Q1310.575,395.4016 1310.9906,394.6359 Q1311.4172,393.8703 1312.15,393.4656 Q1312.8937,393.05 1313.725,393.05 Q1314.2281,393.05 1314.6656,393.225 Q1315.1031,393.4 1315.475,393.75 Z " fill="#000000"/><text fill="#000000" font-family="sans-serif" font-size="8.4" lengthAdjust="spacing" textLength="39.9" x="1328.425" y="399.6371">StrategyPz</text><line style="stroke:#A80036;stroke-width:1.0499999999999998;" x1="1263.85" x2="1410.15" y1="407.4" y2="407.4"/><line style="stroke:#A80036;stroke-width:1.0499999999999998;" x1="1263.85" x2="1410.15" y1="413" y2="413"/><ellipse cx="1270.85" cy="420.7" fill="#84BE84" rx="2.1" ry="2.1" style="stroke:#038048;stroke-width:0.6999999999999998;"/><text fill="#000000" font-family="sans-serif" font-size="7.7" lengthAdjust="spacing" textLength="129.5" x="1277.15" y="423.7933">«override» Execute() : List&lt;FireTruck&gt;</text><!--MD5=[e7d6bffc1281e01b39a9257f28a19622]
class CSVParser--><rect codeLine="1" fill="#FEFECE" filter="url(#f1inqxk4d3873d)" height="43.2852" id="CSVParser" style="stroke:#A80036;stroke-width:1.0499999999999998;" width="162.4" x="14.7" y="224.35"/><ellipse cx="71.575" cy="235.55" fill="#ADD1B2" rx="7.7" ry="7.7" style="stroke:#A80036;stroke-width:0.6999999999999998;"/><path d="M72.975,233.1 Q73.1172,232.75 73.2812,232.575 Q73.4453,232.4 73.6312,232.4 Q73.9594,232.4 74.1672,232.5969 Q74.375,232.7937 74.375,233.2531 L74.375,234.3469 Q74.375,234.8062 74.1781,235.0031 Q73.9812,235.2 73.675,235.2 Q73.4016,235.2 73.2266,235.0797 Q73.0516,234.9594 72.975,234.6422 Q72.9422,234.4234 72.8219,234.3031 Q72.6031,234.0734 72.2094,233.9422 Q71.8156,233.8 71.4219,233.8 Q70.9297,233.8 70.5141,233.9969 Q70.1094,234.1937 69.7922,234.6312 Q69.475,235.0687 69.475,235.6703 L69.475,236.3156 Q69.475,237.0375 70.0656,237.5187 Q70.6562,238 71.7062,238 Q72.3297,238 72.7672,237.8578 Q73.0187,237.7812 73.3031,237.5297 Q73.4891,237.3875 73.5875,237.3437 Q73.6859,237.3 73.8062,237.3 Q74.0359,237.3 74.2,237.4859 Q74.375,237.6609 74.375,237.9125 Q74.375,238.1531 74.1344,238.4375 Q73.7844,238.8531 73.2266,239.0828 Q72.4937,239.4 71.5969,239.4 Q70.5469,239.4 69.7047,238.9844 Q69.0266,238.6562 68.5453,237.9453 Q68.075,237.2344 68.075,236.3922 L68.075,235.6266 Q68.075,234.7516 68.4906,233.9859 Q68.9172,233.2203 69.65,232.8156 Q70.3937,232.4 71.225,232.4 Q71.7281,232.4 72.1656,232.575 Q72.6031,232.75 72.975,233.1 Z " fill="#000000"/><text fill="#000000" font-family="sans-serif" font-size="8.4" lengthAdjust="spacing" textLength="42.7" x="85.925" y="238.9871">CSVParser</text><line style="stroke:#A80036;stroke-width:1.0499999999999998;" x1="15.4" x2="176.4" y1="246.75" y2="246.75"/><line style="stroke:#A80036;stroke-width:1.0499999999999998;" x1="15.4" x2="176.4" y1="252.35" y2="252.35"/><ellipse cx="22.4" cy="260.05" fill="#84BE84" rx="2.1" ry="2.1" style="stroke:#038048;stroke-width:0.6999999999999998;"/><text fill="#000000" font-family="sans-serif" font-size="7.7" lengthAdjust="spacing" text-decoration="underline" textLength="144.2" x="28.7" y="263.1433">LoadStationsFromCSV() : List&lt;FireStation&gt;</text><!--MD5=[325e3276c1765c128367154cd6e98f93]
class FireSquad--><rect codeLine="1" fill="#FEFECE" filter="url(#f1inqxk4d3873d)" height="130.4516" id="FireSquad" style="stroke:#A80036;stroke-width:1.0499999999999998;" width="210" x="768.6" y="4.9"/><ellipse cx="850.675" cy="16.1" fill="#ADD1B2" rx="7.7" ry="7.7" style="stroke:#A80036;stroke-width:0.6999999999999998;"/><path d="M852.075,13.65 Q852.2172,13.3 852.3812,13.125 Q852.5453,12.95 852.7312,12.95 Q853.0594,12.95 853.2672,13.1469 Q853.475,13.3437 853.475,13.8031 L853.475,14.8969 Q853.475,15.3562 853.2781,15.5531 Q853.0812,15.75 852.775,15.75 Q852.5016,15.75 852.3266,15.6297 Q852.1516,15.5094 852.075,15.1922 Q852.0422,14.9734 851.9219,14.8531 Q851.7031,14.6234 851.3094,14.4922 Q850.9156,14.35 850.5219,14.35 Q850.0297,14.35 849.6141,14.5469 Q849.2094,14.7437 848.8922,15.1812 Q848.575,15.6187 848.575,16.2203 L848.575,16.8656 Q848.575,17.5875 849.1656,18.0687 Q849.7562,18.55 850.8062,18.55 Q851.4297,18.55 851.8672,18.4078 Q852.1187,18.3312 852.4031,18.0797 Q852.5891,17.9375 852.6875,17.8937 Q852.7859,17.85 852.9062,17.85 Q853.1359,17.85 853.3,18.0359 Q853.475,18.2109 853.475,18.4625 Q853.475,18.7031 853.2344,18.9875 Q852.8844,19.4031 852.3266,19.6328 Q851.5937,19.95 850.6969,19.95 Q849.6469,19.95 848.8047,19.5344 Q848.1266,19.2062 847.6453,18.4953 Q847.175,17.7844 847.175,16.9422 L847.175,16.1766 Q847.175,15.3016 847.5906,14.5359 Q848.0172,13.7703 848.75,13.3656 Q849.4937,12.95 850.325,12.95 Q850.8281,12.95 851.2656,13.125 Q851.7031,13.3 852.075,13.65 Z " fill="#000000"/><text fill="#000000" font-family="sans-serif" font-size="8.4" lengthAdjust="spacing" textLength="39.9" x="865.025" y="19.5371">FireSquad</text><line style="stroke:#A80036;stroke-width:1.0499999999999998;" x1="769.3" x2="977.9" y1="27.3" y2="27.3"/><rect fill="none" height="4.2" style="stroke:#C82930;stroke-width:0.6999999999999998;" width="4.2" x="774.2" y="32.9"/><text fill="#000000" font-family="sans-serif" font-size="7.7" lengthAdjust="spacing" textLength="43.4" x="782.6" y="38.0933">name : string</text><rect fill="none" height="4.2" style="stroke:#C82930;stroke-width:0.6999999999999998;" width="4.2" x="774.2" y="42.5852"/><text fill="#000000" font-family="sans-serif" font-size="7.7" lengthAdjust="spacing" textLength="87.5" x="782.6" y="47.7784">_strategy : IEventStrategy</text><line style="stroke:#A80036;stroke-width:1.0499999999999998;" x1="769.3" x2="977.9" y1="52.2703" y2="52.2703"/><text fill="#000000" font-family="sans-serif" font-size="7.7" lengthAdjust="spacing" textLength="73.5" x="782.6" y="63.0636">TrucksString() : string</text><ellipse cx="776.3" cy="69.6555" fill="#84BE84" rx="2.1" ry="2.1" style="stroke:#038048;stroke-width:0.6999999999999998;"/><text fill="#000000" font-family="sans-serif" font-size="7.7" lengthAdjust="spacing" textLength="81.9" x="782.6" y="72.7487">FireSquad(task:Incident)</text><ellipse cx="776.3" cy="79.3406" fill="#84BE84" rx="2.1" ry="2.1" style="stroke:#038048;stroke-width:0.6999999999999998;"/><text fill="#000000" font-family="sans-serif" font-size="7.7" lengthAdjust="spacing" textLength="191.8" x="782.6" y="82.4339">Step1PrepareTeam(fireTrucks:IIterator&lt;FireTruck&gt;) : void</text><rect fill="#F24D5C" height="4.2" style="stroke:#C82930;stroke-width:0.6999999999999998;" width="4.2" x="774.2" y="86.9258"/><text fill="#000000" font-family="sans-serif" font-size="7.7" lengthAdjust="spacing" textLength="126" x="782.6" y="92.119">«async» Step2GoToLocation() : Task</text><rect fill="#F24D5C" height="4.2" style="stroke:#C82930;stroke-width:0.6999999999999998;" width="4.2" x="774.2" y="96.6109"/><text fill="#000000" font-family="sans-serif" font-size="7.7" lengthAdjust="spacing" textLength="115.5" x="782.6" y="101.8042">«async» Step3Investigate() : Task</text><ellipse cx="776.3" cy="108.3961" fill="#84BE84" rx="2.1" ry="2.1" style="stroke:#038048;stroke-width:0.6999999999999998;"/><text fill="#000000" font-family="sans-serif" font-size="7.7" lengthAdjust="spacing" textLength="97.3" x="782.6" y="111.4894">«override» ToString() : string</text><ellipse cx="776.3" cy="118.0812" fill="#84BE84" rx="2.1" ry="2.1" style="stroke:#038048;stroke-width:0.6999999999999998;"/><text fill="#000000" font-family="sans-serif" font-size="7.7" lengthAdjust="spacing" textLength="67.2" x="782.6" y="121.1745">«async» Go() : void</text><rect fill="#F24D5C" height="4.2" style="stroke:#C82930;stroke-width:0.6999999999999998;" width="4.2" x="774.2" y="125.6664"/><text fill="#000000" font-family="sans-serif" font-size="7.7" lengthAdjust="spacing" textLength="101.5" x="782.6" y="130.8597">«async» Step4Return() : Task</text><!--MD5=[a2a32eb8740a34a1508bfb05a6833e01]
class Incident--><rect codeLine="1" fill="#FEFECE" filter="url(#f1inqxk4d3873d)" height="130.4516" id="Incident" style="stroke:#A80036;stroke-width:1.0499999999999998;" width="147.7" x="158.55" y="341.6"/><ellipse cx="214.375" cy="352.8" fill="#ADD1B2" rx="7.7" ry="7.7" style="stroke:#A80036;stroke-width:0.6999999999999998;"/><path d="M215.775,350.35 Q215.9172,350 216.0812,349.825 Q216.2453,349.65 216.4312,349.65 Q216.7594,349.65 216.9672,349.8469 Q217.175,350.0437 217.175,350.5031 L217.175,351.5969 Q217.175,352.0562 216.9781,352.2531 Q216.7812,352.45 216.475,352.45 Q216.2016,352.45 216.0266,352.3297 Q215.8516,352.2094 215.775,351.8922 Q215.7422,351.6734 215.6219,351.5531 Q215.4031,351.3234 215.0094,351.1922 Q214.6156,351.05 214.2219,351.05 Q213.7297,351.05 213.3141,351.2469 Q212.9094,351.4437 212.5922,351.8812 Q212.275,352.3187 212.275,352.9203 L212.275,353.5656 Q212.275,354.2875 212.8656,354.7687 Q213.4562,355.25 214.5062,355.25 Q215.1297,355.25 215.5672,355.1078 Q215.8187,355.0312 216.1031,354.7797 Q216.2891,354.6375 216.3875,354.5937 Q216.4859,354.55 216.6062,354.55 Q216.8359,354.55 217,354.7359 Q217.175,354.9109 217.175,355.1625 Q217.175,355.4031 216.9344,355.6875 Q216.5844,356.1031 216.0266,356.3328 Q215.2937,356.65 214.3969,356.65 Q213.3469,356.65 212.5047,356.2344 Q211.8266,355.9062 211.3453,355.1953 Q210.875,354.4844 210.875,353.6422 L210.875,352.8766 Q210.875,352.0016 211.2906,351.2359 Q211.7172,350.4703 212.45,350.0656 Q213.1937,349.65 214.025,349.65 Q214.5281,349.65 214.9656,349.825 Q215.4031,350 215.775,350.35 Z " fill="#000000"/><text fill="#000000" font-family="sans-serif" font-size="8.4" lengthAdjust="spacing" textLength="30.1" x="228.725" y="356.2371">Incident</text><line style="stroke:#A80036;stroke-width:1.0499999999999998;" x1="159.25" x2="305.55" y1="364" y2="364"/><rect fill="none" height="4.2" style="stroke:#C82930;stroke-width:0.6999999999999998;" width="4.2" x="164.15" y="369.6"/><text fill="#000000" font-family="sans-serif" font-size="7.7" lengthAdjust="spacing" textLength="68.6" x="172.55" y="374.7933">objectName : string[]</text><ellipse cx="166.25" cy="381.3852" rx="2.1" ry="2.1" style="stroke:#038048;stroke-width:0.6999999999999998;fill:none;"/><text fill="#000000" font-family="sans-serif" font-size="7.7" lengthAdjust="spacing" textLength="65.8" x="172.55" y="384.4784">Name : String «get»</text><ellipse cx="166.25" cy="391.0703" rx="2.1" ry="2.1" style="stroke:#038048;stroke-width:0.6999999999999998;fill:none;"/><text fill="#000000" font-family="sans-serif" font-size="7.7" lengthAdjust="spacing" textLength="79.8" x="172.55" y="394.1636">Type : EventType «get»</text><ellipse cx="166.25" cy="400.7555" rx="2.1" ry="2.1" style="stroke:#038048;stroke-width:0.6999999999999998;fill:none;"/><text fill="#000000" font-family="sans-serif" font-size="7.7" lengthAdjust="spacing" textLength="56" x="172.55" y="403.8487">Real : bool «get»</text><ellipse cx="166.25" cy="410.4406" rx="2.1" ry="2.1" style="stroke:#038048;stroke-width:0.6999999999999998;fill:none;"/><text fill="#000000" font-family="sans-serif" font-size="7.7" lengthAdjust="spacing" textLength="83.3" x="172.55" y="413.5339">Location : Vector2 «get»</text><line style="stroke:#A80036;stroke-width:1.0499999999999998;" x1="159.25" x2="305.55" y1="418.0258" y2="418.0258"/><ellipse cx="166.25" cy="425.7258" fill="#84BE84" rx="2.1" ry="2.1" style="stroke:#038048;stroke-width:0.6999999999999998;"/><text fill="#000000" font-family="sans-serif" font-size="7.7" lengthAdjust="spacing" textLength="31.5" x="172.55" y="428.819">Incident()</text><ellipse cx="166.25" cy="435.4109" fill="#84BE84" rx="2.1" ry="2.1" style="stroke:#038048;stroke-width:0.6999999999999998;"/><text fill="#000000" font-family="sans-serif" font-size="7.7" lengthAdjust="spacing" textLength="97.3" x="172.55" y="438.5042">«override» ToString() : string</text><ellipse cx="166.25" cy="445.0961" fill="#84BE84" rx="2.1" ry="2.1" style="stroke:#038048;stroke-width:0.6999999999999998;"/><text fill="#000000" font-family="sans-serif" font-size="7.7" lengthAdjust="spacing" text-decoration="underline" textLength="127.4" x="172.55" y="448.1894">FirstCharToUpper(input:string) : string</text><rect fill="#F24D5C" height="4.2" style="stroke:#C82930;stroke-width:0.6999999999999998;" width="4.2" x="164.15" y="452.6812"/><text fill="#000000" font-family="sans-serif" font-size="7.7" lengthAdjust="spacing" textLength="129.5" x="172.55" y="457.8745">RandomName(type:EventType) : string</text><rect fill="#F24D5C" height="4.2" style="stroke:#C82930;stroke-width:0.6999999999999998;" width="4.2" x="164.15" y="462.3664"/><text fill="#000000" font-family="sans-serif" font-size="7.7" lengthAdjust="spacing" text-decoration="underline" textLength="95.2" x="172.55" y="467.5597">RandomLocation() : Vector2</text><!--MD5=[51255159981deef4d2967e1585ccf960]
class EventType--><rect codeLine="13" fill="#FEFECE" filter="url(#f1inqxk4d3873d)" height="52.9703" id="EventType" style="stroke:#A80036;stroke-width:1.0499999999999998;" width="61.6" x="4.9" y="553"/><ellipse cx="15.4" cy="564.2" fill="#EB937F" rx="7.7" ry="7.7" style="stroke:#A80036;stroke-width:0.6999999999999998;"/><path d="M14.35,564.9 L14.35,566.3 L17.15,566.3 L17.15,565.6 L17.15,565.2609 L17.5875,564.9 L17.85,564.9 L18.1125,564.9 L18.55,565.2609 L18.55,565.6 L18.55,567.7 L12.95,567.7 L12.6109,567.7 L12.25,567.2625 L12.25,567 L12.25,566.7375 L12.6109,566.3 L12.95,566.3 L12.95,566.3 L12.95,562.1 L12.95,562.1 L12.6109,562.1 L12.25,561.6625 L12.25,561.4 L12.25,561.1375 L12.6109,560.7 L12.95,560.7 L18.55,560.7 L18.55,562.8 L18.55,563.1391 L18.1125,563.5 L17.85,563.5 L17.5875,563.5 L17.15,563.1391 L17.15,562.8 L17.15,562.1 L14.35,562.1 L14.35,563.5 L15.05,563.5 L15.05,563.1609 L15.05,563.1609 L15.4875,562.8 L15.75,562.8 L16.0125,562.8 L16.45,563.1609 L16.45,563.5 L16.45,564.9 L16.45,565.2391 L16.0125,565.6 L16.0125,565.6 L15.75,565.6 L15.4875,565.6 L15.05,565.2391 L15.05,565.2391 L15.05,564.9 L14.35,564.9 Z " fill="#000000"/><text fill="#000000" font-family="sans-serif" font-size="8.4" lengthAdjust="spacing" textLength="39.2" x="25.2" y="567.6371">EventType</text><line style="stroke:#A80036;stroke-width:1.0499999999999998;" x1="5.6" x2="65.8" y1="575.4" y2="575.4"/><text fill="#000000" font-family="sans-serif" font-size="7.7" lengthAdjust="spacing" textLength="11.2" x="9.1" y="586.1933">PZ,</text><text fill="#000000" font-family="sans-serif" font-size="7.7" lengthAdjust="spacing" textLength="12.6" x="9.1" y="595.8784">MZ,</text><line style="stroke:#A80036;stroke-width:1.0499999999999998;" x1="5.6" x2="65.8" y1="600.3703" y2="600.3703"/><!--MD5=[2c7decc1f15996e793159cdad8298c6a]
class FireTruck--><rect codeLine="3" fill="#FEFECE" filter="url(#f1inqxk4d3873d)" height="130.4516" id="FireTruck" style="stroke:#A80036;stroke-width:1.0499999999999998;" width="126" x="725.2" y="514.5"/><ellipse cx="767.375" cy="525.7" fill="#ADD1B2" rx="7.7" ry="7.7" style="stroke:#A80036;stroke-width:0.6999999999999998;"/><path d="M768.775,523.25 Q768.9172,522.9 769.0812,522.725 Q769.2453,522.55 769.4312,522.55 Q769.7594,522.55 769.9672,522.7469 Q770.175,522.9437 770.175,523.4031 L770.175,524.4969 Q770.175,524.9562 769.9781,525.1531 Q769.7812,525.35 769.475,525.35 Q769.2016,525.35 769.0266,525.2297 Q768.8516,525.1094 768.775,524.7922 Q768.7422,524.5734 768.6219,524.4531 Q768.4031,524.2234 768.0094,524.0922 Q767.6156,523.95 767.2219,523.95 Q766.7297,523.95 766.3141,524.1469 Q765.9094,524.3437 765.5922,524.7812 Q765.275,525.2187 765.275,525.8203 L765.275,526.4656 Q765.275,527.1875 765.8656,527.6687 Q766.4562,528.15 767.5062,528.15 Q768.1297,528.15 768.5672,528.0078 Q768.8187,527.9312 769.1031,527.6797 Q769.2891,527.5375 769.3875,527.4937 Q769.4859,527.45 769.6062,527.45 Q769.8359,527.45 770,527.6359 Q770.175,527.8109 770.175,528.0625 Q770.175,528.3031 769.9344,528.5875 Q769.5844,529.0031 769.0266,529.2328 Q768.2937,529.55 767.3969,529.55 Q766.3469,529.55 765.5047,529.1344 Q764.8266,528.8062 764.3453,528.0953 Q763.875,527.3844 763.875,526.5422 L763.875,525.7766 Q763.875,524.9016 764.2906,524.1359 Q764.7172,523.3703 765.45,522.9656 Q766.1937,522.55 767.025,522.55 Q767.5281,522.55 767.9656,522.725 Q768.4031,522.9 768.775,523.25 Z " fill="#000000"/><text fill="#000000" font-family="sans-serif" font-size="8.4" lengthAdjust="spacing" textLength="35.7" x="781.725" y="529.1371">FireTruck</text><line style="stroke:#A80036;stroke-width:1.0499999999999998;" x1="725.9" x2="850.5" y1="536.9" y2="536.9"/><rect fill="none" height="4.2" style="stroke:#C82930;stroke-width:0.6999999999999998;" width="4.2" x="730.8" y="542.5"/><text fill="#000000" font-family="sans-serif" font-size="7.7" lengthAdjust="spacing" textLength="43.4" x="739.2" y="547.6933">name : string</text><ellipse cx="732.9" cy="554.2852" rx="2.1" ry="2.1" style="stroke:#038048;stroke-width:0.6999999999999998;fill:none;"/><text fill="#000000" font-family="sans-serif" font-size="7.7" lengthAdjust="spacing" textLength="40.6" x="739.2" y="557.3784">state : State</text><line style="stroke:#A80036;stroke-width:1.0499999999999998;" x1="725.9" x2="850.5" y1="561.8703" y2="561.8703"/><ellipse cx="732.9" cy="569.5703" fill="#84BE84" rx="2.1" ry="2.1" style="stroke:#038048;stroke-width:0.6999999999999998;"/><text fill="#000000" font-family="sans-serif" font-size="7.7" lengthAdjust="spacing" textLength="62.3" x="739.2" y="572.6636">FireTruck(s:string)</text><ellipse cx="732.9" cy="579.2555" fill="#84BE84" rx="2.1" ry="2.1" style="stroke:#038048;stroke-width:0.6999999999999998;"/><text fill="#000000" font-family="sans-serif" font-size="7.7" lengthAdjust="spacing" textLength="97.3" x="739.2" y="582.3487">«override» ToString() : string</text><ellipse cx="732.9" cy="588.9406" fill="#84BE84" rx="2.1" ry="2.1" style="stroke:#038048;stroke-width:0.6999999999999998;"/><text fill="#000000" font-family="sans-serif" font-size="7.7" lengthAdjust="spacing" textLength="107.8" x="739.2" y="592.0339">TransitionTo(_state:State) : void</text><ellipse cx="732.9" cy="598.6258" fill="#84BE84" rx="2.1" ry="2.1" style="stroke:#038048;stroke-width:0.6999999999999998;"/><text fill="#000000" font-family="sans-serif" font-size="7.7" lengthAdjust="spacing" textLength="64.4" x="739.2" y="601.719">HandleFree() : void</text><ellipse cx="732.9" cy="608.3109" fill="#84BE84" rx="2.1" ry="2.1" style="stroke:#038048;stroke-width:0.6999999999999998;"/><text fill="#000000" font-family="sans-serif" font-size="7.7" lengthAdjust="spacing" textLength="78.4" x="739.2" y="611.4042">HandleTravelTo() : void</text><ellipse cx="732.9" cy="617.9961" fill="#84BE84" rx="2.1" ry="2.1" style="stroke:#038048;stroke-width:0.6999999999999998;"/><text fill="#000000" font-family="sans-serif" font-size="7.7" lengthAdjust="spacing" textLength="66.5" x="739.2" y="621.0894">HandleBusy() : void</text><ellipse cx="732.9" cy="627.6812" fill="#84BE84" rx="2.1" ry="2.1" style="stroke:#038048;stroke-width:0.6999999999999998;"/><text fill="#000000" font-family="sans-serif" font-size="7.7" lengthAdjust="spacing" textLength="92.4" x="739.2" y="630.7745">HandleTravelReturn() : void</text><ellipse cx="732.9" cy="637.3664" fill="#84BE84" rx="2.1" ry="2.1" style="stroke:#038048;stroke-width:0.6999999999999998;"/><text fill="#000000" font-family="sans-serif" font-size="7.7" lengthAdjust="spacing" textLength="66.5" x="739.2" y="640.4597">HandleWork() : void</text><!--MD5=[5006a590d4497dc871b9f944eabf0a99]
class IVector--><rect codeLine="1" fill="#FEFECE" filter="url(#f1inqxk4d3873d)" height="62.6555" id="IVector" style="stroke:#A80036;stroke-width:1.0499999999999998;" width="105" x="91" y="548.1"/><ellipse cx="126.875" cy="559.3" fill="#B4A7E5" rx="7.7" ry="7.7" style="stroke:#A80036;stroke-width:0.6999999999999998;"/><path d="M127.575,557.2 L127.575,561.4 L128.975,561.4 L129.3141,561.4 L129.675,561.8375 L129.675,562.1 L129.675,562.3625 L129.3141,562.8 L128.975,562.8 L124.775,562.8 L124.4359,562.8 L124.075,562.3625 L124.075,562.1 L124.075,561.8375 L124.4359,561.4 L124.775,561.4 L126.175,561.4 L126.175,557.2 L124.775,557.2 L124.4359,557.2 L124.075,556.7625 L124.075,556.5 L124.075,556.2375 L124.4359,555.8 L124.775,555.8 L128.975,555.8 L129.3141,555.8 L129.675,556.2375 L129.675,556.5 L129.675,556.7625 L129.3141,557.2 L128.975,557.2 L127.575,557.2 Z " fill="#000000"/><text fill="#000000" font-family="sans-serif" font-size="8.4" font-style="italic" lengthAdjust="spacing" textLength="27.3" x="141.225" y="562.7371">IVector</text><line style="stroke:#A80036;stroke-width:1.0499999999999998;" x1="91.7" x2="195.3" y1="570.5" y2="570.5"/><line style="stroke:#A80036;stroke-width:1.0499999999999998;" x1="91.7" x2="195.3" y1="576.1" y2="576.1"/><text fill="#000000" font-family="sans-serif" font-size="7.7" lengthAdjust="spacing" textLength="46.9" x="95.2" y="586.8933">abs() : double</text><text fill="#000000" font-family="sans-serif" font-size="7.7" lengthAdjust="spacing" textLength="96.6" x="95.2" y="596.5784">cdot(param:IVector) : double</text><text fill="#000000" font-family="sans-serif" font-size="7.7" lengthAdjust="spacing" textLength="91" x="95.2" y="606.2636">getComponents() : double[]</text><!--MD5=[3f551f1273bbfa514d2f681c1c48b5c1]
class Vector2--><rect codeLine="1" fill="#FEFECE" filter="url(#f1inqxk4d3873d)" height="111.0812" id="Vector2" style="stroke:#A80036;stroke-width:1.0499999999999998;" width="145.6" x="121.1" y="697.9"/><ellipse cx="176.575" cy="709.1" fill="#ADD1B2" rx="7.7" ry="7.7" style="stroke:#A80036;stroke-width:0.6999999999999998;"/><path d="M177.975,706.65 Q178.1172,706.3 178.2812,706.125 Q178.4453,705.95 178.6312,705.95 Q178.9594,705.95 179.1672,706.1469 Q179.375,706.3437 179.375,706.8031 L179.375,707.8969 Q179.375,708.3562 179.1781,708.5531 Q178.9812,708.75 178.675,708.75 Q178.4016,708.75 178.2266,708.6297 Q178.0516,708.5094 177.975,708.1922 Q177.9422,707.9734 177.8219,707.8531 Q177.6031,707.6234 177.2094,707.4922 Q176.8156,707.35 176.4219,707.35 Q175.9297,707.35 175.5141,707.5469 Q175.1094,707.7437 174.7922,708.1812 Q174.475,708.6187 174.475,709.2203 L174.475,709.8656 Q174.475,710.5875 175.0656,711.0687 Q175.6562,711.55 176.7062,711.55 Q177.3297,711.55 177.7672,711.4078 Q178.0187,711.3312 178.3031,711.0797 Q178.4891,710.9375 178.5875,710.8937 Q178.6859,710.85 178.8062,710.85 Q179.0359,710.85 179.2,711.0359 Q179.375,711.2109 179.375,711.4625 Q179.375,711.7031 179.1344,711.9875 Q178.7844,712.4031 178.2266,712.6328 Q177.4937,712.95 176.5969,712.95 Q175.5469,712.95 174.7047,712.5344 Q174.0266,712.2062 173.5453,711.4953 Q173.075,710.7844 173.075,709.9422 L173.075,709.1766 Q173.075,708.3016 173.4906,707.5359 Q173.9172,706.7703 174.65,706.3656 Q175.3937,705.95 176.225,705.95 Q176.7281,705.95 177.1656,706.125 Q177.6031,706.3 177.975,706.65 Z " fill="#000000"/><text fill="#000000" font-family="sans-serif" font-size="8.4" lengthAdjust="spacing" textLength="28.7" x="190.925" y="712.5371">Vector2</text><line style="stroke:#A80036;stroke-width:1.0499999999999998;" x1="121.8" x2="266" y1="720.3" y2="720.3"/><ellipse cx="128.8" cy="728" rx="2.1" ry="2.1" style="stroke:#038048;stroke-width:0.6999999999999998;fill:none;"/><text fill="#000000" font-family="sans-serif" font-size="7.7" lengthAdjust="spacing" textLength="54.6" x="135.1" y="731.0933">X : double «get»</text><ellipse cx="128.8" cy="737.6852" rx="2.1" ry="2.1" style="stroke:#038048;stroke-width:0.6999999999999998;fill:none;"/><text fill="#000000" font-family="sans-serif" font-size="7.7" lengthAdjust="spacing" textLength="55.3" x="135.1" y="740.7784">Y : double «get»</text><line style="stroke:#A80036;stroke-width:1.0499999999999998;" x1="121.8" x2="266" y1="745.2703" y2="745.2703"/><ellipse cx="128.8" cy="752.9703" fill="#84BE84" rx="2.1" ry="2.1" style="stroke:#038048;stroke-width:0.6999999999999998;"/><text fill="#000000" font-family="sans-serif" font-size="7.7" lengthAdjust="spacing" textLength="94.5" x="135.1" y="756.0636">Vector2(x:double, y:double)</text><ellipse cx="128.8" cy="762.6555" fill="#84BE84" rx="2.1" ry="2.1" style="stroke:#038048;stroke-width:0.6999999999999998;"/><text fill="#000000" font-family="sans-serif" font-size="7.7" lengthAdjust="spacing" textLength="46.9" x="135.1" y="765.7487">abs() : double</text><ellipse cx="128.8" cy="772.3406" fill="#84BE84" rx="2.1" ry="2.1" style="stroke:#038048;stroke-width:0.6999999999999998;"/><text fill="#000000" font-family="sans-serif" font-size="7.7" lengthAdjust="spacing" textLength="96.6" x="135.1" y="775.4339">cdot(param:IVector) : double</text><ellipse cx="128.8" cy="782.0258" fill="#84BE84" rx="2.1" ry="2.1" style="stroke:#038048;stroke-width:0.6999999999999998;"/><text fill="#000000" font-family="sans-serif" font-size="7.7" lengthAdjust="spacing" textLength="91" x="135.1" y="785.119">getComponents() : double[]</text><ellipse cx="128.8" cy="791.7109" fill="#84BE84" rx="2.1" ry="2.1" style="stroke:#038048;stroke-width:0.6999999999999998;"/><text fill="#000000" font-family="sans-serif" font-size="7.7" lengthAdjust="spacing" textLength="97.3" x="135.1" y="794.8042">«override» ToString() : string</text><ellipse cx="128.8" cy="801.3961" fill="#84BE84" rx="2.1" ry="2.1" style="stroke:#038048;stroke-width:0.6999999999999998;"/><text fill="#000000" font-family="sans-serif" font-size="7.7" lengthAdjust="spacing" textLength="127.4" x="135.1" y="804.4894">DistanceTo(position:Vector2) : double</text><!--MD5=[175f95e045c1a44aed0b30df3abe0e5c]
class Program--><rect codeLine="18" fill="#FEFECE" filter="url(#f1inqxk4d3873d)" height="33.6" id="Program" style="stroke:#A80036;stroke-width:1.0499999999999998;" width="56" x="198.1" y="53.2"/><ellipse cx="208.6" cy="64.4" fill="#ADD1B2" rx="7.7" ry="7.7" style="stroke:#A80036;stroke-width:0.6999999999999998;"/><path d="M210,61.95 Q210.1422,61.6 210.3062,61.425 Q210.4703,61.25 210.6562,61.25 Q210.9844,61.25 211.1922,61.4469 Q211.4,61.6437 211.4,62.1031 L211.4,63.1969 Q211.4,63.6562 211.2031,63.8531 Q211.0062,64.05 210.7,64.05 Q210.4266,64.05 210.2516,63.9297 Q210.0766,63.8094 210,63.4922 Q209.9672,63.2734 209.8469,63.1531 Q209.6281,62.9234 209.2344,62.7922 Q208.8406,62.65 208.4469,62.65 Q207.9547,62.65 207.5391,62.8469 Q207.1344,63.0437 206.8172,63.4812 Q206.5,63.9187 206.5,64.5203 L206.5,65.1656 Q206.5,65.8875 207.0906,66.3687 Q207.6812,66.85 208.7312,66.85 Q209.3547,66.85 209.7922,66.7078 Q210.0437,66.6312 210.3281,66.3797 Q210.5141,66.2375 210.6125,66.1937 Q210.7109,66.15 210.8312,66.15 Q211.0609,66.15 211.225,66.3359 Q211.4,66.5109 211.4,66.7625 Q211.4,67.0031 211.1594,67.2875 Q210.8094,67.7031 210.2516,67.9328 Q209.5187,68.25 208.6219,68.25 Q207.5719,68.25 206.7297,67.8344 Q206.0516,67.5062 205.5703,66.7953 Q205.1,66.0844 205.1,65.2422 L205.1,64.4766 Q205.1,63.6016 205.5156,62.8359 Q205.9422,62.0703 206.675,61.6656 Q207.4187,61.25 208.25,61.25 Q208.7531,61.25 209.1906,61.425 Q209.6281,61.6 210,61.95 Z " fill="#000000"/><text fill="#000000" font-family="sans-serif" font-size="8.4" lengthAdjust="spacing" textLength="33.6" x="218.4" y="67.8371">Program</text><line style="stroke:#A80036;stroke-width:1.0499999999999998;" x1="198.8" x2="253.4" y1="75.6" y2="75.6"/><line style="stroke:#A80036;stroke-width:1.0499999999999998;" x1="198.8" x2="253.4" y1="81.2" y2="81.2"/><!--MD5=[fc832535ce6d06a048690cb088a7c9eb]
reverse link IIterator`1 to ClosestFireTrucksIterator--><path codeLine="12" d="M746.9,286.888 C746.9,309.379 746.9,337.491 746.9,360.759 " fill="none" id="IIterator`1-backto-ClosestFireTrucksIterator" style="stroke:#A80036;stroke-width:0.6999999999999998;"/><polygon fill="none" points="742,286.692,746.9,272.692,751.8,286.692,742,286.692" style="stroke:#A80036;stroke-width:0.6999999999999998;"/><text fill="#000000" font-family="sans-serif" font-size="9.1" lengthAdjust="spacing" textLength="49" x="693.8422" y="287.5181">&lt;FireTruck&gt;</text><!--MD5=[bd2b445314879ed5b35aeea095cae7d8]
link ControlStation to ISubject--><path codeLine="12" d="M427.378,287.14 C420.427,314.895 411.348,351.127 405.055,376.257 " fill="none" id="ControlStation-to-ISubject" style="stroke:#A80036;stroke-width:0.6999999999999998;"/><polygon fill="#A80036" points="404.145,379.883,408.3931,374.4531,404.9962,376.4881,402.9613,373.0912,404.145,379.883" style="stroke:#A80036;stroke-width:0.6999999999999998;"/><!--MD5=[f5021de86d127669771088eb5c1e9359]
link FireStation to IObserver--><path codeLine="10" d="M567.7,438.256 C567.7,471.436 567.7,523.523 567.7,554.127 " fill="none" id="FireStation-to-IObserver" style="stroke:#A80036;stroke-width:0.6999999999999998;"/><polygon fill="#A80036" points="567.7,557.753,570.5,551.453,567.7,554.253,564.9,551.453,567.7,557.753" style="stroke:#A80036;stroke-width:0.6999999999999998;"/><!--MD5=[a5eb61decc8bcf76fb2b3dbbd4338d1b]
reverse link Incident to EventType--><path codeLine="17" d="M149.534,456.596 C125.104,473.242 99.337,493.094 78.4,514.5 C67.333,525.819 57.393,540.386 49.896,552.797 " fill="none" id="Incident-backto-EventType" style="stroke:#A80036;stroke-width:0.6999999999999998;"/><ellipse cx="153.8086" cy="453.7308" fill="#FFFFFF" rx="5.6" ry="5.6" style="stroke:#A80036;stroke-width:0.6999999999999998;"/><line style="stroke:#A80036;stroke-width:0.6999999999999998;" x1="149.1581" x2="158.459" y1="456.8507" y2="450.611"/><line style="stroke:#A80036;stroke-width:0.6999999999999998;" x1="150.6887" x2="156.9284" y1="449.0804" y2="458.3813"/><!--MD5=[d1644b7c5e6536e4ec822ae57d042cc6]
reverse link State to IdleState--><path codeLine="28" d="M701.134,799.589 C638.26,832.328 556.241,875.042 508.011,900.158 " fill="none" id="State-backto-IdleState" style="stroke:#A80036;stroke-width:0.6999999999999998;"/><polygon fill="none" points="698.957,795.2,713.643,793.079,703.486,803.887,698.957,795.2" style="stroke:#A80036;stroke-width:0.6999999999999998;"/><!--MD5=[0607b48f52edf9de41ade643930a150f]
reverse link State to BusyState--><path codeLine="29" d="M728.273,814.303 C698.39,844.249 664.146,878.57 642.691,900.067 " fill="none" id="State-backto-BusyState" style="stroke:#A80036;stroke-width:0.6999999999999998;"/><polygon fill="none" points="724.857,810.789,738.213,804.342,731.794,817.712,724.857,810.789" style="stroke:#A80036;stroke-width:0.6999999999999998;"/><!--MD5=[02ba31c9e88adbb55a78afdeb6674045]
reverse link State to WorkingState--><path codeLine="30" d="M788.2,818.433 C788.2,847.357 788.2,879.55 788.2,900.067 " fill="none" id="State-backto-WorkingState" style="stroke:#A80036;stroke-width:0.6999999999999998;"/><polygon fill="none" points="783.3,818.342,788.2,804.342,793.1,818.342,783.3,818.342" style="stroke:#A80036;stroke-width:0.6999999999999998;"/><!--MD5=[b5c9d30421626da00a9c3634c2664eb7]
reverse link State to TravellingFromState--><path codeLine="31" d="M845.796,814.499 C874.377,844.396 907.088,878.612 927.598,900.067 " fill="none" id="State-backto-TravellingFromState" style="stroke:#A80036;stroke-width:0.6999999999999998;"/><polygon fill="none" points="842.219,817.845,836.087,804.342,849.303,811.076,842.219,817.845" style="stroke:#A80036;stroke-width:0.6999999999999998;"/><!--MD5=[b9a8ac8341ebf4100eee95bd027c33b3]
reverse link State to TravellingToState--><path codeLine="32" d="M875.273,799.792 C933.912,830.459 1009.141,869.806 1057.805,895.258 " fill="none" id="State-backto-TravellingToState" style="stroke:#A80036;stroke-width:0.6999999999999998;"/><polygon fill="none" points="872.97,804.118,862.834,793.289,877.513,795.431,872.97,804.118" style="stroke:#A80036;stroke-width:0.6999999999999998;"/><!--MD5=[473caf973b36cd38b5e5d5da06b82751]
reverse link IExecutionStrategy to Emergency--><path codeLine="12" d="M927.129,281.904 C924.917,313.369 921.739,358.491 919.891,384.762 " fill="none" id="IExecutionStrategy-backto-Emergency" style="stroke:#A80036;stroke-width:0.6999999999999998;"/><polygon fill="none" points="922.243,281.519,928.116,267.897,932.015,282.205,922.243,281.519" style="stroke:#A80036;stroke-width:0.6999999999999998;"/><!--MD5=[7342c2a8afea55b6d2b3055a9b5ecdb2]
reverse link IExecutionStrategy to Fake--><path codeLine="13" d="M947.653,280.413 C964.558,311.934 989.296,358.071 1003.611,384.762 " fill="none" id="IExecutionStrategy-backto-Fake" style="stroke:#A80036;stroke-width:0.6999999999999998;"/><polygon fill="none" points="943.236,282.548,940.94,267.897,951.874,277.921,943.236,282.548" style="stroke:#A80036;stroke-width:0.6999999999999998;"/><!--MD5=[51a05d4582f85d0fd144f318182fe7ab]
reverse link IEventStrategy to StrategyMz--><path codeLine="13" d="M1204.308,286.153 C1194.018,317.38 1180.025,359.814 1171.751,384.909 " fill="none" id="IEventStrategy-backto-StrategyMz" style="stroke:#A80036;stroke-width:0.6999999999999998;"/><polygon fill="none" points="1199.709,284.452,1208.746,272.692,1209.019,287.518,1199.709,284.452" style="stroke:#A80036;stroke-width:0.6999999999999998;"/><!--MD5=[6dddbfe35ec4609f33e0984953d43661]
reverse link IEventStrategy to StrategyPz--><path codeLine="14" d="M1245.342,284.06 C1268.946,315.462 1301.86,359.247 1321.145,384.909 " fill="none" id="IEventStrategy-backto-StrategyPz" style="stroke:#A80036;stroke-width:0.6999999999999998;"/><polygon fill="none" points="1241.296,286.825,1236.795,272.692,1249.129,280.938,1241.296,286.825" style="stroke:#A80036;stroke-width:0.6999999999999998;"/><!--MD5=[690eb6ddbce4f781f85b963796a29379]
reverse link IVector to Vector2--><path codeLine="11" d="M156.457,624.666 C162.974,646.975 170.933,674.226 177.835,697.851 " fill="none" id="IVector-backto-Vector2" style="stroke:#A80036;stroke-width:0.6999999999999998;"/><polygon fill="none" points="151.732,625.961,152.509,611.149,161.14,623.21,151.732,625.961" style="stroke:#A80036;stroke-width:0.6999999999999998;"/><!--MD5=[60950accb16d50fa84df3bc0d914d397]
link Program to CSVParser--><path codeLine="20" d="M214.081,86.821 C190.477,118.482 138.054,188.811 111.685,224.175 " fill="none" id="Program-CSVParser" style="stroke:#A80036;stroke-width:0.6999999999999998;"/><text fill="#000000" font-family="sans-serif" font-size="9.1" lengthAdjust="spacing" textLength="21" x="161.7" y="166.2466">Uses</text><!--MD5=[6aa073de125b9f14d78f57d2bb227e0f]
link Program to Incident--><path codeLine="21" d="M226.401,86.87 C227.255,132.132 229.691,261.961 231.189,341.39 " fill="none" id="Program-Incident" style="stroke:#A80036;stroke-width:0.6999999999999998;"/><text fill="#000000" font-family="sans-serif" font-size="9.1" lengthAdjust="spacing" textLength="31.5" x="230.3" y="249.8966">Creates</text><!--MD5=[c7ae54517f86346da8f7a7f33247dc4d]
reverse link Program to ControlStation--><path codeLine="22" d="M252.672,92.652 C286.699,120.764 346.332,170.03 388.654,204.995 " fill="none" id="Program-backto-ControlStation" style="stroke:#A80036;stroke-width:0.6999999999999998;"/><polygon fill="#A80036" points="245.609,86.821,247.06,91.6557,252.0809,92.1758,250.6299,87.3411,245.609,86.821" style="stroke:#A80036;stroke-width:0.6999999999999998;"/><!--MD5=[55ec74d9208a2960484f3d673f2fd0f0]
reverse link Incident to Vector2--><path codeLine="24" d="M225.288,481.075 C220.64,527.954 214.27,589.932 207.9,644.7 C205.884,662.004 203.511,680.834 201.299,697.865 " fill="none" id="Incident-backto-Vector2" style="stroke:#A80036;stroke-width:0.6999999999999998;"/><polygon fill="#FFFFFF" points="226.198,471.905,222.9961,475.8073,225.3667,480.2638,228.5686,476.3615,226.198,471.905" style="stroke:#A80036;stroke-width:0.6999999999999998;"/><text fill="#000000" font-family="sans-serif" font-size="9.1" lengthAdjust="spacing" textLength="50.4" x="223.3" y="583.4466">Has location</text><!--MD5=[b498f6fe71feeaa1aae13e619c9b9447]
reverse link ControlStation to FireStation--><path codeLine="25" d="M476.413,294.343 C497.742,320.439 523.579,352.037 542.311,374.948 " fill="none" id="ControlStation-backto-FireStation" style="stroke:#A80036;stroke-width:0.6999999999999998;"/><polygon fill="#FFFFFF" points="470.526,287.14,471.015,292.164,475.8407,293.6449,475.3517,288.6209,470.526,287.14" style="stroke:#A80036;stroke-width:0.6999999999999998;"/><!--MD5=[cf032d70b619ab1006df4e835a439789]
reverse link ControlStation to Incident--><path codeLine="26" d="M378.028,292.922 C355.67,310.289 329.959,330.246 306.432,348.516 " fill="none" id="ControlStation-backto-Incident" style="stroke:#A80036;stroke-width:0.6999999999999998;"/><polygon fill="#FFFFFF" points="385.476,287.14,380.4413,287.503,378.84,292.2901,383.8747,291.927,385.476,287.14" style="stroke:#A80036;stroke-width:0.6999999999999998;"/><!--MD5=[9c1490dc6f6d2b968cfa23391cf1c527]
link ControlStation to ClosestFireTrucksIterator--><path codeLine="27" d="M541.87,286.097 C579.362,301.665 621.404,320.81 658,341.6 C668.108,347.34 678.447,354.004 688.331,360.822 " fill="none" id="ControlStation-ClosestFireTrucksIterator" style="stroke:#A80036;stroke-width:0.6999999999999998;"/><text fill="#000000" font-family="sans-serif" font-size="9.1" lengthAdjust="spacing" textLength="16.1" x="618.1" y="318.1466">Use</text><!--MD5=[46573bf8de5328e4c4cc9c94a453a837]
reverse link FireStation to FireTruck--><path codeLine="28" d="M614.691,443.947 C646.863,468.972 689.899,502.446 725.067,529.795 " fill="none" id="FireStation-backto-FireTruck" style="stroke:#A80036;stroke-width:0.6999999999999998;"/><polygon fill="#FFFFFF" points="607.376,438.256,608.9773,443.043,614.012,443.4061,612.4107,438.619,607.376,438.256" style="stroke:#A80036;stroke-width:0.6999999999999998;"/><text fill="#000000" font-family="sans-serif" font-size="9.1" lengthAdjust="spacing" textLength="4.9" x="607.7109" y="452.9692">1</text><text fill="#000000" font-family="sans-serif" font-size="9.1" lengthAdjust="spacing" textLength="22.4" x="697.2082" y="523.9726">many</text><!--MD5=[cf1eb8b14e8902124fb9551d385c807f]
reverse link FireSquad to FireTruck--><path codeLine="29" d="M866.817,144.214 C858.613,225.071 842.856,358.568 819,471.8 C816.067,485.716 812.28,500.465 808.374,514.43 " fill="none" id="FireSquad-backto-FireTruck" style="stroke:#A80036;stroke-width:0.6999999999999998;"/><polygon fill="#FFFFFF" points="867.734,135.1,864.5283,138.9991,866.8945,143.4579,870.1002,139.5588,867.734,135.1" style="stroke:#A80036;stroke-width:0.6999999999999998;"/><text fill="#000000" font-family="sans-serif" font-size="9.1" lengthAdjust="spacing" textLength="4.9" x="862.1453" y="150.4012">1</text><text fill="#000000" font-family="sans-serif" font-size="9.1" lengthAdjust="spacing" textLength="22.4" x="786.7172" y="506.8157">many</text><!--MD5=[287df3ec9a01935f3d99cf7765a17ac9]
reverse link FireSquad to Incident--><path codeLine="30" d="M759.171,79.002 C616.966,91.497 385.049,119.721 319.9,174.3 C306.425,185.584 274.47,276.969 253.141,341.53 " fill="none" id="FireSquad-backto-Incident" style="stroke:#A80036;stroke-width:0.6999999999999998;"/><polygon fill="#FFFFFF" points="768.404,78.204,763.9793,75.7746,760.035,78.9245,764.4597,81.3539,768.404,78.204" style="stroke:#A80036;stroke-width:0.6999999999999998;"/><text fill="#000000" font-family="sans-serif" font-size="9.1" lengthAdjust="spacing" textLength="4.9" x="757.9535" y="76.5847">1</text><text fill="#000000" font-family="sans-serif" font-size="9.1" lengthAdjust="spacing" textLength="4.9" x="249.7557" y="333.9157">1</text><!--MD5=[4d73acb779e39fd68784b6a0a753428f]
reverse link FireTruck to State--><path codeLine="31" d="M788.2,654.094 C788.2,670.495 788.2,687.512 788.2,702.709 " fill="none" id="FireTruck-backto-State" style="stroke:#A80036;stroke-width:0.6999999999999998;"/><polygon fill="#FFFFFF" points="788.2,644.798,785.4,648.998,788.2,653.198,791,648.998,788.2,644.798" style="stroke:#A80036;stroke-width:0.6999999999999998;"/><!--MD5=[69821e658e7f7527e55b922214faa41f]
reverse link FireSquad to IEventStrategy--><path codeLine="32" d="M987.098,128.373 C1047.62,159.124 1119.097,195.447 1166.165,219.366 " fill="none" id="FireSquad-backto-IEventStrategy" style="stroke:#A80036;stroke-width:0.6999999999999998;"/><polygon fill="#FFFFFF" points="978.824,124.166,981.3003,128.5646,986.313,127.9705,983.8367,123.5719,978.824,124.166" style="stroke:#A80036;stroke-width:0.6999999999999998;"/><!--MD5=[77f79cbb0c190a17aeef545490ff0188]
reverse link FireSquad to IExecutionStrategy--><path codeLine="33" d="M897.092,143.976 C906.416,173.047 916.419,204.253 922.831,224.245 " fill="none" id="FireSquad-backto-IExecutionStrategy" style="stroke:#A80036;stroke-width:0.6999999999999998;"/><polygon fill="#FFFFFF" points="894.292,135.24,892.9047,140.0934,896.8511,143.2407,898.2385,138.3873,894.292,135.24" style="stroke:#A80036;stroke-width:0.6999999999999998;"/><!--MD5=[2e0d4b4f77d313f8d4d666ef0f1aad90]
@startuml TO_LAB_5

!include .\\puml-classes\Observer.puml
!include .\\puml-classes\CSVParser.puml
!include .\\puml-classes\ClosestFireTrucksIterator.puml
!include .\\puml-classes\ControlStation.puml
!include .\\puml-classes\FireSquad.puml
!include .\\puml-classes\FireStation.puml
!include .\\puml-classes\Incident.puml
!include .\\puml-classes\IIterator.puml
!include .\\puml-classes\FireTruck.puml
!include .\\puml-classes\State.puml
!include .\\puml-classes\EmergencyExecutionStrategy.puml
!include .\\puml-classes\EmergencyPredictionStrategy.puml
!include .\\puml-classes\IVector.puml
!include .\\puml-classes\Vector2.puml


class Program{}

Program - - CSVParser : "Uses"
Program - - Incident : "Creates"
Program *- - ControlStation

Incident o- - - Vector2 : "Has location"
ControlStation o- - FireStation
ControlStation o- - Incident
ControlStation - - ClosestFireTrucksIterator : "Use"
FireStation "1" o- - "many" FireTruck
FireSquad "1" o- - "many" FireTruck
FireSquad "1" o- - - "1" Incident
FireTruck o- - State
FireSquad o- - IEventStrategy
FireSquad o- - IExecutionStrategy

@enduml

@startuml TO_LAB_5

package Observer{
    interface IObserver{
       - SignalNewIncident() : List<FireTruck>
    }
    
    interface ISubject {
       - Attach(IObserver observer) : void
       - Notify() : List<FireTruck>
    }
}
class CSVParser {
    + {static} LoadStationsFromCSV() : List<FireStation>
}

package Iterator{
class ClosestFireTrucksIterator {
    - _fireTrucks : List<FireTruck>
    - _targetLocation : Vector2
    - _controlStation : List<ISubject>
    
    - RefreshIterator()
    + hasNext() : bool
    + getNext() : FireTruck
}
"IIterator`1" "<FireTruck>" <|- - ClosestFireTrucksIterator

}

package Observer{
    class ControlStation {
        - <<readonly>> _observators : List<IObserver>
        - <<readonly>> _incidents : List<Incident>
        + ControlStation()
        + RegisterIncident(incident:Incident) : void
        + RegisterFireStations(fireStations:List<FireStation>) : void
    }
}

ControlStation - -> ISubject
class FireSquad {
    - name : string
    - _strategy : IEventStrategy
    TrucksString() : string
    + FireSquad(task:Incident)
    + Step1PrepareTeam(fireTrucks:IIterator<FireTruck>) : void
    - <<async>> Step2GoToLocation() : Task
    - <<async>> Step3Investigate() : Task
    + <<override>> ToString() : string
    + <<async>> Go() : void
    - <<async>> Step4Return() : Task
}

package Observer{
    class FireStation {
        + Name : string <<get>>
        + FireStation(name:string, position:Vector2)
        + <<override>> ToString() : string
    }
}

FireStation - -> IObserver
class Incident {
    + Incident()
    + <<override>> ToString() : string
    + {static} FirstCharToUpper(input:string) : string
    - objectName : string[]
    - RandomName(type:EventType) : string
    - {static} RandomLocation() : Vector2
    + Name : String <<get>>
    + Type : EventType <<get>>
    + Real : bool <<get>>
    + Location : Vector2 <<get>>
}
enum EventType {
    PZ,
    MZ,
}
Incident +- - EventType

interface "IIterator`1"<out T> {
    hasNext() : bool
    getNext() : T
}



class FireTruck {
    - name : string
    + state : State
    + FireTruck(s:string)
    + <<override>> ToString() : string
    + TransitionTo(_state:State) : void
    + HandleFree() : void
    + HandleTravelTo() : void
    + HandleBusy() : void
    + HandleTravelReturn() : void
    + HandleWork() : void
}


package StateMachine{
abstract class State {
    # fireTruck : FireTruck
    + SetContext(newTruck:FireTruck) : void
    + <<virtual>> HandleFree() : void
    + <<virtual>> HandleTravelTo() : void
    + <<virtual>> HandleBusy() : void
    + <<virtual>> HandleTravelReturn() : void
    + <<virtual>> HandleWork() : void
}
class IdleState {
    + <<override>> HandleBusy() : void
}
class BusyState {
    + <<override>> HandleTravelTo() : void
}
class WorkingState {
    + <<override>> HandleTravelReturn() : void
}
class TravellingFromState {
    + <<override>> HandleFree() : void
}
class TravellingToState {
    + <<override>> HandleWork() : void
    + <<override>> HandleTravelReturn() : void
}
State <|-D- - IdleState
State <|-D- - BusyState
State <|-D- - WorkingState
State <|-D- - TravellingFromState
State <|-D- - TravellingToState


}
package ExecutionStrategy{

interface IExecutionStrategy {
    execute() : float
}
class Emergency {
    + execute() : float
}
class Fake {
    + execute() : float
}
IExecutionStrategy <|- - Emergency
IExecutionStrategy <|- - Fake

}

package EventStrategy{
abstract class IEventStrategy {
    + {abstract} Execute(fireTrucks:IIterator<FireTruck>) : List<FireTruck>
    # GetClosest(fireTrucks:IIterator<FireTruck>, count:int) : List<FireTruck>
}
class StrategyMz {
    + <<override>> Execute() : List<FireTruck>
}
class StrategyPz {
    + <<override>> Execute() : List<FireTruck>
}
IEventStrategy <|- - StrategyMz
IEventStrategy <|- - StrategyPz
}
interface IVector {
    abs() : double
    cdot(param:IVector) : double
    getComponents() : double[]
}
class Vector2 {
    + X : double <<get>>
    + Y : double <<get>>
    + Vector2(x:double, y:double)
    + abs() : double
    + cdot(param:IVector) : double
    + getComponents() : double[]
    + <<override>> ToString() : string
    + DistanceTo(position:Vector2) : double
}
IVector <|- - Vector2


class Program{}

Program - - CSVParser : "Uses"
Program - - Incident : "Creates"
Program *- - ControlStation

Incident o- - - Vector2 : "Has location"
ControlStation o- - FireStation
ControlStation o- - Incident
ControlStation - - ClosestFireTrucksIterator : "Use"
FireStation "1" o- - "many" FireTruck
FireSquad "1" o- - "many" FireTruck
FireSquad "1" o- - - "1" Incident
FireTruck o- - State
FireSquad o- - IEventStrategy
FireSquad o- - IExecutionStrategy

@enduml

PlantUML version 1.2021.11(Sat Oct 02 15:26:11 CEST 2021)
(GPL source distribution)
Java Runtime: OpenJDK Runtime Environment
JVM: Dynamic Code Evolution 64-Bit Server VM
Default Encoding: Cp1252
Language: en
Country: US
--></g></svg>