<?xml version="1.0" encoding="UTF-8" standalone="no"?><svg xmlns="http://www.w3.org/2000/svg" xmlns:xlink="http://www.w3.org/1999/xlink" contentScriptType="application/ecmascript" contentStyleType="text/css" height="2409.11px" preserveAspectRatio="none" style="width:3239px;height:2409px;background:#FFFFFF;" version="1.1" viewBox="0 0 3239 2409" width="3239.9px" zoomAndPan="magnify"><defs><filter height="300%" id="f7dfcbjfyp5vg" width="300%" x="-1" y="-1"><feGaussianBlur result="blurOut" stdDeviation="3.6199999999999997"/><feColorMatrix in="blurOut" result="blurOut2" type="matrix" values="0 0 0 0 0 0 0 0 0 0 0 0 0 0 0 0 0 0 .4 0"/><feOffset dx="7.239999999999999" dy="7.239999999999999" in="blurOut2" result="blurOut3"/><feBlend in="SourceGraphic" in2="blurOut3" mode="normal"/></filter></defs><g><!--MD5=[e7d6bffc1281e01b39a9257f28a19622]
class CSVParser--><rect codeLine="1" fill="#FEFECE" filter="url(#f7dfcbjfyp5vg)" height="111.923" id="CSVParser" style="stroke:#A80036;stroke-width:2.715;" width="419.92" x="12.67" y="540.285"/><ellipse cx="159.7325" cy="569.245" fill="#ADD1B2" rx="19.91" ry="19.91" style="stroke:#A80036;stroke-width:1.8099999999999998;"/><path d="M163.3525,562.91 Q163.7202,562.005 164.1444,561.5525 Q164.5686,561.1 165.0494,561.1 Q165.8978,561.1 166.4352,561.6091 Q166.9725,562.1181 166.9725,563.3059 L166.9725,566.1341 Q166.9725,567.3219 166.4634,567.8309 Q165.9544,568.34 165.1625,568.34 Q164.4555,568.34 164.003,568.0289 Q163.5505,567.7178 163.3525,566.8977 Q163.2677,566.332 162.9566,566.0209 Q162.3909,565.427 161.3728,565.0877 Q160.3547,564.72 159.3366,564.72 Q158.0639,564.72 156.9892,565.2291 Q155.9428,565.7381 155.1227,566.8694 Q154.3025,568.0006 154.3025,569.5561 L154.3025,571.2247 Q154.3025,573.0913 155.8297,574.3356 Q157.3569,575.58 160.0719,575.58 Q161.6839,575.58 162.8152,575.2123 Q163.4656,575.0144 164.2009,574.3639 Q164.6817,573.9962 164.9362,573.8831 Q165.1908,573.77 165.5019,573.77 Q166.0958,573.77 166.52,574.2508 Q166.9725,574.7033 166.9725,575.3538 Q166.9725,575.9759 166.3503,576.7113 Q165.4453,577.7859 164.003,578.3798 Q162.1081,579.2 159.7891,579.2 Q157.0741,579.2 154.8964,578.1253 Q153.143,577.2769 151.8986,575.4386 Q150.6825,573.6003 150.6825,571.4227 L150.6825,569.443 Q150.6825,567.1805 151.7572,565.2008 Q152.8602,563.2211 154.755,562.1747 Q156.6781,561.1 158.8275,561.1 Q160.1284,561.1 161.2597,561.5525 Q162.3909,562.005 163.3525,562.91 Z " fill="#000000"/><text fill="#000000" font-family="sans-serif" font-size="21.72" lengthAdjust="spacing" textLength="110.41" x="196.8375" y="578.1324">CSVParser</text><line style="stroke:#A80036;stroke-width:2.715;" x1="14.48" x2="430.78" y1="598.205" y2="598.205"/><line style="stroke:#A80036;stroke-width:2.715;" x1="14.48" x2="430.78" y1="612.685" y2="612.685"/><ellipse cx="32.58" cy="632.595" fill="#84BE84" rx="5.43" ry="5.43" style="stroke:#038048;stroke-width:1.8099999999999998;"/><text fill="#000000" font-family="sans-serif" font-size="19.91" lengthAdjust="spacing" text-decoration="underline" textLength="372.86" x="48.87" y="640.5933">LoadStationsFromCSV() : List&lt;FireStation&gt;</text><!--MD5=[81e2c545057382f0838e58852ba64b7a]
class ClosestFireTrucksIterator--><rect codeLine="1" fill="#FEFECE" filter="url(#f7dfcbjfyp5vg)" height="162.0091" id="ClosestFireTrucksIterator" style="stroke:#A80036;stroke-width:2.715;" width="318.56" x="443.45" y="930.34"/><ellipse cx="474.6725" cy="959.3" fill="#ADD1B2" rx="19.91" ry="19.91" style="stroke:#A80036;stroke-width:1.8099999999999998;"/><path d="M478.2925,952.965 Q478.6602,952.06 479.0844,951.6075 Q479.5086,951.155 479.9894,951.155 Q480.8378,951.155 481.3752,951.6641 Q481.9125,952.1731 481.9125,953.3609 L481.9125,956.1891 Q481.9125,957.3769 481.4034,957.8859 Q480.8944,958.395 480.1025,958.395 Q479.3955,958.395 478.943,958.0839 Q478.4905,957.7728 478.2925,956.9527 Q478.2077,956.387 477.8966,956.0759 Q477.3309,955.482 476.3128,955.1427 Q475.2947,954.775 474.2766,954.775 Q473.0039,954.775 471.9292,955.2841 Q470.8828,955.7931 470.0627,956.9244 Q469.2425,958.0556 469.2425,959.6111 L469.2425,961.2797 Q469.2425,963.1462 470.7697,964.3906 Q472.2969,965.635 475.0119,965.635 Q476.6239,965.635 477.7552,965.2673 Q478.4056,965.0694 479.1409,964.4189 Q479.6217,964.0512 479.8762,963.9381 Q480.1308,963.825 480.4419,963.825 Q481.0358,963.825 481.46,964.3058 Q481.9125,964.7583 481.9125,965.4087 Q481.9125,966.0309 481.2903,966.7662 Q480.3853,967.8409 478.943,968.4348 Q477.0481,969.255 474.7291,969.255 Q472.0141,969.255 469.8364,968.1803 Q468.083,967.3319 466.8386,965.4936 Q465.6225,963.6553 465.6225,961.4777 L465.6225,959.498 Q465.6225,957.2355 466.6972,955.2558 Q467.8002,953.2761 469.695,952.2297 Q471.6181,951.155 473.7675,951.155 Q475.0684,951.155 476.1997,951.6075 Q477.3309,952.06 478.2925,952.965 Z " fill="#000000"/><text fill="#000000" font-family="sans-serif" font-size="21.72" lengthAdjust="spacing" textLength="251.59" x="500.9175" y="968.1874">ClosestFireTrucksIterator</text><line style="stroke:#A80036;stroke-width:2.715;" x1="445.26" x2="760.2" y1="988.26" y2="988.26"/><rect fill="none" height="10.86" style="stroke:#C82930;stroke-width:1.8099999999999998;" width="10.86" x="457.93" y="1002.74"/><text fill="#000000" font-family="sans-serif" font-size="19.91" lengthAdjust="spacing" textLength="271.5" x="479.65" y="1016.1683">_fireStations : List&lt;FireStation&gt;</text><line style="stroke:#A80036;stroke-width:2.715;" x1="445.26" x2="760.2" y1="1027.783" y2="1027.783"/><ellipse cx="463.36" cy="1047.693" fill="#84BE84" rx="5.43" ry="5.43" style="stroke:#038048;stroke-width:1.8099999999999998;"/><text fill="#000000" font-family="sans-serif" font-size="19.91" lengthAdjust="spacing" textLength="139.37" x="479.65" y="1055.6913">hasNext() : bool</text><ellipse cx="463.36" cy="1072.7361" fill="#84BE84" rx="5.43" ry="5.43" style="stroke:#038048;stroke-width:1.8099999999999998;"/><text fill="#000000" font-family="sans-serif" font-size="19.91" lengthAdjust="spacing" textLength="179.19" x="479.65" y="1080.7344">getNext() : FireTruck</text><!--MD5=[2c7a3ce9c0939093a319e4d9d5a71ad6]
class IIterator`1--><rect codeLine="1" fill="#FEFECE" filter="url(#f7dfcbjfyp5vg)" height="136.9661" id="IIterator`1" style="stroke:#A80036;stroke-width:2.715;" width="211.77" x="496.845" y="527.615"/><ellipse cx="523.995" cy="556.575" fill="#B4A7E5" rx="19.91" ry="19.91" style="stroke:#A80036;stroke-width:1.8099999999999998;"/><path d="M525.805,551.145 L525.805,562.005 L529.425,562.005 L530.3017,562.005 L531.235,563.1362 L531.235,563.815 L531.235,564.4938 L530.3017,565.625 L529.425,565.625 L518.565,565.625 L517.6883,565.625 L516.755,564.4938 L516.755,563.815 L516.755,563.1362 L517.6883,562.005 L518.565,562.005 L522.185,562.005 L522.185,551.145 L518.565,551.145 L517.6883,551.145 L516.755,550.0138 L516.755,549.335 L516.755,548.6563 L517.6883,547.525 L518.565,547.525 L529.425,547.525 L530.3017,547.525 L531.235,548.6563 L531.235,549.335 L531.235,550.0138 L530.3017,551.145 L529.425,551.145 L525.805,551.145 Z " fill="#000000"/><text fill="#000000" font-family="sans-serif" font-size="21.72" font-style="italic" lengthAdjust="spacing" textLength="97.74" x="549.335" y="565.4624">IIterator`1</text><rect fill="#FFFFFF" height="30.9397" style="stroke:#000000;stroke-width:1.8099999999999998;stroke-dasharray:2.0,2.0;" width="52.49" x="661.555" y="522.185"/><text fill="#000000" font-family="sans-serif" font-size="21.72" font-style="italic" lengthAdjust="spacing" textLength="48.87" x="663.365" y="546.5422">out T</text><line style="stroke:#A80036;stroke-width:2.715;" x1="498.655" x2="706.805" y1="585.535" y2="585.535"/><line style="stroke:#A80036;stroke-width:2.715;" x1="498.655" x2="706.805" y1="600.015" y2="600.015"/><text fill="#000000" font-family="sans-serif" font-size="19.91" lengthAdjust="spacing" textLength="139.37" x="507.705" y="627.9233">hasNext() : bool</text><text fill="#000000" font-family="sans-serif" font-size="19.91" lengthAdjust="spacing" textLength="108.6" x="507.705" y="652.9663">getNext() : T</text><!--MD5=[a8538bef97d6952dd507d6ace6f991fb]
class ControlStation--><rect codeLine="1" fill="#FEFECE" filter="url(#f7dfcbjfyp5vg)" height="212.0952" id="ControlStation" style="stroke:#A80036;stroke-width:2.715;" width="539.38" x="772.87" y="490.51"/><ellipse cx="964.2775" cy="519.47" fill="#ADD1B2" rx="19.91" ry="19.91" style="stroke:#A80036;stroke-width:1.8099999999999998;"/><path d="M967.8975,513.135 Q968.2652,512.23 968.6894,511.7775 Q969.1136,511.325 969.5944,511.325 Q970.4428,511.325 970.9802,511.8341 Q971.5175,512.3431 971.5175,513.5309 L971.5175,516.3591 Q971.5175,517.5469 971.0084,518.0559 Q970.4994,518.565 969.7075,518.565 Q969.0005,518.565 968.548,518.2539 Q968.0955,517.9428 967.8975,517.1227 Q967.8127,516.557 967.5016,516.2459 Q966.9359,515.652 965.9178,515.3127 Q964.8997,514.945 963.8816,514.945 Q962.6089,514.945 961.5342,515.4541 Q960.4878,515.9631 959.6677,517.0944 Q958.8475,518.2256 958.8475,519.7811 L958.8475,521.4497 Q958.8475,523.3163 960.3747,524.5606 Q961.9019,525.805 964.6169,525.805 Q966.2289,525.805 967.3602,525.4373 Q968.0106,525.2394 968.7459,524.5889 Q969.2267,524.2212 969.4812,524.1081 Q969.7358,523.995 970.0469,523.995 Q970.6408,523.995 971.065,524.4758 Q971.5175,524.9283 971.5175,525.5787 Q971.5175,526.2009 970.8953,526.9363 Q969.9903,528.0109 968.548,528.6048 Q966.6531,529.425 964.3341,529.425 Q961.6191,529.425 959.4414,528.3503 Q957.688,527.5019 956.4436,525.6636 Q955.2275,523.8253 955.2275,521.6477 L955.2275,519.668 Q955.2275,517.4055 956.3022,515.4258 Q957.4052,513.4461 959.3,512.3997 Q961.2231,511.325 963.3725,511.325 Q964.6734,511.325 965.8047,511.7775 Q966.9359,512.23 967.8975,513.135 Z " fill="#000000"/><text fill="#000000" font-family="sans-serif" font-size="21.72" lengthAdjust="spacing" textLength="141.18" x="1001.3825" y="528.3574">ControlStation</text><line style="stroke:#A80036;stroke-width:2.715;" x1="774.68" x2="1310.44" y1="548.43" y2="548.43"/><rect fill="none" height="10.86" style="stroke:#C82930;stroke-width:1.8099999999999998;" width="10.86" x="787.35" y="562.91"/><text fill="#000000" font-family="sans-serif" font-size="19.91" lengthAdjust="spacing" textLength="381.91" x="809.07" y="576.3383">«readonly» _observators : List&lt;FireStation&gt;</text><rect fill="none" height="10.86" style="stroke:#C82930;stroke-width:1.8099999999999998;" width="10.86" x="787.35" y="587.953"/><text fill="#000000" font-family="sans-serif" font-size="19.91" lengthAdjust="spacing" textLength="327.61" x="809.07" y="601.3813">«readonly» _incidents : List&lt;Incident&gt;</text><line style="stroke:#A80036;stroke-width:2.715;" x1="774.68" x2="1310.44" y1="612.9961" y2="612.9961"/><ellipse cx="792.78" cy="632.9061" fill="#84BE84" rx="5.43" ry="5.43" style="stroke:#038048;stroke-width:1.8099999999999998;"/><text fill="#000000" font-family="sans-serif" font-size="19.91" lengthAdjust="spacing" textLength="135.75" x="809.07" y="640.9044">ControlStation()</text><ellipse cx="792.78" cy="657.9491" fill="#84BE84" rx="5.43" ry="5.43" style="stroke:#038048;stroke-width:1.8099999999999998;"/><text fill="#000000" font-family="sans-serif" font-size="19.91" lengthAdjust="spacing" textLength="345.71" x="809.07" y="665.9474">RegisterIncident(incident:Incident) : void</text><ellipse cx="792.78" cy="682.9922" fill="#84BE84" rx="5.43" ry="5.43" style="stroke:#038048;stroke-width:1.8099999999999998;"/><text fill="#000000" font-family="sans-serif" font-size="19.91" lengthAdjust="spacing" textLength="492.32" x="809.07" y="690.9905">RegisterFireStations(fireStations:List&lt;FireStation&gt;) : void</text><!--MD5=[325e3276c1765c128367154cd6e98f93]
class FireSquad--><rect codeLine="1" fill="#FEFECE" filter="url(#f7dfcbjfyp5vg)" height="337.3105" id="FireSquad" style="stroke:#A80036;stroke-width:2.715;" width="543" x="2184.67" y="12.67"/><ellipse cx="2396.8925" cy="41.63" fill="#ADD1B2" rx="19.91" ry="19.91" style="stroke:#A80036;stroke-width:1.8099999999999998;"/><path d="M2400.5125,35.295 Q2400.8802,34.39 2401.3044,33.9375 Q2401.7286,33.485 2402.2094,33.485 Q2403.0578,33.485 2403.5952,33.9941 Q2404.1325,34.5031 2404.1325,35.6909 L2404.1325,38.5191 Q2404.1325,39.7069 2403.6234,40.2159 Q2403.1144,40.725 2402.3225,40.725 Q2401.6155,40.725 2401.163,40.4139 Q2400.7105,40.1028 2400.5125,39.2827 Q2400.4277,38.717 2400.1166,38.4059 Q2399.5509,37.812 2398.5328,37.4727 Q2397.5147,37.105 2396.4966,37.105 Q2395.2239,37.105 2394.1492,37.6141 Q2393.1028,38.1231 2392.2827,39.2544 Q2391.4625,40.3856 2391.4625,41.9411 L2391.4625,43.6097 Q2391.4625,45.4762 2392.9897,46.7206 Q2394.5169,47.965 2397.2319,47.965 Q2398.8439,47.965 2399.9752,47.5973 Q2400.6256,47.3994 2401.3609,46.7489 Q2401.8417,46.3812 2402.0962,46.2681 Q2402.3508,46.155 2402.6619,46.155 Q2403.2558,46.155 2403.68,46.6358 Q2404.1325,47.0883 2404.1325,47.7387 Q2404.1325,48.3609 2403.5103,49.0963 Q2402.6053,50.1709 2401.163,50.7648 Q2399.2681,51.585 2396.9491,51.585 Q2394.2341,51.585 2392.0564,50.5103 Q2390.303,49.6619 2389.0586,47.8236 Q2387.8425,45.9853 2387.8425,43.8077 L2387.8425,41.828 Q2387.8425,39.5655 2388.9172,37.5858 Q2390.0202,35.6061 2391.915,34.5597 Q2393.8381,33.485 2395.9875,33.485 Q2397.2884,33.485 2398.4197,33.9375 Q2399.5509,34.39 2400.5125,35.295 Z " fill="#000000"/><text fill="#000000" font-family="sans-serif" font-size="21.72" lengthAdjust="spacing" textLength="103.17" x="2433.9975" y="50.5174">FireSquad</text><line style="stroke:#A80036;stroke-width:2.715;" x1="2186.48" x2="2725.86" y1="70.59" y2="70.59"/><rect fill="none" height="10.86" style="stroke:#C82930;stroke-width:1.8099999999999998;" width="10.86" x="2199.15" y="85.07"/><text fill="#000000" font-family="sans-serif" font-size="19.91" lengthAdjust="spacing" textLength="112.22" x="2220.87" y="98.4983">name : string</text><rect fill="none" height="10.86" style="stroke:#C82930;stroke-width:1.8099999999999998;" width="10.86" x="2199.15" y="110.113"/><text fill="#000000" font-family="sans-serif" font-size="19.91" lengthAdjust="spacing" textLength="226.25" x="2220.87" y="123.5413">_strategy : IEventStrategy</text><line style="stroke:#A80036;stroke-width:2.715;" x1="2186.48" x2="2725.86" y1="135.1561" y2="135.1561"/><text fill="#000000" font-family="sans-serif" font-size="19.91" lengthAdjust="spacing" textLength="190.05" x="2220.87" y="163.0644">TrucksString() : string</text><ellipse cx="2204.58" cy="180.1091" fill="#84BE84" rx="5.43" ry="5.43" style="stroke:#038048;stroke-width:1.8099999999999998;"/><text fill="#000000" font-family="sans-serif" font-size="19.91" lengthAdjust="spacing" textLength="211.77" x="2220.87" y="188.1074">FireSquad(task:Incident)</text><ellipse cx="2204.58" cy="205.1522" fill="#84BE84" rx="5.43" ry="5.43" style="stroke:#038048;stroke-width:1.8099999999999998;"/><text fill="#000000" font-family="sans-serif" font-size="19.91" lengthAdjust="spacing" textLength="495.94" x="2220.87" y="213.1505">Step1PrepareTeam(fireTrucks:IIterator&lt;FireTruck&gt;) : void</text><rect fill="#F24D5C" height="10.86" style="stroke:#C82930;stroke-width:1.8099999999999998;" width="10.86" x="2199.15" y="224.7652"/><text fill="#000000" font-family="sans-serif" font-size="19.91" lengthAdjust="spacing" textLength="325.8" x="2220.87" y="238.1935">«async» Step2GoToLocation() : Task</text><rect fill="#F24D5C" height="10.86" style="stroke:#C82930;stroke-width:1.8099999999999998;" width="10.86" x="2199.15" y="249.8083"/><text fill="#000000" font-family="sans-serif" font-size="19.91" lengthAdjust="spacing" textLength="298.65" x="2220.87" y="263.2366">«async» Step3Investigate() : Task</text><ellipse cx="2204.58" cy="280.2813" fill="#84BE84" rx="5.43" ry="5.43" style="stroke:#038048;stroke-width:1.8099999999999998;"/><text fill="#000000" font-family="sans-serif" font-size="19.91" lengthAdjust="spacing" textLength="251.59" x="2220.87" y="288.2796">«override» ToString() : string</text><ellipse cx="2204.58" cy="305.3244" fill="#84BE84" rx="5.43" ry="5.43" style="stroke:#038048;stroke-width:1.8099999999999998;"/><text fill="#000000" font-family="sans-serif" font-size="19.91" lengthAdjust="spacing" textLength="173.76" x="2220.87" y="313.3227">«async» Go() : void</text><rect fill="#F24D5C" height="10.86" style="stroke:#C82930;stroke-width:1.8099999999999998;" width="10.86" x="2199.15" y="324.9374"/><text fill="#000000" font-family="sans-serif" font-size="19.91" lengthAdjust="spacing" textLength="262.45" x="2220.87" y="338.3657">«async» Step4Return() : Task</text><!--MD5=[20b905dff0786ca8d47f0c935b848fc7]
class FireStation--><rect codeLine="1" fill="#FEFECE" filter="url(#f7dfcbjfyp5vg)" height="162.0091" id="FireStation" style="stroke:#A80036;stroke-width:2.715;" width="409.06" x="825.36" y="930.34"/><ellipse cx="968.8025" cy="959.3" fill="#ADD1B2" rx="19.91" ry="19.91" style="stroke:#A80036;stroke-width:1.8099999999999998;"/><path d="M972.4225,952.965 Q972.7902,952.06 973.2144,951.6075 Q973.6386,951.155 974.1194,951.155 Q974.9678,951.155 975.5052,951.6641 Q976.0425,952.1731 976.0425,953.3609 L976.0425,956.1891 Q976.0425,957.3769 975.5334,957.8859 Q975.0244,958.395 974.2325,958.395 Q973.5255,958.395 973.073,958.0839 Q972.6205,957.7728 972.4225,956.9527 Q972.3377,956.387 972.0266,956.0759 Q971.4609,955.482 970.4428,955.1427 Q969.4247,954.775 968.4066,954.775 Q967.1339,954.775 966.0592,955.2841 Q965.0128,955.7931 964.1927,956.9244 Q963.3725,958.0556 963.3725,959.6111 L963.3725,961.2797 Q963.3725,963.1462 964.8997,964.3906 Q966.4269,965.635 969.1419,965.635 Q970.7539,965.635 971.8852,965.2673 Q972.5356,965.0694 973.2709,964.4189 Q973.7517,964.0512 974.0062,963.9381 Q974.2608,963.825 974.5719,963.825 Q975.1658,963.825 975.59,964.3058 Q976.0425,964.7583 976.0425,965.4087 Q976.0425,966.0309 975.4203,966.7662 Q974.5153,967.8409 973.073,968.4348 Q971.1781,969.255 968.8591,969.255 Q966.1441,969.255 963.9664,968.1803 Q962.213,967.3319 960.9686,965.4936 Q959.7525,963.6553 959.7525,961.4777 L959.7525,959.498 Q959.7525,957.2355 960.8272,955.2558 Q961.9302,953.2761 963.825,952.2297 Q965.7481,951.155 967.8975,951.155 Q969.1984,951.155 970.3297,951.6075 Q971.4609,952.06 972.4225,952.965 Z " fill="#000000"/><text fill="#000000" font-family="sans-serif" font-size="21.72" lengthAdjust="spacing" textLength="106.79" x="1005.9075" y="968.1874">FireStation</text><line style="stroke:#A80036;stroke-width:2.715;" x1="827.17" x2="1232.61" y1="988.26" y2="988.26"/><ellipse cx="845.27" cy="1008.17" rx="5.43" ry="5.43" style="stroke:#038048;stroke-width:1.8099999999999998;fill:none;"/><text fill="#000000" font-family="sans-serif" font-size="19.91" lengthAdjust="spacing" textLength="168.33" x="861.56" y="1016.1683">Name : string «get»</text><line style="stroke:#A80036;stroke-width:2.715;" x1="827.17" x2="1232.61" y1="1027.783" y2="1027.783"/><ellipse cx="845.27" cy="1047.693" fill="#84BE84" rx="5.43" ry="5.43" style="stroke:#038048;stroke-width:1.8099999999999998;"/><text fill="#000000" font-family="sans-serif" font-size="19.91" lengthAdjust="spacing" textLength="362" x="861.56" y="1055.6913">FireStation(name:string, position:Vector2)</text><ellipse cx="845.27" cy="1072.7361" fill="#84BE84" rx="5.43" ry="5.43" style="stroke:#038048;stroke-width:1.8099999999999998;"/><text fill="#000000" font-family="sans-serif" font-size="19.91" lengthAdjust="spacing" textLength="251.59" x="861.56" y="1080.7344">«override» ToString() : string</text><!--MD5=[a2a32eb8740a34a1508bfb05a6833e01]
class Incident--><rect codeLine="1" fill="#FEFECE" filter="url(#f7dfcbjfyp5vg)" height="337.3105" id="Incident" style="stroke:#A80036;stroke-width:2.715;" width="381.91" x="1298.675" y="843.46"/><ellipse cx="1443.0225" cy="872.42" fill="#ADD1B2" rx="19.91" ry="19.91" style="stroke:#A80036;stroke-width:1.8099999999999998;"/><path d="M1446.6425,866.085 Q1447.0102,865.18 1447.4344,864.7275 Q1447.8586,864.275 1448.3394,864.275 Q1449.1878,864.275 1449.7252,864.7841 Q1450.2625,865.2931 1450.2625,866.4809 L1450.2625,869.3091 Q1450.2625,870.4969 1449.7534,871.0059 Q1449.2444,871.515 1448.4525,871.515 Q1447.7455,871.515 1447.293,871.2039 Q1446.8405,870.8928 1446.6425,870.0727 Q1446.5577,869.507 1446.2466,869.1959 Q1445.6809,868.602 1444.6628,868.2627 Q1443.6447,867.895 1442.6266,867.895 Q1441.3539,867.895 1440.2792,868.4041 Q1439.2328,868.9131 1438.4127,870.0444 Q1437.5925,871.1756 1437.5925,872.7311 L1437.5925,874.3997 Q1437.5925,876.2662 1439.1197,877.5106 Q1440.6469,878.755 1443.3619,878.755 Q1444.9739,878.755 1446.1052,878.3873 Q1446.7556,878.1894 1447.4909,877.5389 Q1447.9717,877.1712 1448.2263,877.0581 Q1448.4808,876.945 1448.7919,876.945 Q1449.3858,876.945 1449.81,877.4258 Q1450.2625,877.8783 1450.2625,878.5288 Q1450.2625,879.1509 1449.6403,879.8862 Q1448.7353,880.9609 1447.293,881.5548 Q1445.3981,882.375 1443.0791,882.375 Q1440.3641,882.375 1438.1864,881.3003 Q1436.433,880.4519 1435.1886,878.6136 Q1433.9725,876.7753 1433.9725,874.5977 L1433.9725,872.618 Q1433.9725,870.3555 1435.0472,868.3758 Q1436.1502,866.3961 1438.045,865.3497 Q1439.9681,864.275 1442.1175,864.275 Q1443.4184,864.275 1444.5497,864.7275 Q1445.6809,865.18 1446.6425,866.085 Z " fill="#000000"/><text fill="#000000" font-family="sans-serif" font-size="21.72" lengthAdjust="spacing" textLength="77.83" x="1480.1275" y="881.3074">Incident</text><line style="stroke:#A80036;stroke-width:2.715;" x1="1300.485" x2="1678.775" y1="901.38" y2="901.38"/><rect fill="none" height="10.86" style="stroke:#C82930;stroke-width:1.8099999999999998;" width="10.86" x="1313.155" y="915.86"/><text fill="#000000" font-family="sans-serif" font-size="19.91" lengthAdjust="spacing" textLength="177.38" x="1334.875" y="929.2883">objectName : string[]</text><ellipse cx="1318.585" cy="946.333" rx="5.43" ry="5.43" style="stroke:#038048;stroke-width:1.8099999999999998;fill:none;"/><text fill="#000000" font-family="sans-serif" font-size="19.91" lengthAdjust="spacing" textLength="170.14" x="1334.875" y="954.3313">Name : String «get»</text><ellipse cx="1318.585" cy="971.3761" rx="5.43" ry="5.43" style="stroke:#038048;stroke-width:1.8099999999999998;fill:none;"/><text fill="#000000" font-family="sans-serif" font-size="19.91" lengthAdjust="spacing" textLength="206.34" x="1334.875" y="979.3744">Type : EventType «get»</text><ellipse cx="1318.585" cy="996.4191" rx="5.43" ry="5.43" style="stroke:#038048;stroke-width:1.8099999999999998;fill:none;"/><text fill="#000000" font-family="sans-serif" font-size="19.91" lengthAdjust="spacing" textLength="144.8" x="1334.875" y="1004.4174">Real : bool «get»</text><ellipse cx="1318.585" cy="1021.4622" rx="5.43" ry="5.43" style="stroke:#038048;stroke-width:1.8099999999999998;fill:none;"/><text fill="#000000" font-family="sans-serif" font-size="19.91" lengthAdjust="spacing" textLength="215.39" x="1334.875" y="1029.4605">Location : Vector2 «get»</text><line style="stroke:#A80036;stroke-width:2.715;" x1="1300.485" x2="1678.775" y1="1041.0752" y2="1041.0752"/><ellipse cx="1318.585" cy="1060.9852" fill="#84BE84" rx="5.43" ry="5.43" style="stroke:#038048;stroke-width:1.8099999999999998;"/><text fill="#000000" font-family="sans-serif" font-size="19.91" lengthAdjust="spacing" textLength="81.45" x="1334.875" y="1068.9835">Incident()</text><ellipse cx="1318.585" cy="1086.0283" fill="#84BE84" rx="5.43" ry="5.43" style="stroke:#038048;stroke-width:1.8099999999999998;"/><text fill="#000000" font-family="sans-serif" font-size="19.91" lengthAdjust="spacing" textLength="251.59" x="1334.875" y="1094.0266">«override» ToString() : string</text><ellipse cx="1318.585" cy="1111.0713" fill="#84BE84" rx="5.43" ry="5.43" style="stroke:#038048;stroke-width:1.8099999999999998;"/><text fill="#000000" font-family="sans-serif" font-size="19.91" lengthAdjust="spacing" text-decoration="underline" textLength="329.42" x="1334.875" y="1119.0696">FirstCharToUpper(input:string) : string</text><rect fill="#F24D5C" height="10.86" style="stroke:#C82930;stroke-width:1.8099999999999998;" width="10.86" x="1313.155" y="1130.6844"/><text fill="#000000" font-family="sans-serif" font-size="19.91" lengthAdjust="spacing" textLength="334.85" x="1334.875" y="1144.1127">RandomName(type:EventType) : string</text><rect fill="#F24D5C" height="10.86" style="stroke:#C82930;stroke-width:1.8099999999999998;" width="10.86" x="1313.155" y="1155.7274"/><text fill="#000000" font-family="sans-serif" font-size="19.91" lengthAdjust="spacing" text-decoration="underline" textLength="246.16" x="1334.875" y="1169.1557">RandomLocation() : Vector2</text><!--MD5=[51255159981deef4d2967e1585ccf960]
class EventType--><rect codeLine="13" fill="#FEFECE" filter="url(#f7dfcbjfyp5vg)" height="136.9661" id="EventType" style="stroke:#A80036;stroke-width:2.715;" width="159.28" x="1333.97" y="1390.08"/><ellipse cx="1361.12" cy="1419.04" fill="#EB937F" rx="19.91" ry="19.91" style="stroke:#A80036;stroke-width:1.8099999999999998;"/><path d="M1358.405,1420.85 L1358.405,1424.47 L1365.645,1424.47 L1365.645,1422.66 L1365.645,1421.7833 L1366.7763,1420.85 L1367.455,1420.85 L1368.1338,1420.85 L1369.265,1421.7833 L1369.265,1422.66 L1369.265,1428.09 L1354.785,1428.09 L1353.9083,1428.09 L1352.975,1426.9587 L1352.975,1426.28 L1352.975,1425.6013 L1353.9083,1424.47 L1354.785,1424.47 L1354.785,1424.47 L1354.785,1413.61 L1354.785,1413.61 L1353.9083,1413.61 L1352.975,1412.4787 L1352.975,1411.8 L1352.975,1411.1213 L1353.9083,1409.99 L1354.785,1409.99 L1369.265,1409.99 L1369.265,1415.42 L1369.265,1416.2967 L1368.1338,1417.23 L1367.455,1417.23 L1366.7763,1417.23 L1365.645,1416.2967 L1365.645,1415.42 L1365.645,1413.61 L1358.405,1413.61 L1358.405,1417.23 L1360.215,1417.23 L1360.215,1416.3533 L1360.215,1416.3533 L1361.3462,1415.42 L1362.025,1415.42 L1362.7038,1415.42 L1363.835,1416.3533 L1363.835,1417.23 L1363.835,1420.85 L1363.835,1421.7267 L1362.7038,1422.66 L1362.7038,1422.66 L1362.025,1422.66 L1361.3462,1422.66 L1360.215,1421.7267 L1360.215,1421.7267 L1360.215,1420.85 L1358.405,1420.85 Z " fill="#000000"/><text fill="#000000" font-family="sans-serif" font-size="21.72" lengthAdjust="spacing" textLength="101.36" x="1386.46" y="1427.9274">EventType</text><line style="stroke:#A80036;stroke-width:2.715;" x1="1335.78" x2="1491.44" y1="1448" y2="1448"/><text fill="#000000" font-family="sans-serif" font-size="19.91" lengthAdjust="spacing" textLength="28.96" x="1344.83" y="1475.9083">PZ,</text><text fill="#000000" font-family="sans-serif" font-size="19.91" lengthAdjust="spacing" textLength="32.58" x="1344.83" y="1500.9513">MZ,</text><line style="stroke:#A80036;stroke-width:2.715;" x1="1335.78" x2="1491.44" y1="1512.5661" y2="1512.5661"/><!--MD5=[2c7decc1f15996e793159cdad8298c6a]
class FireTruck--><rect codeLine="1" fill="#FEFECE" filter="url(#f7dfcbjfyp5vg)" height="337.3105" id="FireTruck" style="stroke:#A80036;stroke-width:2.715;" width="325.8" x="924.91" y="1290.53"/><ellipse cx="1033.9625" cy="1319.49" fill="#ADD1B2" rx="19.91" ry="19.91" style="stroke:#A80036;stroke-width:1.8099999999999998;"/><path d="M1037.5825,1313.155 Q1037.9502,1312.25 1038.3744,1311.7975 Q1038.7986,1311.345 1039.2794,1311.345 Q1040.1278,1311.345 1040.6652,1311.8541 Q1041.2025,1312.3631 1041.2025,1313.5509 L1041.2025,1316.3791 Q1041.2025,1317.5669 1040.6934,1318.0759 Q1040.1844,1318.585 1039.3925,1318.585 Q1038.6855,1318.585 1038.233,1318.2739 Q1037.7805,1317.9628 1037.5825,1317.1427 Q1037.4977,1316.577 1037.1866,1316.2659 Q1036.6209,1315.672 1035.6028,1315.3327 Q1034.5847,1314.965 1033.5666,1314.965 Q1032.2939,1314.965 1031.2192,1315.4741 Q1030.1728,1315.9831 1029.3527,1317.1144 Q1028.5325,1318.2456 1028.5325,1319.8011 L1028.5325,1321.4697 Q1028.5325,1323.3362 1030.0597,1324.5806 Q1031.5869,1325.825 1034.3019,1325.825 Q1035.9139,1325.825 1037.0452,1325.4573 Q1037.6956,1325.2594 1038.4309,1324.6089 Q1038.9117,1324.2412 1039.1663,1324.1281 Q1039.4208,1324.015 1039.7319,1324.015 Q1040.3258,1324.015 1040.75,1324.4958 Q1041.2025,1324.9483 1041.2025,1325.5987 Q1041.2025,1326.2209 1040.5803,1326.9563 Q1039.6753,1328.0309 1038.233,1328.6248 Q1036.3381,1329.445 1034.0191,1329.445 Q1031.3041,1329.445 1029.1264,1328.3703 Q1027.373,1327.5219 1026.1286,1325.6836 Q1024.9125,1323.8453 1024.9125,1321.6677 L1024.9125,1319.688 Q1024.9125,1317.4255 1025.9872,1315.4458 Q1027.0902,1313.4661 1028.985,1312.4197 Q1030.9081,1311.345 1033.0575,1311.345 Q1034.3584,1311.345 1035.4897,1311.7975 Q1036.6209,1312.25 1037.5825,1313.155 Z " fill="#000000"/><text fill="#000000" font-family="sans-serif" font-size="21.72" lengthAdjust="spacing" textLength="92.31" x="1071.0675" y="1328.3774">FireTruck</text><line style="stroke:#A80036;stroke-width:2.715;" x1="926.72" x2="1248.9" y1="1348.45" y2="1348.45"/><rect fill="none" height="10.86" style="stroke:#C82930;stroke-width:1.8099999999999998;" width="10.86" x="939.39" y="1362.93"/><text fill="#000000" font-family="sans-serif" font-size="19.91" lengthAdjust="spacing" textLength="112.22" x="961.11" y="1376.3583">name : string</text><ellipse cx="944.82" cy="1393.403" rx="5.43" ry="5.43" style="stroke:#038048;stroke-width:1.8099999999999998;fill:none;"/><text fill="#000000" font-family="sans-serif" font-size="19.91" lengthAdjust="spacing" textLength="104.98" x="961.11" y="1401.4013">state : State</text><line style="stroke:#A80036;stroke-width:2.715;" x1="926.72" x2="1248.9" y1="1413.0161" y2="1413.0161"/><ellipse cx="944.82" cy="1432.9261" fill="#84BE84" rx="5.43" ry="5.43" style="stroke:#038048;stroke-width:1.8099999999999998;"/><text fill="#000000" font-family="sans-serif" font-size="19.91" lengthAdjust="spacing" textLength="161.09" x="961.11" y="1440.9244">FireTruck(s:string)</text><ellipse cx="944.82" cy="1457.9691" fill="#84BE84" rx="5.43" ry="5.43" style="stroke:#038048;stroke-width:1.8099999999999998;"/><text fill="#000000" font-family="sans-serif" font-size="19.91" lengthAdjust="spacing" textLength="251.59" x="961.11" y="1465.9674">«override» ToString() : string</text><ellipse cx="944.82" cy="1483.0122" fill="#84BE84" rx="5.43" ry="5.43" style="stroke:#038048;stroke-width:1.8099999999999998;"/><text fill="#000000" font-family="sans-serif" font-size="19.91" lengthAdjust="spacing" textLength="278.74" x="961.11" y="1491.0105">TransitionTo(_state:State) : void</text><ellipse cx="944.82" cy="1508.0552" fill="#84BE84" rx="5.43" ry="5.43" style="stroke:#038048;stroke-width:1.8099999999999998;"/><text fill="#000000" font-family="sans-serif" font-size="19.91" lengthAdjust="spacing" textLength="166.52" x="961.11" y="1516.0535">HandleFree() : void</text><ellipse cx="944.82" cy="1533.0983" fill="#84BE84" rx="5.43" ry="5.43" style="stroke:#038048;stroke-width:1.8099999999999998;"/><text fill="#000000" font-family="sans-serif" font-size="19.91" lengthAdjust="spacing" textLength="202.72" x="961.11" y="1541.0966">HandleTravelTo() : void</text><ellipse cx="944.82" cy="1558.1413" fill="#84BE84" rx="5.43" ry="5.43" style="stroke:#038048;stroke-width:1.8099999999999998;"/><text fill="#000000" font-family="sans-serif" font-size="19.91" lengthAdjust="spacing" textLength="171.95" x="961.11" y="1566.1396">HandleBusy() : void</text><ellipse cx="944.82" cy="1583.1844" fill="#84BE84" rx="5.43" ry="5.43" style="stroke:#038048;stroke-width:1.8099999999999998;"/><text fill="#000000" font-family="sans-serif" font-size="19.91" lengthAdjust="spacing" textLength="238.92" x="961.11" y="1591.1827">HandleTravelReturn() : void</text><ellipse cx="944.82" cy="1608.2274" fill="#84BE84" rx="5.43" ry="5.43" style="stroke:#038048;stroke-width:1.8099999999999998;"/><text fill="#000000" font-family="sans-serif" font-size="19.91" lengthAdjust="spacing" textLength="171.95" x="961.11" y="1616.2257">HandleWork() : void</text><!--MD5=[60d6b92408f98aed8df94d5c6e04aa63]
class State--><rect codeLine="1" fill="#FEFECE" filter="url(#f7dfcbjfyp5vg)" height="262.1813" id="State" style="stroke:#A80036;stroke-width:2.715;" width="385.53" x="895.045" y="1750.27"/><ellipse cx="1054.7775" cy="1779.23" fill="#A9DCDF" rx="19.91" ry="19.91" style="stroke:#A80036;stroke-width:1.8099999999999998;"/><path d="M1057.945,1781.945 L1051.9777,1781.945 L1051.1858,1783.755 L1051.1858,1783.755 L1052.0342,1783.755 L1052.9675,1784.8862 L1052.9675,1785.565 L1052.9675,1786.2437 L1052.0342,1787.375 L1051.1858,1787.375 L1047.7637,1787.375 L1046.6608,1787.375 L1045.7275,1786.2437 L1045.7275,1785.565 L1045.7275,1784.8862 L1046.6608,1783.755 L1047.7637,1783.755 L1051.9494,1772.895 L1050.3656,1772.895 L1048.4708,1772.895 L1047.5375,1771.7637 L1047.5375,1771.085 L1047.5375,1770.4062 L1048.4708,1769.275 L1050.3656,1769.275 L1057.0117,1769.275 L1061.8761,1783.755 L1062.8942,1783.755 L1062.8942,1783.755 L1063.8275,1784.8862 L1063.8275,1785.565 L1063.8275,1786.2437 L1062.8942,1787.375 L1061.8761,1787.375 L1058.4541,1787.375 L1057.5208,1787.375 L1056.5875,1786.2437 L1056.5875,1785.565 L1056.5875,1784.8862 L1057.5208,1783.755 L1058.4541,1783.755 L1058.4541,1783.755 L1057.945,1781.945 Z M1056.9552,1778.325 L1054.7775,1771.8486 L1052.9109,1778.325 L1056.9552,1778.325 Z " fill="#000000"/><text fill="#000000" font-family="sans-serif" font-size="21.72" font-style="italic" lengthAdjust="spacing" textLength="50.68" x="1091.8825" y="1788.1174">State</text><line style="stroke:#A80036;stroke-width:2.715;" x1="896.855" x2="1278.765" y1="1808.19" y2="1808.19"/><polygon fill="none" points="914.955,1819.05,922.195,1826.29,914.955,1833.53,907.715,1826.29" style="stroke:#B38D22;stroke-width:1.8099999999999998;"/><text fill="#000000" font-family="sans-serif" font-size="19.91" lengthAdjust="spacing" textLength="175.57" x="931.245" y="1836.0983">fireTruck : FireTruck</text><line style="stroke:#A80036;stroke-width:2.715;" x1="896.855" x2="1278.765" y1="1847.713" y2="1847.713"/><ellipse cx="914.955" cy="1867.623" fill="#84BE84" rx="5.43" ry="5.43" style="stroke:#038048;stroke-width:1.8099999999999998;"/><text fill="#000000" font-family="sans-serif" font-size="19.91" lengthAdjust="spacing" textLength="338.47" x="931.245" y="1875.6213">SetContext(newTruck:FireTruck) : void</text><ellipse cx="914.955" cy="1892.6661" fill="#84BE84" rx="5.43" ry="5.43" style="stroke:#038048;stroke-width:1.8099999999999998;"/><text fill="#000000" font-family="sans-serif" font-size="19.91" lengthAdjust="spacing" textLength="246.16" x="931.245" y="1900.6644">«virtual» HandleFree() : void</text><ellipse cx="914.955" cy="1917.7091" fill="#84BE84" rx="5.43" ry="5.43" style="stroke:#038048;stroke-width:1.8099999999999998;"/><text fill="#000000" font-family="sans-serif" font-size="19.91" lengthAdjust="spacing" textLength="282.36" x="931.245" y="1925.7074">«virtual» HandleTravelTo() : void</text><ellipse cx="914.955" cy="1942.7522" fill="#84BE84" rx="5.43" ry="5.43" style="stroke:#038048;stroke-width:1.8099999999999998;"/><text fill="#000000" font-family="sans-serif" font-size="19.91" lengthAdjust="spacing" textLength="251.59" x="931.245" y="1950.7505">«virtual» HandleBusy() : void</text><ellipse cx="914.955" cy="1967.7952" fill="#84BE84" rx="5.43" ry="5.43" style="stroke:#038048;stroke-width:1.8099999999999998;"/><text fill="#000000" font-family="sans-serif" font-size="19.91" lengthAdjust="spacing" textLength="318.56" x="931.245" y="1975.7935">«virtual» HandleTravelReturn() : void</text><ellipse cx="914.955" cy="1992.8383" fill="#84BE84" rx="5.43" ry="5.43" style="stroke:#038048;stroke-width:1.8099999999999998;"/><text fill="#000000" font-family="sans-serif" font-size="19.91" lengthAdjust="spacing" textLength="251.59" x="931.245" y="2000.8366">«virtual» HandleWork() : void</text><!--MD5=[49c293e7b586f80bbf4013178c064b81]
class IdleState--><rect codeLine="10" fill="#FEFECE" filter="url(#f7dfcbjfyp5vg)" height="111.923" id="IdleState" style="stroke:#A80036;stroke-width:2.715;" width="318.56" x="99.55" y="2260.69"/><ellipse cx="207.6975" cy="2289.65" fill="#ADD1B2" rx="19.91" ry="19.91" style="stroke:#A80036;stroke-width:1.8099999999999998;"/><path d="M211.3175,2283.315 Q211.6852,2282.41 212.1094,2281.9575 Q212.5336,2281.505 213.0144,2281.505 Q213.8628,2281.505 214.4002,2282.0141 Q214.9375,2282.5231 214.9375,2283.7109 L214.9375,2286.5391 Q214.9375,2287.7269 214.4284,2288.2359 Q213.9194,2288.745 213.1275,2288.745 Q212.4205,2288.745 211.968,2288.4339 Q211.5155,2288.1228 211.3175,2287.3027 Q211.2327,2286.737 210.9216,2286.4259 Q210.3559,2285.832 209.3378,2285.4927 Q208.3197,2285.125 207.3016,2285.125 Q206.0289,2285.125 204.9542,2285.6341 Q203.9078,2286.1431 203.0877,2287.2744 Q202.2675,2288.4056 202.2675,2289.9611 L202.2675,2291.6297 Q202.2675,2293.4962 203.7947,2294.7406 Q205.3219,2295.985 208.0369,2295.985 Q209.6489,2295.985 210.7802,2295.6173 Q211.4306,2295.4194 212.1659,2294.7689 Q212.6467,2294.4013 212.9012,2294.2881 Q213.1558,2294.175 213.4669,2294.175 Q214.0608,2294.175 214.485,2294.6558 Q214.9375,2295.1083 214.9375,2295.7588 Q214.9375,2296.3809 214.3153,2297.1162 Q213.4103,2298.1909 211.968,2298.7848 Q210.0731,2299.605 207.7541,2299.605 Q205.0391,2299.605 202.8614,2298.5303 Q201.108,2297.6819 199.8636,2295.8436 Q198.6475,2294.0053 198.6475,2291.8277 L198.6475,2289.848 Q198.6475,2287.5855 199.7222,2285.6058 Q200.8252,2283.6261 202.72,2282.5797 Q204.6431,2281.505 206.7925,2281.505 Q208.0934,2281.505 209.2247,2281.9575 Q210.3559,2282.41 211.3175,2283.315 Z " fill="#000000"/><text fill="#000000" font-family="sans-serif" font-size="21.72" lengthAdjust="spacing" textLength="86.88" x="244.8025" y="2298.5374">IdleState</text><line style="stroke:#A80036;stroke-width:2.715;" x1="101.36" x2="416.3" y1="2318.61" y2="2318.61"/><line style="stroke:#A80036;stroke-width:2.715;" x1="101.36" x2="416.3" y1="2333.09" y2="2333.09"/><ellipse cx="119.46" cy="2353" fill="#84BE84" rx="5.43" ry="5.43" style="stroke:#038048;stroke-width:1.8099999999999998;"/><text fill="#000000" font-family="sans-serif" font-size="19.91" lengthAdjust="spacing" textLength="271.5" x="135.75" y="2360.9983">«override» HandleBusy() : void</text><!--MD5=[baed7757e7ac533b1c299b01477eb642]
class BusyState--><rect codeLine="13" fill="#FEFECE" filter="url(#f7dfcbjfyp5vg)" height="111.923" id="BusyState" style="stroke:#A80036;stroke-width:2.715;" width="349.33" x="482.365" y="2260.69"/><ellipse cx="599.5625" cy="2289.65" fill="#ADD1B2" rx="19.91" ry="19.91" style="stroke:#A80036;stroke-width:1.8099999999999998;"/><path d="M603.1825,2283.315 Q603.5502,2282.41 603.9744,2281.9575 Q604.3986,2281.505 604.8794,2281.505 Q605.7278,2281.505 606.2652,2282.0141 Q606.8025,2282.5231 606.8025,2283.7109 L606.8025,2286.5391 Q606.8025,2287.7269 606.2934,2288.2359 Q605.7844,2288.745 604.9925,2288.745 Q604.2855,2288.745 603.833,2288.4339 Q603.3805,2288.1228 603.1825,2287.3027 Q603.0977,2286.737 602.7866,2286.4259 Q602.2209,2285.832 601.2028,2285.4927 Q600.1847,2285.125 599.1666,2285.125 Q597.8939,2285.125 596.8192,2285.6341 Q595.7728,2286.1431 594.9527,2287.2744 Q594.1325,2288.4056 594.1325,2289.9611 L594.1325,2291.6297 Q594.1325,2293.4962 595.6597,2294.7406 Q597.1869,2295.985 599.9019,2295.985 Q601.5139,2295.985 602.6452,2295.6173 Q603.2956,2295.4194 604.0309,2294.7689 Q604.5117,2294.4013 604.7662,2294.2881 Q605.0208,2294.175 605.3319,2294.175 Q605.9258,2294.175 606.35,2294.6558 Q606.8025,2295.1083 606.8025,2295.7588 Q606.8025,2296.3809 606.1803,2297.1162 Q605.2753,2298.1909 603.833,2298.7848 Q601.9381,2299.605 599.6191,2299.605 Q596.9041,2299.605 594.7264,2298.5303 Q592.973,2297.6819 591.7286,2295.8436 Q590.5125,2294.0053 590.5125,2291.8277 L590.5125,2289.848 Q590.5125,2287.5855 591.5872,2285.6058 Q592.6902,2283.6261 594.585,2282.5797 Q596.5081,2281.505 598.6575,2281.505 Q599.9584,2281.505 601.0897,2281.9575 Q602.2209,2282.41 603.1825,2283.315 Z " fill="#000000"/><text fill="#000000" font-family="sans-serif" font-size="21.72" lengthAdjust="spacing" textLength="99.55" x="636.6675" y="2298.5374">BusyState</text><line style="stroke:#A80036;stroke-width:2.715;" x1="484.175" x2="829.885" y1="2318.61" y2="2318.61"/><line style="stroke:#A80036;stroke-width:2.715;" x1="484.175" x2="829.885" y1="2333.09" y2="2333.09"/><ellipse cx="502.275" cy="2353" fill="#84BE84" rx="5.43" ry="5.43" style="stroke:#038048;stroke-width:1.8099999999999998;"/><text fill="#000000" font-family="sans-serif" font-size="19.91" lengthAdjust="spacing" textLength="302.27" x="518.565" y="2360.9983">«override» HandleTravelTo() : void</text><!--MD5=[119f702f9554fb0b67e2e22dd5eed024]
class WorkingState--><rect codeLine="16" fill="#FEFECE" filter="url(#f7dfcbjfyp5vg)" height="111.923" id="WorkingState" style="stroke:#A80036;stroke-width:2.715;" width="385.53" x="895.045" y="2260.69"/><ellipse cx="1014.0525" cy="2289.65" fill="#ADD1B2" rx="19.91" ry="19.91" style="stroke:#A80036;stroke-width:1.8099999999999998;"/><path d="M1017.6725,2283.315 Q1018.0402,2282.41 1018.4644,2281.9575 Q1018.8886,2281.505 1019.3694,2281.505 Q1020.2178,2281.505 1020.7552,2282.0141 Q1021.2925,2282.5231 1021.2925,2283.7109 L1021.2925,2286.5391 Q1021.2925,2287.7269 1020.7834,2288.2359 Q1020.2744,2288.745 1019.4825,2288.745 Q1018.7755,2288.745 1018.323,2288.4339 Q1017.8705,2288.1228 1017.6725,2287.3027 Q1017.5877,2286.737 1017.2766,2286.4259 Q1016.7109,2285.832 1015.6928,2285.4927 Q1014.6747,2285.125 1013.6566,2285.125 Q1012.3839,2285.125 1011.3092,2285.6341 Q1010.2628,2286.1431 1009.4427,2287.2744 Q1008.6225,2288.4056 1008.6225,2289.9611 L1008.6225,2291.6297 Q1008.6225,2293.4962 1010.1497,2294.7406 Q1011.6769,2295.985 1014.3919,2295.985 Q1016.0039,2295.985 1017.1352,2295.6173 Q1017.7856,2295.4194 1018.5209,2294.7689 Q1019.0017,2294.4013 1019.2562,2294.2881 Q1019.5108,2294.175 1019.8219,2294.175 Q1020.4158,2294.175 1020.84,2294.6558 Q1021.2925,2295.1083 1021.2925,2295.7588 Q1021.2925,2296.3809 1020.6703,2297.1162 Q1019.7653,2298.1909 1018.323,2298.7848 Q1016.4281,2299.605 1014.1091,2299.605 Q1011.3941,2299.605 1009.2164,2298.5303 Q1007.463,2297.6819 1006.2186,2295.8436 Q1005.0025,2294.0053 1005.0025,2291.8277 L1005.0025,2289.848 Q1005.0025,2287.5855 1006.0772,2285.6058 Q1007.1802,2283.6261 1009.075,2282.5797 Q1010.9981,2281.505 1013.1475,2281.505 Q1014.4484,2281.505 1015.5797,2281.9575 Q1016.7109,2282.41 1017.6725,2283.315 Z " fill="#000000"/><text fill="#000000" font-family="sans-serif" font-size="21.72" lengthAdjust="spacing" textLength="132.13" x="1051.1575" y="2298.5374">WorkingState</text><line style="stroke:#A80036;stroke-width:2.715;" x1="896.855" x2="1278.765" y1="2318.61" y2="2318.61"/><line style="stroke:#A80036;stroke-width:2.715;" x1="896.855" x2="1278.765" y1="2333.09" y2="2333.09"/><ellipse cx="914.955" cy="2353" fill="#84BE84" rx="5.43" ry="5.43" style="stroke:#038048;stroke-width:1.8099999999999998;"/><text fill="#000000" font-family="sans-serif" font-size="19.91" lengthAdjust="spacing" textLength="338.47" x="931.245" y="2360.9983">«override» HandleTravelReturn() : void</text><!--MD5=[11946eeffcb508ae86b46d54e5e26606]
class TravellingFromState--><rect codeLine="19" fill="#FEFECE" filter="url(#f7dfcbjfyp5vg)" height="111.923" id="TravellingFromState" style="stroke:#A80036;stroke-width:2.715;" width="313.13" x="1343.925" y="2260.69"/><ellipse cx="1396.3245" cy="2289.65" fill="#ADD1B2" rx="19.91" ry="19.91" style="stroke:#A80036;stroke-width:1.8099999999999998;"/><path d="M1399.9445,2283.315 Q1400.3122,2282.41 1400.7364,2281.9575 Q1401.1606,2281.505 1401.6414,2281.505 Q1402.4898,2281.505 1403.0272,2282.0141 Q1403.5645,2282.5231 1403.5645,2283.7109 L1403.5645,2286.5391 Q1403.5645,2287.7269 1403.0554,2288.2359 Q1402.5464,2288.745 1401.7545,2288.745 Q1401.0475,2288.745 1400.595,2288.4339 Q1400.1425,2288.1228 1399.9445,2287.3027 Q1399.8597,2286.737 1399.5486,2286.4259 Q1398.9829,2285.832 1397.9648,2285.4927 Q1396.9467,2285.125 1395.9286,2285.125 Q1394.6559,2285.125 1393.5812,2285.6341 Q1392.5348,2286.1431 1391.7147,2287.2744 Q1390.8945,2288.4056 1390.8945,2289.9611 L1390.8945,2291.6297 Q1390.8945,2293.4962 1392.4217,2294.7406 Q1393.9489,2295.985 1396.6639,2295.985 Q1398.2759,2295.985 1399.4072,2295.6173 Q1400.0576,2295.4194 1400.7929,2294.7689 Q1401.2737,2294.4013 1401.5282,2294.2881 Q1401.7828,2294.175 1402.0939,2294.175 Q1402.6878,2294.175 1403.112,2294.6558 Q1403.5645,2295.1083 1403.5645,2295.7588 Q1403.5645,2296.3809 1402.9423,2297.1162 Q1402.0373,2298.1909 1400.595,2298.7848 Q1398.7001,2299.605 1396.3811,2299.605 Q1393.6661,2299.605 1391.4884,2298.5303 Q1389.735,2297.6819 1388.4906,2295.8436 Q1387.2745,2294.0053 1387.2745,2291.8277 L1387.2745,2289.848 Q1387.2745,2287.5855 1388.3492,2285.6058 Q1389.4522,2283.6261 1391.347,2282.5797 Q1393.2701,2281.505 1395.4195,2281.505 Q1396.7204,2281.505 1397.8517,2281.9575 Q1398.9829,2282.41 1399.9445,2283.315 Z " fill="#000000"/><text fill="#000000" font-family="sans-serif" font-size="21.72" lengthAdjust="spacing" textLength="199.1" x="1427.2755" y="2298.5374">TravellingFromState</text><line style="stroke:#A80036;stroke-width:2.715;" x1="1345.735" x2="1655.245" y1="2318.61" y2="2318.61"/><line style="stroke:#A80036;stroke-width:2.715;" x1="1345.735" x2="1655.245" y1="2333.09" y2="2333.09"/><ellipse cx="1363.835" cy="2353" fill="#84BE84" rx="5.43" ry="5.43" style="stroke:#038048;stroke-width:1.8099999999999998;"/><text fill="#000000" font-family="sans-serif" font-size="19.91" lengthAdjust="spacing" textLength="266.07" x="1380.125" y="2360.9983">«override» HandleFree() : void</text><!--MD5=[66927e23199f04ebbf5d8f2d7e82a9c5]
class TravellingToState--><rect codeLine="22" fill="#FEFECE" filter="url(#f7dfcbjfyp5vg)" height="136.9661" id="TravellingToState" style="stroke:#A80036;stroke-width:2.715;" width="385.53" x="1720.405" y="2248.02"/><ellipse cx="1819.5025" cy="2276.98" fill="#ADD1B2" rx="19.91" ry="19.91" style="stroke:#A80036;stroke-width:1.8099999999999998;"/><path d="M1823.1225,2270.645 Q1823.4902,2269.74 1823.9144,2269.2875 Q1824.3386,2268.835 1824.8194,2268.835 Q1825.6678,2268.835 1826.2052,2269.3441 Q1826.7425,2269.8531 1826.7425,2271.0409 L1826.7425,2273.8691 Q1826.7425,2275.0569 1826.2334,2275.5659 Q1825.7244,2276.075 1824.9325,2276.075 Q1824.2255,2276.075 1823.773,2275.7639 Q1823.3205,2275.4528 1823.1225,2274.6327 Q1823.0377,2274.067 1822.7266,2273.7559 Q1822.1609,2273.162 1821.1428,2272.8227 Q1820.1247,2272.455 1819.1066,2272.455 Q1817.8339,2272.455 1816.7592,2272.9641 Q1815.7128,2273.4731 1814.8927,2274.6044 Q1814.0725,2275.7356 1814.0725,2277.2911 L1814.0725,2278.9597 Q1814.0725,2280.8262 1815.5997,2282.0706 Q1817.1269,2283.315 1819.8419,2283.315 Q1821.4539,2283.315 1822.5852,2282.9473 Q1823.2356,2282.7494 1823.9709,2282.0989 Q1824.4517,2281.7313 1824.7062,2281.6181 Q1824.9608,2281.505 1825.2719,2281.505 Q1825.8658,2281.505 1826.29,2281.9858 Q1826.7425,2282.4383 1826.7425,2283.0888 Q1826.7425,2283.7109 1826.1203,2284.4463 Q1825.2153,2285.5209 1823.773,2286.1148 Q1821.8781,2286.935 1819.5591,2286.935 Q1816.8441,2286.935 1814.6664,2285.8603 Q1812.913,2285.0119 1811.6686,2283.1736 Q1810.4525,2281.3353 1810.4525,2279.1577 L1810.4525,2277.178 Q1810.4525,2274.9155 1811.5272,2272.9358 Q1812.6302,2270.9561 1814.525,2269.9097 Q1816.4481,2268.835 1818.5975,2268.835 Q1819.8984,2268.835 1821.0297,2269.2875 Q1822.1609,2269.74 1823.1225,2270.645 Z " fill="#000000"/><text fill="#000000" font-family="sans-serif" font-size="21.72" lengthAdjust="spacing" textLength="171.95" x="1856.6075" y="2285.8674">TravellingToState</text><line style="stroke:#A80036;stroke-width:2.715;" x1="1722.215" x2="2104.125" y1="2305.94" y2="2305.94"/><line style="stroke:#A80036;stroke-width:2.715;" x1="1722.215" x2="2104.125" y1="2320.42" y2="2320.42"/><ellipse cx="1740.315" cy="2340.33" fill="#84BE84" rx="5.43" ry="5.43" style="stroke:#038048;stroke-width:1.8099999999999998;"/><text fill="#000000" font-family="sans-serif" font-size="19.91" lengthAdjust="spacing" textLength="271.5" x="1756.605" y="2348.3283">«override» HandleWork() : void</text><ellipse cx="1740.315" cy="2365.373" fill="#84BE84" rx="5.43" ry="5.43" style="stroke:#038048;stroke-width:1.8099999999999998;"/><text fill="#000000" font-family="sans-serif" font-size="19.91" lengthAdjust="spacing" textLength="338.47" x="1756.605" y="2373.3713">«override» HandleTravelReturn() : void</text><!--MD5=[299df6412cb7f1c0a479276b8c1d8efa]
class IExecutionStrategy--><rect codeLine="1" fill="#FEFECE" filter="url(#f7dfcbjfyp5vg)" height="111.923" id="IExecutionStrategy" style="stroke:#A80036;stroke-width:2.715;" width="244.35" x="2764.775" y="540.285"/><ellipse cx="2791.925" cy="569.245" fill="#B4A7E5" rx="19.91" ry="19.91" style="stroke:#A80036;stroke-width:1.8099999999999998;"/><path d="M2793.735,563.815 L2793.735,574.675 L2797.355,574.675 L2798.2317,574.675 L2799.165,575.8063 L2799.165,576.485 L2799.165,577.1637 L2798.2317,578.295 L2797.355,578.295 L2786.495,578.295 L2785.6183,578.295 L2784.685,577.1637 L2784.685,576.485 L2784.685,575.8063 L2785.6183,574.675 L2786.495,574.675 L2790.115,574.675 L2790.115,563.815 L2786.495,563.815 L2785.6183,563.815 L2784.685,562.6837 L2784.685,562.005 L2784.685,561.3263 L2785.6183,560.195 L2786.495,560.195 L2797.355,560.195 L2798.2317,560.195 L2799.165,561.3263 L2799.165,562.005 L2799.165,562.6837 L2798.2317,563.815 L2797.355,563.815 L2793.735,563.815 Z " fill="#000000"/><text fill="#000000" font-family="sans-serif" font-size="21.72" font-style="italic" lengthAdjust="spacing" textLength="186.43" x="2817.265" y="578.1324">IExecutionStrategy</text><line style="stroke:#A80036;stroke-width:2.715;" x1="2766.585" x2="3007.315" y1="598.205" y2="598.205"/><line style="stroke:#A80036;stroke-width:2.715;" x1="2766.585" x2="3007.315" y1="612.685" y2="612.685"/><text fill="#000000" font-family="sans-serif" font-size="19.91" lengthAdjust="spacing" textLength="139.37" x="2775.635" y="640.5933">execute() : float</text><!--MD5=[4fb047ded990add450a669c5a257225d]
class Emergency--><rect codeLine="4" fill="#FEFECE" filter="url(#f7dfcbjfyp5vg)" height="111.923" id="Emergency" style="stroke:#A80036;stroke-width:2.715;" width="186.43" x="3029.035" y="955.68"/><ellipse cx="3063.5155" cy="984.64" fill="#ADD1B2" rx="19.91" ry="19.91" style="stroke:#A80036;stroke-width:1.8099999999999998;"/><path d="M3067.1355,978.305 Q3067.5032,977.4 3067.9274,976.9475 Q3068.3516,976.495 3068.8324,976.495 Q3069.6808,976.495 3070.2182,977.0041 Q3070.7555,977.5131 3070.7555,978.7009 L3070.7555,981.5291 Q3070.7555,982.7169 3070.2464,983.2259 Q3069.7374,983.735 3068.9455,983.735 Q3068.2385,983.735 3067.786,983.4239 Q3067.3335,983.1128 3067.1355,982.2927 Q3067.0507,981.727 3066.7396,981.4159 Q3066.1739,980.822 3065.1558,980.4827 Q3064.1377,980.115 3063.1196,980.115 Q3061.8469,980.115 3060.7722,980.6241 Q3059.7258,981.1331 3058.9057,982.2644 Q3058.0855,983.3956 3058.0855,984.9511 L3058.0855,986.6197 Q3058.0855,988.4862 3059.6127,989.7306 Q3061.1399,990.975 3063.8549,990.975 Q3065.4669,990.975 3066.5982,990.6073 Q3067.2486,990.4094 3067.9839,989.7589 Q3068.4647,989.3912 3068.7192,989.2781 Q3068.9738,989.165 3069.2849,989.165 Q3069.8788,989.165 3070.303,989.6458 Q3070.7555,990.0983 3070.7555,990.7487 Q3070.7555,991.3709 3070.1333,992.1062 Q3069.2283,993.1809 3067.786,993.7748 Q3065.8911,994.595 3063.5721,994.595 Q3060.8571,994.595 3058.6794,993.5203 Q3056.926,992.6719 3055.6816,990.8336 Q3054.4655,988.9953 3054.4655,986.8177 L3054.4655,984.838 Q3054.4655,982.5755 3055.5402,980.5958 Q3056.6432,978.6161 3058.538,977.5697 Q3060.4611,976.495 3062.6105,976.495 Q3063.9114,976.495 3065.0427,976.9475 Q3066.1739,977.4 3067.1355,978.305 Z " fill="#000000"/><text fill="#000000" font-family="sans-serif" font-size="21.72" lengthAdjust="spacing" textLength="112.22" x="3090.4845" y="993.5274">Emergency</text><line style="stroke:#A80036;stroke-width:2.715;" x1="3030.845" x2="3213.655" y1="1013.6" y2="1013.6"/><line style="stroke:#A80036;stroke-width:2.715;" x1="3030.845" x2="3213.655" y1="1028.08" y2="1028.08"/><ellipse cx="3048.945" cy="1047.99" fill="#84BE84" rx="5.43" ry="5.43" style="stroke:#038048;stroke-width:1.8099999999999998;"/><text fill="#000000" font-family="sans-serif" font-size="19.91" lengthAdjust="spacing" textLength="139.37" x="3065.235" y="1055.9883">execute() : float</text><!--MD5=[9931e02840d41b042444b5d87a162ae8]
class Fake--><rect codeLine="7" fill="#FEFECE" filter="url(#f7dfcbjfyp5vg)" height="111.923" id="Fake" style="stroke:#A80036;stroke-width:2.715;" width="186.43" x="2779.255" y="955.68"/><ellipse cx="2842.243" cy="984.64" fill="#ADD1B2" rx="19.91" ry="19.91" style="stroke:#A80036;stroke-width:1.8099999999999998;"/><path d="M2845.863,978.305 Q2846.2307,977.4 2846.6549,976.9475 Q2847.0791,976.495 2847.5599,976.495 Q2848.4083,976.495 2848.9457,977.0041 Q2849.483,977.5131 2849.483,978.7009 L2849.483,981.5291 Q2849.483,982.7169 2848.9739,983.2259 Q2848.4649,983.735 2847.673,983.735 Q2846.966,983.735 2846.5135,983.4239 Q2846.061,983.1128 2845.863,982.2927 Q2845.7782,981.727 2845.4671,981.4159 Q2844.9014,980.822 2843.8833,980.4827 Q2842.8652,980.115 2841.8471,980.115 Q2840.5744,980.115 2839.4997,980.6241 Q2838.4533,981.1331 2837.6332,982.2644 Q2836.813,983.3956 2836.813,984.9511 L2836.813,986.6197 Q2836.813,988.4862 2838.3402,989.7306 Q2839.8674,990.975 2842.5824,990.975 Q2844.1944,990.975 2845.3257,990.6073 Q2845.9761,990.4094 2846.7114,989.7589 Q2847.1922,989.3912 2847.4467,989.2781 Q2847.7013,989.165 2848.0124,989.165 Q2848.6063,989.165 2849.0305,989.6458 Q2849.483,990.0983 2849.483,990.7487 Q2849.483,991.3709 2848.8608,992.1062 Q2847.9558,993.1809 2846.5135,993.7748 Q2844.6186,994.595 2842.2996,994.595 Q2839.5846,994.595 2837.4069,993.5203 Q2835.6535,992.6719 2834.4091,990.8336 Q2833.193,988.9953 2833.193,986.8177 L2833.193,984.838 Q2833.193,982.5755 2834.2677,980.5958 Q2835.3707,978.6161 2837.2655,977.5697 Q2839.1886,976.495 2841.338,976.495 Q2842.6389,976.495 2843.7702,976.9475 Q2844.9014,977.4 2845.863,978.305 Z " fill="#000000"/><text fill="#000000" font-family="sans-serif" font-size="21.72" lengthAdjust="spacing" textLength="48.87" x="2875.547" y="993.5274">Fake</text><line style="stroke:#A80036;stroke-width:2.715;" x1="2781.065" x2="2963.875" y1="1013.6" y2="1013.6"/><line style="stroke:#A80036;stroke-width:2.715;" x1="2781.065" x2="2963.875" y1="1028.08" y2="1028.08"/><ellipse cx="2799.165" cy="1047.99" fill="#84BE84" rx="5.43" ry="5.43" style="stroke:#038048;stroke-width:1.8099999999999998;"/><text fill="#000000" font-family="sans-serif" font-size="19.91" lengthAdjust="spacing" textLength="139.37" x="2815.455" y="1055.9883">execute() : float</text><!--MD5=[bbff3ceeffb6f45eac3c69e23d3da763]
class IEventStrategy--><rect codeLine="1" fill="#FEFECE" filter="url(#f7dfcbjfyp5vg)" height="136.9661" id="IEventStrategy" style="stroke:#A80036;stroke-width:2.715;" width="655.22" x="1916.79" y="527.615"/><ellipse cx="2164.3075" cy="556.575" fill="#A9DCDF" rx="19.91" ry="19.91" style="stroke:#A80036;stroke-width:1.8099999999999998;"/><path d="M2167.475,559.29 L2161.5077,559.29 L2160.7158,561.1 L2160.7158,561.1 L2161.5642,561.1 L2162.4975,562.2312 L2162.4975,562.91 L2162.4975,563.5887 L2161.5642,564.72 L2160.7158,564.72 L2157.2938,564.72 L2156.1908,564.72 L2155.2575,563.5887 L2155.2575,562.91 L2155.2575,562.2312 L2156.1908,561.1 L2157.2938,561.1 L2161.4794,550.24 L2159.8956,550.24 L2158.0008,550.24 L2157.0675,549.1088 L2157.0675,548.43 L2157.0675,547.7512 L2158.0008,546.62 L2159.8956,546.62 L2166.5417,546.62 L2171.4061,561.1 L2172.4242,561.1 L2172.4242,561.1 L2173.3575,562.2312 L2173.3575,562.91 L2173.3575,563.5887 L2172.4242,564.72 L2171.4061,564.72 L2167.9841,564.72 L2167.0508,564.72 L2166.1175,563.5887 L2166.1175,562.91 L2166.1175,562.2312 L2167.0508,561.1 L2167.9841,561.1 L2167.9841,561.1 L2167.475,559.29 Z M2166.4852,555.67 L2164.3075,549.1936 L2162.4409,555.67 L2166.4852,555.67 Z " fill="#000000"/><text fill="#000000" font-family="sans-serif" font-size="21.72" font-style="italic" lengthAdjust="spacing" textLength="144.8" x="2201.4125" y="565.4624">IEventStrategy</text><line style="stroke:#A80036;stroke-width:2.715;" x1="1918.6" x2="2570.2" y1="585.535" y2="585.535"/><line style="stroke:#A80036;stroke-width:2.715;" x1="1918.6" x2="2570.2" y1="600.015" y2="600.015"/><ellipse cx="1936.7" cy="619.925" fill="#84BE84" rx="5.43" ry="5.43" style="stroke:#038048;stroke-width:1.8099999999999998;"/><text fill="#000000" font-family="sans-serif" font-size="19.91" font-style="italic" lengthAdjust="spacing" textLength="523.09" x="1952.99" y="627.9233">Execute(fireTrucks:IIterator&lt;FireTruck&gt;) : List&lt;FireTruck&gt;</text><polygon fill="#FFFF44" points="1936.7,635.918,1943.94,643.158,1936.7,650.398,1929.46,643.158" style="stroke:#B38D22;stroke-width:1.8099999999999998;"/><text fill="#000000" font-family="sans-serif" font-size="19.91" lengthAdjust="spacing" textLength="608.16" x="1952.99" y="652.9663">GetClosest(fireTrucks:IIterator&lt;FireTruck&gt;, count:int) : List&lt;FireTruck&gt;</text><!--MD5=[415fd35c88f42b3db65e8c7c08b20f79]
class StrategyMz--><rect codeLine="5" fill="#FEFECE" filter="url(#f7dfcbjfyp5vg)" height="111.923" id="StrategyMz" style="stroke:#A80036;stroke-width:2.715;" width="381.91" x="2189.195" y="955.68"/><ellipse cx="2319.9675" cy="984.64" fill="#ADD1B2" rx="19.91" ry="19.91" style="stroke:#A80036;stroke-width:1.8099999999999998;"/><path d="M2323.5875,978.305 Q2323.9552,977.4 2324.3794,976.9475 Q2324.8036,976.495 2325.2844,976.495 Q2326.1328,976.495 2326.6702,977.0041 Q2327.2075,977.5131 2327.2075,978.7009 L2327.2075,981.5291 Q2327.2075,982.7169 2326.6984,983.2259 Q2326.1894,983.735 2325.3975,983.735 Q2324.6905,983.735 2324.238,983.4239 Q2323.7855,983.1128 2323.5875,982.2927 Q2323.5027,981.727 2323.1916,981.4159 Q2322.6259,980.822 2321.6078,980.4827 Q2320.5897,980.115 2319.5716,980.115 Q2318.2989,980.115 2317.2242,980.6241 Q2316.1778,981.1331 2315.3577,982.2644 Q2314.5375,983.3956 2314.5375,984.9511 L2314.5375,986.6197 Q2314.5375,988.4862 2316.0647,989.7306 Q2317.5919,990.975 2320.3069,990.975 Q2321.9189,990.975 2323.0502,990.6073 Q2323.7006,990.4094 2324.4359,989.7589 Q2324.9167,989.3912 2325.1713,989.2781 Q2325.4258,989.165 2325.7369,989.165 Q2326.3308,989.165 2326.755,989.6458 Q2327.2075,990.0983 2327.2075,990.7487 Q2327.2075,991.3709 2326.5853,992.1062 Q2325.6803,993.1809 2324.238,993.7748 Q2322.3431,994.595 2320.0241,994.595 Q2317.3091,994.595 2315.1314,993.5203 Q2313.378,992.6719 2312.1336,990.8336 Q2310.9175,988.9953 2310.9175,986.8177 L2310.9175,984.838 Q2310.9175,982.5755 2311.9922,980.5958 Q2313.0952,978.6161 2314.99,977.5697 Q2316.9131,976.495 2319.0625,976.495 Q2320.3634,976.495 2321.4947,976.9475 Q2322.6259,977.4 2323.5875,978.305 Z " fill="#000000"/><text fill="#000000" font-family="sans-serif" font-size="21.72" lengthAdjust="spacing" textLength="104.98" x="2357.0725" y="993.5274">StrategyMz</text><line style="stroke:#A80036;stroke-width:2.715;" x1="2191.005" x2="2569.295" y1="1013.6" y2="1013.6"/><line style="stroke:#A80036;stroke-width:2.715;" x1="2191.005" x2="2569.295" y1="1028.08" y2="1028.08"/><ellipse cx="2209.105" cy="1047.99" fill="#84BE84" rx="5.43" ry="5.43" style="stroke:#038048;stroke-width:1.8099999999999998;"/><text fill="#000000" font-family="sans-serif" font-size="19.91" lengthAdjust="spacing" textLength="334.85" x="2225.395" y="1055.9883">«override» Execute() : List&lt;FireTruck&gt;</text><!--MD5=[b82415e79366502edec35914ad6d6cb6]
class StrategyPz--><rect codeLine="8" fill="#FEFECE" filter="url(#f7dfcbjfyp5vg)" height="111.923" id="StrategyPz" style="stroke:#A80036;stroke-width:2.715;" width="381.91" x="1743.935" y="955.68"/><ellipse cx="1875.6125" cy="984.64" fill="#ADD1B2" rx="19.91" ry="19.91" style="stroke:#A80036;stroke-width:1.8099999999999998;"/><path d="M1879.2325,978.305 Q1879.6002,977.4 1880.0244,976.9475 Q1880.4486,976.495 1880.9294,976.495 Q1881.7778,976.495 1882.3152,977.0041 Q1882.8525,977.5131 1882.8525,978.7009 L1882.8525,981.5291 Q1882.8525,982.7169 1882.3434,983.2259 Q1881.8344,983.735 1881.0425,983.735 Q1880.3355,983.735 1879.883,983.4239 Q1879.4305,983.1128 1879.2325,982.2927 Q1879.1477,981.727 1878.8366,981.4159 Q1878.2709,980.822 1877.2528,980.4827 Q1876.2347,980.115 1875.2166,980.115 Q1873.9439,980.115 1872.8692,980.6241 Q1871.8228,981.1331 1871.0027,982.2644 Q1870.1825,983.3956 1870.1825,984.9511 L1870.1825,986.6197 Q1870.1825,988.4862 1871.7097,989.7306 Q1873.2369,990.975 1875.9519,990.975 Q1877.5639,990.975 1878.6952,990.6073 Q1879.3456,990.4094 1880.0809,989.7589 Q1880.5617,989.3912 1880.8162,989.2781 Q1881.0708,989.165 1881.3819,989.165 Q1881.9758,989.165 1882.4,989.6458 Q1882.8525,990.0983 1882.8525,990.7487 Q1882.8525,991.3709 1882.2303,992.1062 Q1881.3253,993.1809 1879.883,993.7748 Q1877.9881,994.595 1875.6691,994.595 Q1872.9541,994.595 1870.7764,993.5203 Q1869.023,992.6719 1867.7786,990.8336 Q1866.5625,988.9953 1866.5625,986.8177 L1866.5625,984.838 Q1866.5625,982.5755 1867.6372,980.5958 Q1868.7402,978.6161 1870.635,977.5697 Q1872.5581,976.495 1874.7075,976.495 Q1876.0084,976.495 1877.1397,976.9475 Q1878.2709,977.4 1879.2325,978.305 Z " fill="#000000"/><text fill="#000000" font-family="sans-serif" font-size="21.72" lengthAdjust="spacing" textLength="103.17" x="1912.7175" y="993.5274">StrategyPz</text><line style="stroke:#A80036;stroke-width:2.715;" x1="1745.745" x2="2124.035" y1="1013.6" y2="1013.6"/><line style="stroke:#A80036;stroke-width:2.715;" x1="1745.745" x2="2124.035" y1="1028.08" y2="1028.08"/><ellipse cx="1763.845" cy="1047.99" fill="#84BE84" rx="5.43" ry="5.43" style="stroke:#038048;stroke-width:1.8099999999999998;"/><text fill="#000000" font-family="sans-serif" font-size="19.91" lengthAdjust="spacing" textLength="334.85" x="1780.135" y="1055.9883">«override» Execute() : List&lt;FireTruck&gt;</text><!--MD5=[5006a590d4497dc871b9f944eabf0a99]
class IVector--><rect codeLine="1" fill="#FEFECE" filter="url(#f7dfcbjfyp5vg)" height="162.0091" id="IVector" style="stroke:#A80036;stroke-width:2.715;" width="271.5" x="1556.6" y="1377.41"/><ellipse cx="1649.3625" cy="1406.37" fill="#B4A7E5" rx="19.91" ry="19.91" style="stroke:#A80036;stroke-width:1.8099999999999998;"/><path d="M1651.1725,1400.94 L1651.1725,1411.8 L1654.7925,1411.8 L1655.6692,1411.8 L1656.6025,1412.9312 L1656.6025,1413.61 L1656.6025,1414.2888 L1655.6692,1415.42 L1654.7925,1415.42 L1643.9325,1415.42 L1643.0558,1415.42 L1642.1225,1414.2888 L1642.1225,1413.61 L1642.1225,1412.9312 L1643.0558,1411.8 L1643.9325,1411.8 L1647.5525,1411.8 L1647.5525,1400.94 L1643.9325,1400.94 L1643.0558,1400.94 L1642.1225,1399.8088 L1642.1225,1399.13 L1642.1225,1398.4512 L1643.0558,1397.32 L1643.9325,1397.32 L1654.7925,1397.32 L1655.6692,1397.32 L1656.6025,1398.4512 L1656.6025,1399.13 L1656.6025,1399.8088 L1655.6692,1400.94 L1654.7925,1400.94 L1651.1725,1400.94 Z " fill="#000000"/><text fill="#000000" font-family="sans-serif" font-size="21.72" font-style="italic" lengthAdjust="spacing" textLength="70.59" x="1686.4675" y="1415.2574">IVector</text><line style="stroke:#A80036;stroke-width:2.715;" x1="1558.41" x2="1826.29" y1="1435.33" y2="1435.33"/><line style="stroke:#A80036;stroke-width:2.715;" x1="1558.41" x2="1826.29" y1="1449.81" y2="1449.81"/><text fill="#000000" font-family="sans-serif" font-size="19.91" lengthAdjust="spacing" textLength="121.27" x="1567.46" y="1477.7183">abs() : double</text><text fill="#000000" font-family="sans-serif" font-size="19.91" lengthAdjust="spacing" textLength="249.78" x="1567.46" y="1502.7613">cdot(param:IVector) : double</text><text fill="#000000" font-family="sans-serif" font-size="19.91" lengthAdjust="spacing" textLength="235.3" x="1567.46" y="1527.8044">getComponents() : double[]</text><!--MD5=[3f551f1273bbfa514d2f681c1c48b5c1]
class Vector2--><rect codeLine="1" fill="#FEFECE" filter="url(#f7dfcbjfyp5vg)" height="287.2244" id="Vector2" style="stroke:#A80036;stroke-width:2.715;" width="376.48" x="1636.24" y="1737.6"/><ellipse cx="1779.6825" cy="1766.56" fill="#ADD1B2" rx="19.91" ry="19.91" style="stroke:#A80036;stroke-width:1.8099999999999998;"/><path d="M1783.3025,1760.225 Q1783.6702,1759.32 1784.0944,1758.8675 Q1784.5186,1758.415 1784.9994,1758.415 Q1785.8478,1758.415 1786.3852,1758.9241 Q1786.9225,1759.4331 1786.9225,1760.6209 L1786.9225,1763.4491 Q1786.9225,1764.6369 1786.4134,1765.1459 Q1785.9044,1765.655 1785.1125,1765.655 Q1784.4055,1765.655 1783.953,1765.3439 Q1783.5005,1765.0328 1783.3025,1764.2127 Q1783.2177,1763.647 1782.9066,1763.3359 Q1782.3409,1762.742 1781.3228,1762.4027 Q1780.3047,1762.035 1779.2866,1762.035 Q1778.0139,1762.035 1776.9392,1762.5441 Q1775.8928,1763.0531 1775.0727,1764.1844 Q1774.2525,1765.3156 1774.2525,1766.8711 L1774.2525,1768.5397 Q1774.2525,1770.4062 1775.7797,1771.6506 Q1777.3069,1772.895 1780.0219,1772.895 Q1781.6339,1772.895 1782.7652,1772.5273 Q1783.4156,1772.3294 1784.1509,1771.6789 Q1784.6317,1771.3112 1784.8862,1771.1981 Q1785.1408,1771.085 1785.4519,1771.085 Q1786.0458,1771.085 1786.47,1771.5658 Q1786.9225,1772.0183 1786.9225,1772.6687 Q1786.9225,1773.2909 1786.3003,1774.0263 Q1785.3953,1775.1009 1783.953,1775.6948 Q1782.0581,1776.515 1779.7391,1776.515 Q1777.0241,1776.515 1774.8464,1775.4403 Q1773.093,1774.5919 1771.8486,1772.7536 Q1770.6325,1770.9153 1770.6325,1768.7377 L1770.6325,1766.758 Q1770.6325,1764.4955 1771.7072,1762.5158 Q1772.8102,1760.5361 1774.705,1759.4897 Q1776.6281,1758.415 1778.7775,1758.415 Q1780.0784,1758.415 1781.2097,1758.8675 Q1782.3409,1759.32 1783.3025,1760.225 Z " fill="#000000"/><text fill="#000000" font-family="sans-serif" font-size="21.72" lengthAdjust="spacing" textLength="74.21" x="1816.7875" y="1775.4474">Vector2</text><line style="stroke:#A80036;stroke-width:2.715;" x1="1638.05" x2="2010.91" y1="1795.52" y2="1795.52"/><ellipse cx="1656.15" cy="1815.43" rx="5.43" ry="5.43" style="stroke:#038048;stroke-width:1.8099999999999998;fill:none;"/><text fill="#000000" font-family="sans-serif" font-size="19.91" lengthAdjust="spacing" textLength="141.18" x="1672.44" y="1823.4283">X : double «get»</text><ellipse cx="1656.15" cy="1840.473" rx="5.43" ry="5.43" style="stroke:#038048;stroke-width:1.8099999999999998;fill:none;"/><text fill="#000000" font-family="sans-serif" font-size="19.91" lengthAdjust="spacing" textLength="142.99" x="1672.44" y="1848.4713">Y : double «get»</text><line style="stroke:#A80036;stroke-width:2.715;" x1="1638.05" x2="2010.91" y1="1860.0861" y2="1860.0861"/><ellipse cx="1656.15" cy="1879.9961" fill="#84BE84" rx="5.43" ry="5.43" style="stroke:#038048;stroke-width:1.8099999999999998;"/><text fill="#000000" font-family="sans-serif" font-size="19.91" lengthAdjust="spacing" textLength="244.35" x="1672.44" y="1887.9944">Vector2(x:double, y:double)</text><ellipse cx="1656.15" cy="1905.0391" fill="#84BE84" rx="5.43" ry="5.43" style="stroke:#038048;stroke-width:1.8099999999999998;"/><text fill="#000000" font-family="sans-serif" font-size="19.91" lengthAdjust="spacing" textLength="121.27" x="1672.44" y="1913.0374">abs() : double</text><ellipse cx="1656.15" cy="1930.0822" fill="#84BE84" rx="5.43" ry="5.43" style="stroke:#038048;stroke-width:1.8099999999999998;"/><text fill="#000000" font-family="sans-serif" font-size="19.91" lengthAdjust="spacing" textLength="249.78" x="1672.44" y="1938.0805">cdot(param:IVector) : double</text><ellipse cx="1656.15" cy="1955.1252" fill="#84BE84" rx="5.43" ry="5.43" style="stroke:#038048;stroke-width:1.8099999999999998;"/><text fill="#000000" font-family="sans-serif" font-size="19.91" lengthAdjust="spacing" textLength="235.3" x="1672.44" y="1963.1235">getComponents() : double[]</text><ellipse cx="1656.15" cy="1980.1683" fill="#84BE84" rx="5.43" ry="5.43" style="stroke:#038048;stroke-width:1.8099999999999998;"/><text fill="#000000" font-family="sans-serif" font-size="19.91" lengthAdjust="spacing" textLength="251.59" x="1672.44" y="1988.1666">«override» ToString() : string</text><ellipse cx="1656.15" cy="2005.2113" fill="#84BE84" rx="5.43" ry="5.43" style="stroke:#038048;stroke-width:1.8099999999999998;"/><text fill="#000000" font-family="sans-serif" font-size="19.91" lengthAdjust="spacing" textLength="329.42" x="1672.44" y="2013.2096">DistanceTo(position:Vector2) : double</text><!--MD5=[175f95e045c1a44aed0b30df3abe0e5c]
class Program--><rect codeLine="16" fill="#FEFECE" filter="url(#f7dfcbjfyp5vg)" height="86.88" id="Program" style="stroke:#A80036;stroke-width:2.715;" width="144.8" x="970.16" y="137.56"/><ellipse cx="997.31" cy="166.52" fill="#ADD1B2" rx="19.91" ry="19.91" style="stroke:#A80036;stroke-width:1.8099999999999998;"/><path d="M1000.93,160.185 Q1001.2977,159.28 1001.7219,158.8275 Q1002.1461,158.375 1002.6269,158.375 Q1003.4753,158.375 1004.0127,158.8841 Q1004.55,159.3931 1004.55,160.5809 L1004.55,163.4091 Q1004.55,164.5969 1004.0409,165.1059 Q1003.5319,165.615 1002.74,165.615 Q1002.033,165.615 1001.5805,165.3039 Q1001.128,164.9928 1000.93,164.1727 Q1000.8452,163.607 1000.5341,163.2959 Q999.9684,162.702 998.9503,162.3627 Q997.9322,161.995 996.9141,161.995 Q995.6414,161.995 994.5667,162.5041 Q993.5203,163.0131 992.7002,164.1444 Q991.88,165.2756 991.88,166.8311 L991.88,168.4997 Q991.88,170.3662 993.4072,171.6106 Q994.9344,172.855 997.6494,172.855 Q999.2614,172.855 1000.3927,172.4873 Q1001.0431,172.2894 1001.7784,171.6389 Q1002.2592,171.2712 1002.5138,171.1581 Q1002.7683,171.045 1003.0794,171.045 Q1003.6733,171.045 1004.0975,171.5258 Q1004.55,171.9783 1004.55,172.6288 Q1004.55,173.2509 1003.9278,173.9862 Q1003.0228,175.0609 1001.5805,175.6548 Q999.6856,176.475 997.3666,176.475 Q994.6516,176.475 992.4739,175.4003 Q990.7205,174.5519 989.4761,172.7136 Q988.26,170.8753 988.26,168.6977 L988.26,166.718 Q988.26,164.4555 989.3347,162.4758 Q990.4377,160.4961 992.3325,159.4497 Q994.2556,158.375 996.405,158.375 Q997.7059,158.375 998.8372,158.8275 Q999.9684,159.28 1000.93,160.185 Z " fill="#000000"/><text fill="#000000" font-family="sans-serif" font-size="21.72" lengthAdjust="spacing" textLength="86.88" x="1022.65" y="175.4074">Program</text><line style="stroke:#A80036;stroke-width:2.715;" x1="971.97" x2="1113.15" y1="195.48" y2="195.48"/><line style="stroke:#A80036;stroke-width:2.715;" x1="971.97" x2="1113.15" y1="209.96" y2="209.96"/><!--MD5=[fc832535ce6d06a048690cb088a7c9eb]
reverse link IIterator`1 to ClosestFireTrucksIterator--><path codeLine="6" d="M602.73,701.5922 C602.73,772.4537 602.73,865.0533 602.73,930.2314 " fill="none" id="IIterator`1-backto-ClosestFireTrucksIterator" style="stroke:#A80036;stroke-width:1.8099999999999998;"/><polygon fill="none" points="590.06,701.4836,602.73,665.2836,615.4,701.4836,590.06,701.4836" style="stroke:#A80036;stroke-width:1.8099999999999998;"/><text fill="#000000" font-family="sans-serif" font-size="23.53" lengthAdjust="spacing" textLength="126.7" x="465.5377" y="703.6196">&lt;FireTruck&gt;</text><!--MD5=[a5eb61decc8bcf76fb2b3dbbd4338d1b]
reverse link Incident to EventType--><path codeLine="17" d="M1456.2717,1208.1931 C1445.1402,1273.154 1433.4657,1341.2643 1425.1397,1389.7723 " fill="none" id="Incident-backto-EventType" style="stroke:#A80036;stroke-width:1.8099999999999998;"/><ellipse cx="1458.5416" cy="1194.8792" fill="#FFFFFF" rx="14.48" ry="14.48" style="stroke:#A80036;stroke-width:1.8099999999999998;"/><line style="stroke:#A80036;stroke-width:1.8099999999999998;" x1="1456.0873" x2="1460.9958" y1="1209.1497" y2="1180.6087"/><line style="stroke:#A80036;stroke-width:1.8099999999999998;" x1="1444.2711" x2="1472.812" y1="1192.4249" y2="1197.3334"/><!--MD5=[d1644b7c5e6536e4ec822ae57d042cc6]
reverse link State to IdleState--><path codeLine="26" d="M862.6822,2000.5387 C700.108,2085.1924 488.0303,2195.6386 363.3213,2260.5814 " fill="none" id="State-backto-IdleState" style="stroke:#A80036;stroke-width:1.8099999999999998;"/><polygon fill="none" points="857.0531,1989.19,895.0269,1983.7057,868.7638,2011.6521,857.0531,1989.19" style="stroke:#A80036;stroke-width:1.8099999999999998;"/><!--MD5=[0607b48f52edf9de41ade643930a150f]
reverse link State to BusyState--><path codeLine="27" d="M932.8559,2038.5849 C855.587,2116.0167 767.0418,2204.761 711.5653,2260.3461 " fill="none" id="State-backto-BusyState" style="stroke:#A80036;stroke-width:1.8099999999999998;"/><polygon fill="none" points="924.0231,2029.4987,958.5579,2012.8286,941.9602,2047.3996,924.0231,2029.4987" style="stroke:#A80036;stroke-width:1.8099999999999998;"/><!--MD5=[02ba31c9e88adbb55a78afdeb6674045]
reverse link State to WorkingState--><path codeLine="28" d="M1087.81,2049.2639 C1087.81,2124.0531 1087.81,2207.295 1087.81,2260.3461 " fill="none" id="State-backto-WorkingState" style="stroke:#A80036;stroke-width:1.8099999999999998;"/><polygon fill="none" points="1075.14,2049.0286,1087.81,2012.8286,1100.48,2049.0286,1075.14,2049.0286" style="stroke:#A80036;stroke-width:1.8099999999999998;"/><!--MD5=[b5c9d30421626da00a9c3634c2664eb7]
reverse link State to TravellingFromState--><path codeLine="29" d="M1236.7368,2039.0917 C1310.6391,2116.3968 1395.2204,2204.8696 1448.2534,2260.3461 " fill="none" id="State-backto-TravellingFromState" style="stroke:#A80036;stroke-width:1.8099999999999998;"/><polygon fill="none" points="1227.4877,2047.7435,1211.6321,2012.8286,1245.8049,2030.2408,1227.4877,2047.7435" style="stroke:#A80036;stroke-width:1.8099999999999998;"/><!--MD5=[b9a8ac8341ebf4100eee95bd027c33b3]
reverse link State to TravellingToState--><path codeLine="30" d="M1312.9559,2001.0636 C1464.5796,2080.3597 1659.1003,2182.0998 1784.9315,2247.9114 " fill="none" id="State-backto-TravellingToState" style="stroke:#A80036;stroke-width:1.8099999999999998;"/><polygon fill="none" points="1307.001,2012.2494,1280.7922,1984.2487,1318.7479,1989.7873,1307.001,2012.2494" style="stroke:#A80036;stroke-width:1.8099999999999998;"/><!--MD5=[473caf973b36cd38b5e5d5da06b82751]
reverse link IExecutionStrategy to Emergency--><path codeLine="10" d="M2936.3811,684.7049 C2982.9524,766.2273 3051.3523,885.9045 3090.8827,955.0646 " fill="none" id="IExecutionStrategy-backto-Emergency" style="stroke:#A80036;stroke-width:1.8099999999999998;"/><polygon fill="none" points="2925.1591,690.6055,2918.1906,652.8851,2947.1506,678.026,2925.1591,690.6055" style="stroke:#A80036;stroke-width:1.8099999999999998;"/><!--MD5=[7342c2a8afea55b6d2b3055a9b5ecdb2]
reverse link IExecutionStrategy to Fake--><path codeLine="11" d="M2883.7463,689.1032 C2880.8865,770.4627 2876.7959,887.1353 2874.4067,955.0646 " fill="none" id="IExecutionStrategy-backto-Fake" style="stroke:#A80036;stroke-width:1.8099999999999998;"/><polygon fill="none" points="2871.0944,688.6145,2885.0314,652.8851,2896.4163,689.5014,2871.0944,688.6145" style="stroke:#A80036;stroke-width:1.8099999999999998;"/><!--MD5=[51a05d4582f85d0fd144f318182fe7ab]
reverse link IEventStrategy to StrategyMz--><path codeLine="11" d="M2277.9936,700.0899 C2304.6006,780.834 2340.7825,890.5562 2362.1767,955.4447 " fill="none" id="IEventStrategy-backto-StrategyMz" style="stroke:#A80036;stroke-width:1.8099999999999998;"/><polygon fill="none" points="2265.8123,703.6194,2266.5182,665.2836,2289.8853,695.6916,2265.8123,703.6194" style="stroke:#A80036;stroke-width:1.8099999999999998;"/><!--MD5=[6dddbfe35ec4609f33e0984953d43661]
reverse link IEventStrategy to StrategyPz--><path codeLine="12" d="M2171.8914,694.678 C2110.8582,775.8746 2025.752,889.0901 1975.8865,955.4447 " fill="none" id="IEventStrategy-backto-StrategyPz" style="stroke:#A80036;stroke-width:1.8099999999999998;"/><polygon fill="none" points="2162.0993,686.6054,2193.9915,665.2836,2182.3532,701.8275,2162.0993,686.6054" style="stroke:#A80036;stroke-width:1.8099999999999998;"/><!--MD5=[690eb6ddbce4f781f85b963796a29379]
reverse link IVector to Vector2--><path codeLine="11" d="M1728.4414,1575.0982 C1744.2246,1625.199 1762.94,1684.4946 1779.6101,1737.419 " fill="none" id="IVector-backto-Vector2" style="stroke:#A80036;stroke-width:1.8099999999999998;"/><polygon fill="none" points="1716.3144,1578.8087,1717.509,1540.4729,1740.4779,1571.1886,1716.3144,1578.8087" style="stroke:#A80036;stroke-width:1.8099999999999998;"/><!--MD5=[60950accb16d50fa84df3bc0d914d397]
link Program to CSVParser--><path codeLine="18" d="M969.798,219.3539 C825.179,291.9892 500.9175,454.8168 331.0852,540.1221 " fill="none" id="Program-CSVParser" style="stroke:#A80036;stroke-width:1.8099999999999998;"/><text fill="#000000" font-family="sans-serif" font-size="23.53" lengthAdjust="spacing" textLength="54.3" x="586.44" y="429.8662">Uses</text><!--MD5=[6aa073de125b9f14d78f57d2bb227e0f]
link Program to Incident--><path codeLine="19" d="M1097.6202,224.5486 C1165.2056,278.6495 1278.7288,379.3398 1343.02,490.51 C1405.9899,599.4177 1443.2397,736.9596 1464.4167,843.1523 " fill="none" id="Program-Incident" style="stroke:#A80036;stroke-width:1.8099999999999998;"/><text fill="#000000" font-family="sans-serif" font-size="23.53" lengthAdjust="spacing" textLength="81.45" x="1433.52" y="606.3412">Creates</text><!--MD5=[c7ae54517f86346da8f7a7f33247dc4d]
reverse link Program to ControlStation--><path codeLine="20" d="M1042.56,248.4225 C1042.56,313.4377 1042.56,414.0375 1042.56,490.0575 " fill="none" id="Program-backto-ControlStation" style="stroke:#A80036;stroke-width:1.8099999999999998;"/><polygon fill="#A80036" points="1042.56,224.5667,1035.32,235.4267,1042.56,246.2867,1049.8,235.4267,1042.56,224.5667" style="stroke:#A80036;stroke-width:1.8099999999999998;"/><!--MD5=[55ec74d9208a2960484f3d673f2fd0f0]
reverse link Incident to Vector2--><path codeLine="22" d="M1699.8977,1170.9252 C1782.7233,1232.972 1858.5442,1289.8784 1858.87,1290.53 C1928.7541,1430.2801 1903.1607,1612.6014 1871.0694,1737.1837 " fill="none" id="Incident-backto-Vector2" style="stroke:#A80036;stroke-width:1.8099999999999998;"/><polygon fill="#FFFFFF" points="1681.0013,1156.7891,1685.3561,1169.0933,1698.3888,1169.8058,1694.0339,1157.5016,1681.0013,1156.7891" style="stroke:#A80036;stroke-width:1.8099999999999998;"/><text fill="#000000" font-family="sans-serif" font-size="23.53" lengthAdjust="spacing" textLength="130.32" x="1905.93" y="1468.8062">Has location</text><!--MD5=[b498f6fe71feeaa1aae13e619c9b9447]
reverse link ControlStation to FireStation--><path codeLine="23" d="M1038.6142,726.4797 C1036.5689,792.9067 1034.1435,871.9675 1032.3516,929.6884 " fill="none" id="ControlStation-backto-FireStation" style="stroke:#A80036;stroke-width:1.8099999999999998;"/><polygon fill="#FFFFFF" points="1039.3382,702.642,1031.7673,713.2739,1038.6695,724.3517,1046.2404,713.7198,1039.3382,702.642" style="stroke:#A80036;stroke-width:1.8099999999999998;"/><!--MD5=[cf032d70b619ab1006df4e835a439789]
reverse link ControlStation to Incident--><path codeLine="24" d="M1173.6945,718.9863 C1215.8856,757.847 1263.4162,801.6309 1308.5576,843.1885 " fill="none" id="ControlStation-backto-Incident" style="stroke:#A80036;stroke-width:1.8099999999999998;"/><polygon fill="#FFFFFF" points="1155.9565,702.642,1159.0509,715.322,1171.9457,717.3425,1168.8513,704.6625,1155.9565,702.642" style="stroke:#A80036;stroke-width:1.8099999999999998;"/><!--MD5=[9c1490dc6f6d2b968cfa23391cf1c527]
link ControlStation to ClosestFireTrucksIterator--><path codeLine="25" d="M931.0097,702.642 C855.6775,773.1777 757.7203,864.8723 688.4878,929.6884 " fill="none" id="ControlStation-ClosestFireTrucksIterator" style="stroke:#A80036;stroke-width:1.8099999999999998;"/><text fill="#000000" font-family="sans-serif" font-size="23.53" lengthAdjust="spacing" textLength="41.63" x="865.18" y="782.8162">Use</text><!--MD5=[46573bf8de5328e4c4cc9c94a453a837]
reverse link FireStation to FireTruck--><path codeLine="26" d="M1043.3745,1116.8967 C1050.1077,1168.4093 1058.4156,1231.9946 1066.0176,1290.1861 " fill="none" id="FireStation-backto-FireTruck" style="stroke:#A80036;stroke-width:1.8099999999999998;"/><polygon fill="#FFFFFF" points="1040.3156,1093.3848,1034.5327,1105.0859,1043.1095,1114.9244,1048.8924,1103.2233,1040.3156,1093.3848" style="stroke:#A80036;stroke-width:1.8099999999999998;"/><text fill="#000000" font-family="sans-serif" font-size="23.53" lengthAdjust="spacing" textLength="12.67" x="1028.2208" y="1131.4289">1</text><text fill="#000000" font-family="sans-serif" font-size="23.53" lengthAdjust="spacing" textLength="57.92" x="1004.0533" y="1271.0566">many</text><!--MD5=[cf1eb8b14e8902124fb9551d385c807f]
reverse link FireSquad to FireTruck--><path codeLine="27" d="M2562.9419,370.7423 C2673.6234,593.318 2804.4864,961.3996 2602.78,1180.12 C2406.0149,1393.4828 1571.623,1184.645 1301.39,1290.53 C1284.3217,1297.227 1267.4887,1305.734 1251.2349,1315.3632 " fill="none" id="FireSquad-backto-FireTruck" style="stroke:#A80036;stroke-width:1.8099999999999998;"/><polygon fill="#FFFFFF" points="2552.3172,349.6558,2550.7428,362.6126,2562.0974,369.0492,2563.6718,356.0925,2552.3172,349.6558" style="stroke:#A80036;stroke-width:1.8099999999999998;"/><text fill="#000000" font-family="sans-serif" font-size="23.53" lengthAdjust="spacing" textLength="12.67" x="2546.8041" y="388.675">1</text><text fill="#000000" font-family="sans-serif" font-size="23.53" lengthAdjust="spacing" textLength="57.92" x="1265.3632" y="1299.2274">many</text><!--MD5=[287df3ec9a01935f3d99cf7765a17ac9]
reverse link FireSquad to Incident--><path codeLine="28" d="M2162.9319,310.0349 C2068.4499,358.742 1966.8727,419.8295 1884.21,490.51 C1766.2885,591.3451 1661.5619,733.0138 1589.7049,842.9532 " fill="none" id="FireSquad-backto-Incident" style="stroke:#A80036;stroke-width:1.8099999999999998;"/><polygon fill="#FFFFFF" points="2184.2356,299.193,2171.2727,297.6696,2164.8808,309.0494,2177.8437,310.5728,2184.2356,299.193" style="stroke:#A80036;stroke-width:1.8099999999999998;"/><text fill="#000000" font-family="sans-serif" font-size="23.53" lengthAdjust="spacing" textLength="12.67" x="2157.2173" y="300.0065">1</text><text fill="#000000" font-family="sans-serif" font-size="23.53" lengthAdjust="spacing" textLength="12.67" x="1584.5048" y="823.8107">1</text><!--MD5=[4d73acb779e39fd68784b6a0a753428f]
reverse link FireTruck to State--><path codeLine="29" d="M1087.81,1651.1363 C1087.81,1684.6756 1087.81,1718.8665 1087.81,1750.2519 " fill="none" id="FireTruck-backto-State" style="stroke:#A80036;stroke-width:1.8099999999999998;"/><polygon fill="#FFFFFF" points="1087.81,1627.4796,1080.57,1638.3396,1087.81,1649.1996,1095.05,1638.3396,1087.81,1627.4796" style="stroke:#A80036;stroke-width:1.8099999999999998;"/><!--MD5=[69821e658e7f7527e55b922214faa41f]
reverse link FireSquad to IEventStrategy--><path codeLine="30" d="M2359.3893,370.9957 C2330.6465,426.8704 2301.0168,484.4827 2279.0253,527.2349 " fill="none" id="FireSquad-backto-IEventStrategy" style="stroke:#A80036;stroke-width:1.8099999999999998;"/><polygon fill="#FFFFFF" points="2370.3398,349.692,2358.9287,356.028,2360.3884,368.9982,2371.7995,362.6622,2370.3398,349.692" style="stroke:#A80036;stroke-width:1.8099999999999998;"/><!--MD5=[77f79cbb0c190a17aeef545490ff0188]
reverse link FireSquad to IExecutionStrategy--><path codeLine="31" d="M2674.6913,365.62 C2688.5016,378.29 2702.0585,391.0324 2715,403.63 C2760.069,447.5044 2807.6539,500.9899 2841.3199,540.1764 " fill="none" id="FireSquad-backto-IExecutionStrategy" style="stroke:#A80036;stroke-width:1.8099999999999998;"/><polygon fill="#FFFFFF" points="2657.0619,349.6196,2660.235,362.2801,2673.142,364.2206,2669.9689,351.56,2657.0619,349.6196" style="stroke:#A80036;stroke-width:1.8099999999999998;"/><!--MD5=[488c0a7ff1bc0355e91a93868e0b6554]
@startuml TO_LAB_5

!include .\\puml-classes\CSVParser.puml
!include .\\puml-classes\ClosestFireTrucksIterator.puml
!include .\\puml-classes\ControlStation.puml
!include .\\puml-classes\FireSquad.puml
!include .\\puml-classes\FireStation.puml
!include .\\puml-classes\Incident.puml
!include .\\puml-classes\IIterator.puml
!include .\\puml-classes\FireTruck.puml
!include .\\puml-classes\State.puml
!include .\\puml-classes\EmergencyExecutionStrategy.puml
!include .\\puml-classes\EmergencyPredictionStrategy.puml
!include .\\puml-classes\IVector.puml
!include .\\puml-classes\Vector2.puml

class Program{}

Program - - CSVParser : "Uses"
Program - - Incident : "Creates"
Program *- - ControlStation

Incident o- - - Vector2 : "Has location"
ControlStation o- - FireStation
ControlStation o- - Incident
ControlStation - - ClosestFireTrucksIterator : "Use"
FireStation "1" o- - "many" FireTruck
FireSquad "1" o- - "many" FireTruck
FireSquad "1" o- - - "1" Incident
FireTruck o- - State
FireSquad o- - IEventStrategy
FireSquad o- - IExecutionStrategy

@enduml

@startuml TO_LAB_5

class CSVParser {
    + {static} LoadStationsFromCSV() : List<FireStation>
}
class ClosestFireTrucksIterator {
    - _fireStations : List<FireStation>
    + hasNext() : bool
    + getNext() : FireTruck
}
"IIterator`1" "<FireTruck>" <|- - ClosestFireTrucksIterator
class ControlStation {
    - <<readonly>> _observators : List<FireStation>
    - <<readonly>> _incidents : List<Incident>
    + ControlStation()
    + RegisterIncident(incident:Incident) : void
    + RegisterFireStations(fireStations:List<FireStation>) : void
}
class FireSquad {
    - name : string
    - _strategy : IEventStrategy
    TrucksString() : string
    + FireSquad(task:Incident)
    + Step1PrepareTeam(fireTrucks:IIterator<FireTruck>) : void
    - <<async>> Step2GoToLocation() : Task
    - <<async>> Step3Investigate() : Task
    + <<override>> ToString() : string
    + <<async>> Go() : void
    - <<async>> Step4Return() : Task
}
class FireStation {
    + Name : string <<get>>
    + FireStation(name:string, position:Vector2)
    + <<override>> ToString() : string
}
class Incident {
    + Incident()
    + <<override>> ToString() : string
    + {static} FirstCharToUpper(input:string) : string
    - objectName : string[]
    - RandomName(type:EventType) : string
    - {static} RandomLocation() : Vector2
    + Name : String <<get>>
    + Type : EventType <<get>>
    + Real : bool <<get>>
    + Location : Vector2 <<get>>
}
enum EventType {
    PZ,
    MZ,
}
Incident +- - EventType
interface "IIterator`1"<out T> {
    hasNext() : bool
    getNext() : T
}
class FireTruck {
    - name : string
    + state : State
    + FireTruck(s:string)
    + <<override>> ToString() : string
    + TransitionTo(_state:State) : void
    + HandleFree() : void
    + HandleTravelTo() : void
    + HandleBusy() : void
    + HandleTravelReturn() : void
    + HandleWork() : void
}
abstract class State {
    # fireTruck : FireTruck
    + SetContext(newTruck:FireTruck) : void
    + <<virtual>> HandleFree() : void
    + <<virtual>> HandleTravelTo() : void
    + <<virtual>> HandleBusy() : void
    + <<virtual>> HandleTravelReturn() : void
    + <<virtual>> HandleWork() : void
}
class IdleState {
    + <<override>> HandleBusy() : void
}
class BusyState {
    + <<override>> HandleTravelTo() : void
}
class WorkingState {
    + <<override>> HandleTravelReturn() : void
}
class TravellingFromState {
    + <<override>> HandleFree() : void
}
class TravellingToState {
    + <<override>> HandleWork() : void
    + <<override>> HandleTravelReturn() : void
}
State <|-D- - IdleState
State <|-D- - BusyState
State <|-D- - WorkingState
State <|-D- - TravellingFromState
State <|-D- - TravellingToState
interface IExecutionStrategy {
    execute() : float
}
class Emergency {
    + execute() : float
}
class Fake {
    + execute() : float
}
IExecutionStrategy <|- - Emergency
IExecutionStrategy <|- - Fake
abstract class IEventStrategy {
    + {abstract} Execute(fireTrucks:IIterator<FireTruck>) : List<FireTruck>
    # GetClosest(fireTrucks:IIterator<FireTruck>, count:int) : List<FireTruck>
}
class StrategyMz {
    + <<override>> Execute() : List<FireTruck>
}
class StrategyPz {
    + <<override>> Execute() : List<FireTruck>
}
IEventStrategy <|- - StrategyMz
IEventStrategy <|- - StrategyPz
interface IVector {
    abs() : double
    cdot(param:IVector) : double
    getComponents() : double[]
}
class Vector2 {
    + X : double <<get>>
    + Y : double <<get>>
    + Vector2(x:double, y:double)
    + abs() : double
    + cdot(param:IVector) : double
    + getComponents() : double[]
    + <<override>> ToString() : string
    + DistanceTo(position:Vector2) : double
}
IVector <|- - Vector2

class Program{}

Program - - CSVParser : "Uses"
Program - - Incident : "Creates"
Program *- - ControlStation

Incident o- - - Vector2 : "Has location"
ControlStation o- - FireStation
ControlStation o- - Incident
ControlStation - - ClosestFireTrucksIterator : "Use"
FireStation "1" o- - "many" FireTruck
FireSquad "1" o- - "many" FireTruck
FireSquad "1" o- - - "1" Incident
FireTruck o- - State
FireSquad o- - IEventStrategy
FireSquad o- - IExecutionStrategy

@enduml

PlantUML version 1.2021.11(Sat Oct 02 15:26:11 CEST 2021)
(GPL source distribution)
Java Runtime: OpenJDK Runtime Environment
JVM: Dynamic Code Evolution 64-Bit Server VM
Default Encoding: Cp1252
Language: en
Country: US
--></g></svg>