<?xml version="1.0" encoding="UTF-8" standalone="no"?><svg xmlns="http://www.w3.org/2000/svg" xmlns:xlink="http://www.w3.org/1999/xlink" contentScriptType="application/ecmascript" contentStyleType="text/css" height="1378px" preserveAspectRatio="none" style="width:1943px;height:1378px;background:#FFFFFF;" version="1.1" viewBox="0 0 1943 1378" width="1943px" zoomAndPan="magnify"><defs><filter height="300%" id="ftifw8odxkx0n" width="300%" x="-1" y="-1"><feGaussianBlur result="blurOut" stdDeviation="2.0"/><feColorMatrix in="blurOut" result="blurOut2" type="matrix" values="0 0 0 0 0 0 0 0 0 0 0 0 0 0 0 0 0 0 .4 0"/><feOffset dx="4.0" dy="4.0" in="blurOut2" result="blurOut3"/><feBlend in="SourceGraphic" in2="blurOut3" mode="normal"/></filter></defs><g><!--MD5=[bcb14a5d1864425c15a4473ca296b0b1]
cluster Iterator--><polygon fill="#FFFFFF" filter="url(#ftifw8odxkx0n)" points="800,277.5,858,277.5,865,301.1094,1008,301.1094,1008,642,800,642,800,277.5" style="stroke:#000000;stroke-width:1.5;"/><line style="stroke:#000000;stroke-width:1.5;" x1="800" x2="865" y1="301.1094" y2="301.1094"/><text fill="#000000" font-family="sans-serif" font-size="14" font-weight="bold" lengthAdjust="spacing" textLength="52" x="804" y="294.0332">Iterator</text><!--MD5=[f14666a6eb306e35ef084e5392334b0c]
cluster Observer--><polygon fill="#FFFFFF" filter="url(#ftifw8odxkx0n)" points="446,257,519,257,526,280.6094,776,280.6094,776,642,446,642,446,257" style="stroke:#000000;stroke-width:1.5;"/><line style="stroke:#000000;stroke-width:1.5;" x1="446" x2="526" y1="280.6094" y2="280.6094"/><text fill="#000000" font-family="sans-serif" font-size="14" font-weight="bold" lengthAdjust="spacing" textLength="67" x="450" y="273.5332">Observer</text><!--MD5=[9637f819ccb2d1556332eb4842cfeb44]
cluster StateMachine--><polygon fill="#FFFFFF" filter="url(#ftifw8odxkx0n)" points="650,968,752,968,759,991.6094,1791,991.6094,1791,1371,650,1371,650,968" style="stroke:#000000;stroke-width:1.5;"/><line style="stroke:#000000;stroke-width:1.5;" x1="650" x2="759" y1="991.6094" y2="991.6094"/><text fill="#000000" font-family="sans-serif" font-size="14" font-weight="bold" lengthAdjust="spacing" textLength="96" x="654" y="984.5332">StateMachine</text><!--MD5=[fa17fd5fc6d55b921fb3753d8045edc1]
cluster ExecutionStrategy--><polygon fill="#FFFFFF" filter="url(#ftifw8odxkx0n)" points="1546,284.5,1680,284.5,1687,308.1094,1820,308.1094,1820,628,1546,628,1546,284.5" style="stroke:#000000;stroke-width:1.5;"/><line style="stroke:#000000;stroke-width:1.5;" x1="1546" x2="1687" y1="308.1094" y2="308.1094"/><text fill="#000000" font-family="sans-serif" font-size="14" font-weight="bold" lengthAdjust="spacing" textLength="128" x="1550" y="301.0332">ExecutionStrategy</text><!--MD5=[e9ff733817f6fb9250a01a6c97dd0c28]
cluster EventStrategy--><polygon fill="#FFFFFF" filter="url(#ftifw8odxkx0n)" points="1032,277.5,1137,277.5,1144,301.1094,1522,301.1094,1522,628,1032,628,1032,277.5" style="stroke:#000000;stroke-width:1.5;"/><line style="stroke:#000000;stroke-width:1.5;" x1="1032" x2="1144" y1="301.1094" y2="301.1094"/><text fill="#000000" font-family="sans-serif" font-size="14" font-weight="bold" lengthAdjust="spacing" textLength="99" x="1036" y="294.0332">EventStrategy</text><!--MD5=[81e2c545057382f0838e58852ba64b7a]
class ClosestFireTrucksIterator--><rect codeLine="3" fill="#FEFECE" filter="url(#ftifw8odxkx0n)" height="89.5078" id="ClosestFireTrucksIterator" style="stroke:#A80036;stroke-width:1.5;" width="176" x="816" y="536"/><ellipse cx="833.25" cy="552" fill="#ADD1B2" rx="11" ry="11" style="stroke:#A80036;stroke-width:1.0;"/><path d="M835.25,548.5 Q835.4531,548 835.6875,547.75 Q835.9219,547.5 836.1875,547.5 Q836.6563,547.5 836.9531,547.7813 Q837.25,548.0625 837.25,548.7188 L837.25,550.2813 Q837.25,550.9375 836.9688,551.2188 Q836.6875,551.5 836.25,551.5 Q835.8594,551.5 835.6094,551.3281 Q835.3594,551.1563 835.25,550.7031 Q835.2031,550.3906 835.0313,550.2188 Q834.7188,549.8906 834.1563,549.7031 Q833.5938,549.5 833.0313,549.5 Q832.3281,549.5 831.7344,549.7813 Q831.1563,550.0625 830.7031,550.6875 Q830.25,551.3125 830.25,552.1719 L830.25,553.0938 Q830.25,554.125 831.0938,554.8125 Q831.9375,555.5 833.4375,555.5 Q834.3281,555.5 834.9531,555.2969 Q835.3125,555.1875 835.7188,554.8281 Q835.9844,554.625 836.125,554.5625 Q836.2656,554.5 836.4375,554.5 Q836.7656,554.5 837,554.7656 Q837.25,555.0156 837.25,555.375 Q837.25,555.7188 836.9063,556.125 Q836.4063,556.7188 835.6094,557.0469 Q834.5625,557.5 833.2813,557.5 Q831.7813,557.5 830.5781,556.9063 Q829.6094,556.4375 828.9219,555.4219 Q828.25,554.4063 828.25,553.2031 L828.25,552.1094 Q828.25,550.8594 828.8438,549.7656 Q829.4531,548.6719 830.5,548.0938 Q831.5625,547.5 832.75,547.5 Q833.4688,547.5 834.0938,547.75 Q834.7188,548 835.25,548.5 Z " fill="#000000"/><text fill="#000000" font-family="sans-serif" font-size="12" lengthAdjust="spacing" textLength="139" x="847.75" y="556.9102">ClosestFireTrucksIterator</text><line style="stroke:#A80036;stroke-width:1.5;" x1="817" x2="991" y1="568" y2="568"/><rect fill="none" height="6" style="stroke:#C82930;stroke-width:1.0;" width="6" x="824" y="576"/><text fill="#000000" font-family="sans-serif" font-size="11" lengthAdjust="spacing" textLength="150" x="836" y="583.4189">_fireStations : List&lt;FireStation&gt;</text><line style="stroke:#A80036;stroke-width:1.5;" x1="817" x2="991" y1="589.8359" y2="589.8359"/><ellipse cx="827" cy="600.8359" fill="#84BE84" rx="3" ry="3" style="stroke:#038048;stroke-width:1.0;"/><text fill="#000000" font-family="sans-serif" font-size="11" lengthAdjust="spacing" textLength="77" x="836" y="605.2549">hasNext() : bool</text><ellipse cx="827" cy="614.6719" fill="#84BE84" rx="3" ry="3" style="stroke:#038048;stroke-width:1.0;"/><text fill="#000000" font-family="sans-serif" font-size="11" lengthAdjust="spacing" textLength="99" x="836" y="619.0908">getNext() : FireTruck</text><!--MD5=[2c7a3ce9c0939093a319e4d9d5a71ad6]
class IIterator`1--><rect codeLine="1" fill="#FEFECE" filter="url(#ftifw8odxkx0n)" height="75.6719" id="IIterator`1" style="stroke:#A80036;stroke-width:1.5;" width="117" x="845.5" y="313.5"/><ellipse cx="860.5" cy="329.5" fill="#B4A7E5" rx="11" ry="11" style="stroke:#A80036;stroke-width:1.0;"/><path d="M861.5,326.5 L861.5,332.5 L863.5,332.5 L863.9844,332.5 L864.5,333.125 L864.5,333.5 L864.5,333.875 L863.9844,334.5 L863.5,334.5 L857.5,334.5 L857.0156,334.5 L856.5,333.875 L856.5,333.5 L856.5,333.125 L857.0156,332.5 L857.5,332.5 L859.5,332.5 L859.5,326.5 L857.5,326.5 L857.0156,326.5 L856.5,325.875 L856.5,325.5 L856.5,325.125 L857.0156,324.5 L857.5,324.5 L863.5,324.5 L863.9844,324.5 L864.5,325.125 L864.5,325.5 L864.5,325.875 L863.9844,326.5 L863.5,326.5 L861.5,326.5 Z " fill="#000000"/><text fill="#000000" font-family="sans-serif" font-size="12" font-style="italic" lengthAdjust="spacing" textLength="54" x="874.5" y="334.4102">IIterator`1</text><rect fill="#FFFFFF" height="17.0938" style="stroke:#000000;stroke-width:1.0;stroke-dasharray:2.0,2.0;" width="29" x="936.5" y="310.5"/><text fill="#000000" font-family="sans-serif" font-size="12" font-style="italic" lengthAdjust="spacing" textLength="27" x="937.5" y="323.957">out T</text><line style="stroke:#A80036;stroke-width:1.5;" x1="846.5" x2="961.5" y1="345.5" y2="345.5"/><line style="stroke:#A80036;stroke-width:1.5;" x1="846.5" x2="961.5" y1="353.5" y2="353.5"/><text fill="#000000" font-family="sans-serif" font-size="11" lengthAdjust="spacing" textLength="77" x="851.5" y="368.9189">hasNext() : bool</text><text fill="#000000" font-family="sans-serif" font-size="11" lengthAdjust="spacing" textLength="60" x="851.5" y="382.7549">getNext() : T</text><!--MD5=[a8538bef97d6952dd507d6ace6f991fb]
class ControlStation--><rect codeLine="3" fill="#FEFECE" filter="url(#ftifw8odxkx0n)" height="117.1797" id="ControlStation" style="stroke:#A80036;stroke-width:1.5;" width="298" x="462" y="293"/><ellipse cx="567.75" cy="309" fill="#ADD1B2" rx="11" ry="11" style="stroke:#A80036;stroke-width:1.0;"/><path d="M569.75,305.5 Q569.9531,305 570.1875,304.75 Q570.4219,304.5 570.6875,304.5 Q571.1563,304.5 571.4531,304.7813 Q571.75,305.0625 571.75,305.7188 L571.75,307.2813 Q571.75,307.9375 571.4688,308.2188 Q571.1875,308.5 570.75,308.5 Q570.3594,308.5 570.1094,308.3281 Q569.8594,308.1563 569.75,307.7031 Q569.7031,307.3906 569.5313,307.2188 Q569.2188,306.8906 568.6563,306.7031 Q568.0938,306.5 567.5313,306.5 Q566.8281,306.5 566.2344,306.7813 Q565.6563,307.0625 565.2031,307.6875 Q564.75,308.3125 564.75,309.1719 L564.75,310.0938 Q564.75,311.125 565.5938,311.8125 Q566.4375,312.5 567.9375,312.5 Q568.8281,312.5 569.4531,312.2969 Q569.8125,312.1875 570.2188,311.8281 Q570.4844,311.625 570.625,311.5625 Q570.7656,311.5 570.9375,311.5 Q571.2656,311.5 571.5,311.7656 Q571.75,312.0156 571.75,312.375 Q571.75,312.7188 571.4063,313.125 Q570.9063,313.7188 570.1094,314.0469 Q569.0625,314.5 567.7813,314.5 Q566.2813,314.5 565.0781,313.9063 Q564.1094,313.4375 563.4219,312.4219 Q562.75,311.4063 562.75,310.2031 L562.75,309.1094 Q562.75,307.8594 563.3438,306.7656 Q563.9531,305.6719 565,305.0938 Q566.0625,304.5 567.25,304.5 Q567.9688,304.5 568.5938,304.75 Q569.2188,305 569.75,305.5 Z " fill="#000000"/><text fill="#000000" font-family="sans-serif" font-size="12" lengthAdjust="spacing" textLength="78" x="588.25" y="313.9102">ControlStation</text><line style="stroke:#A80036;stroke-width:1.5;" x1="463" x2="759" y1="325" y2="325"/><rect fill="none" height="6" style="stroke:#C82930;stroke-width:1.0;" width="6" x="470" y="333"/><text fill="#000000" font-family="sans-serif" font-size="11" lengthAdjust="spacing" textLength="211" x="482" y="340.4189">«readonly» _observators : List&lt;FireStation&gt;</text><rect fill="none" height="6" style="stroke:#C82930;stroke-width:1.0;" width="6" x="470" y="346.8359"/><text fill="#000000" font-family="sans-serif" font-size="11" lengthAdjust="spacing" textLength="181" x="482" y="354.2549">«readonly» _incidents : List&lt;Incident&gt;</text><line style="stroke:#A80036;stroke-width:1.5;" x1="463" x2="759" y1="360.6719" y2="360.6719"/><ellipse cx="473" cy="371.6719" fill="#84BE84" rx="3" ry="3" style="stroke:#038048;stroke-width:1.0;"/><text fill="#000000" font-family="sans-serif" font-size="11" lengthAdjust="spacing" textLength="75" x="482" y="376.0908">ControlStation()</text><ellipse cx="473" cy="385.5078" fill="#84BE84" rx="3" ry="3" style="stroke:#038048;stroke-width:1.0;"/><text fill="#000000" font-family="sans-serif" font-size="11" lengthAdjust="spacing" textLength="191" x="482" y="389.9268">RegisterIncident(incident:Incident) : void</text><ellipse cx="473" cy="399.3438" fill="#84BE84" rx="3" ry="3" style="stroke:#038048;stroke-width:1.0;"/><text fill="#000000" font-family="sans-serif" font-size="11" lengthAdjust="spacing" textLength="272" x="482" y="403.7627">RegisterFireStations(fireStations:List&lt;FireStation&gt;) : void</text><!--MD5=[20b905dff0786ca8d47f0c935b848fc7]
class FireStation--><rect codeLine="3" fill="#FEFECE" filter="url(#ftifw8odxkx0n)" height="89.5078" id="FireStation" style="stroke:#A80036;stroke-width:1.5;" width="226" x="525" y="536"/><ellipse cx="604.25" cy="552" fill="#ADD1B2" rx="11" ry="11" style="stroke:#A80036;stroke-width:1.0;"/><path d="M606.25,548.5 Q606.4531,548 606.6875,547.75 Q606.9219,547.5 607.1875,547.5 Q607.6563,547.5 607.9531,547.7813 Q608.25,548.0625 608.25,548.7188 L608.25,550.2813 Q608.25,550.9375 607.9688,551.2188 Q607.6875,551.5 607.25,551.5 Q606.8594,551.5 606.6094,551.3281 Q606.3594,551.1563 606.25,550.7031 Q606.2031,550.3906 606.0313,550.2188 Q605.7188,549.8906 605.1563,549.7031 Q604.5938,549.5 604.0313,549.5 Q603.3281,549.5 602.7344,549.7813 Q602.1563,550.0625 601.7031,550.6875 Q601.25,551.3125 601.25,552.1719 L601.25,553.0938 Q601.25,554.125 602.0938,554.8125 Q602.9375,555.5 604.4375,555.5 Q605.3281,555.5 605.9531,555.2969 Q606.3125,555.1875 606.7188,554.8281 Q606.9844,554.625 607.125,554.5625 Q607.2656,554.5 607.4375,554.5 Q607.7656,554.5 608,554.7656 Q608.25,555.0156 608.25,555.375 Q608.25,555.7188 607.9063,556.125 Q607.4063,556.7188 606.6094,557.0469 Q605.5625,557.5 604.2813,557.5 Q602.7813,557.5 601.5781,556.9063 Q600.6094,556.4375 599.9219,555.4219 Q599.25,554.4063 599.25,553.2031 L599.25,552.1094 Q599.25,550.8594 599.8438,549.7656 Q600.4531,548.6719 601.5,548.0938 Q602.5625,547.5 603.75,547.5 Q604.4688,547.5 605.0938,547.75 Q605.7188,548 606.25,548.5 Z " fill="#000000"/><text fill="#000000" font-family="sans-serif" font-size="12" lengthAdjust="spacing" textLength="59" x="624.75" y="556.9102">FireStation</text><line style="stroke:#A80036;stroke-width:1.5;" x1="526" x2="750" y1="568" y2="568"/><ellipse cx="536" cy="579" rx="3" ry="3" style="stroke:#038048;stroke-width:1.0;fill:none;"/><text fill="#000000" font-family="sans-serif" font-size="11" lengthAdjust="spacing" textLength="93" x="545" y="583.4189">Name : string «get»</text><line style="stroke:#A80036;stroke-width:1.5;" x1="526" x2="750" y1="589.8359" y2="589.8359"/><ellipse cx="536" cy="600.8359" fill="#84BE84" rx="3" ry="3" style="stroke:#038048;stroke-width:1.0;"/><text fill="#000000" font-family="sans-serif" font-size="11" lengthAdjust="spacing" textLength="200" x="545" y="605.2549">FireStation(name:string, position:Vector2)</text><ellipse cx="536" cy="614.6719" fill="#84BE84" rx="3" ry="3" style="stroke:#038048;stroke-width:1.0;"/><text fill="#000000" font-family="sans-serif" font-size="11" lengthAdjust="spacing" textLength="139" x="545" y="619.0908">«override» ToString() : string</text><!--MD5=[60d6b92408f98aed8df94d5c6e04aa63]
class State--><rect codeLine="3" fill="#FEFECE" filter="url(#ftifw8odxkx0n)" height="144.8516" id="State" style="stroke:#A80036;stroke-width:1.5;" width="213" x="1105.5" y="1004"/><ellipse cx="1193.75" cy="1020" fill="#A9DCDF" rx="11" ry="11" style="stroke:#A80036;stroke-width:1.0;"/><path d="M1195.5,1021.5 L1192.2031,1021.5 L1191.7656,1022.5 L1191.7656,1022.5 L1192.2344,1022.5 L1192.75,1023.125 L1192.75,1023.5 L1192.75,1023.875 L1192.2344,1024.5 L1191.7656,1024.5 L1189.875,1024.5 L1189.2656,1024.5 L1188.75,1023.875 L1188.75,1023.5 L1188.75,1023.125 L1189.2656,1022.5 L1189.875,1022.5 L1192.1875,1016.5 L1191.3125,1016.5 L1190.2656,1016.5 L1189.75,1015.875 L1189.75,1015.5 L1189.75,1015.125 L1190.2656,1014.5 L1191.3125,1014.5 L1194.9844,1014.5 L1197.6719,1022.5 L1198.2344,1022.5 L1198.2344,1022.5 L1198.75,1023.125 L1198.75,1023.5 L1198.75,1023.875 L1198.2344,1024.5 L1197.6719,1024.5 L1195.7813,1024.5 L1195.2656,1024.5 L1194.75,1023.875 L1194.75,1023.5 L1194.75,1023.125 L1195.2656,1022.5 L1195.7813,1022.5 L1195.7813,1022.5 L1195.5,1021.5 Z M1194.9531,1019.5 L1193.75,1015.9219 L1192.7188,1019.5 L1194.9531,1019.5 Z " fill="#000000"/><text fill="#000000" font-family="sans-serif" font-size="12" font-style="italic" lengthAdjust="spacing" textLength="28" x="1214.25" y="1024.9102">State</text><line style="stroke:#A80036;stroke-width:1.5;" x1="1106.5" x2="1317.5" y1="1036" y2="1036"/><polygon fill="none" points="1116.5,1042,1120.5,1046,1116.5,1050,1112.5,1046" style="stroke:#B38D22;stroke-width:1.0;"/><text fill="#000000" font-family="sans-serif" font-size="11" lengthAdjust="spacing" textLength="97" x="1125.5" y="1051.4189">fireTruck : FireTruck</text><line style="stroke:#A80036;stroke-width:1.5;" x1="1106.5" x2="1317.5" y1="1057.8359" y2="1057.8359"/><ellipse cx="1116.5" cy="1068.8359" fill="#84BE84" rx="3" ry="3" style="stroke:#038048;stroke-width:1.0;"/><text fill="#000000" font-family="sans-serif" font-size="11" lengthAdjust="spacing" textLength="187" x="1125.5" y="1073.2549">SetContext(newTruck:FireTruck) : void</text><ellipse cx="1116.5" cy="1082.6719" fill="#84BE84" rx="3" ry="3" style="stroke:#038048;stroke-width:1.0;"/><text fill="#000000" font-family="sans-serif" font-size="11" lengthAdjust="spacing" textLength="136" x="1125.5" y="1087.0908">«virtual» HandleFree() : void</text><ellipse cx="1116.5" cy="1096.5078" fill="#84BE84" rx="3" ry="3" style="stroke:#038048;stroke-width:1.0;"/><text fill="#000000" font-family="sans-serif" font-size="11" lengthAdjust="spacing" textLength="156" x="1125.5" y="1100.9268">«virtual» HandleTravelTo() : void</text><ellipse cx="1116.5" cy="1110.3438" fill="#84BE84" rx="3" ry="3" style="stroke:#038048;stroke-width:1.0;"/><text fill="#000000" font-family="sans-serif" font-size="11" lengthAdjust="spacing" textLength="139" x="1125.5" y="1114.7627">«virtual» HandleBusy() : void</text><ellipse cx="1116.5" cy="1124.1797" fill="#84BE84" rx="3" ry="3" style="stroke:#038048;stroke-width:1.0;"/><text fill="#000000" font-family="sans-serif" font-size="11" lengthAdjust="spacing" textLength="176" x="1125.5" y="1128.5986">«virtual» HandleTravelReturn() : void</text><ellipse cx="1116.5" cy="1138.0156" fill="#84BE84" rx="3" ry="3" style="stroke:#038048;stroke-width:1.0;"/><text fill="#000000" font-family="sans-serif" font-size="11" lengthAdjust="spacing" textLength="139" x="1125.5" y="1142.4346">«virtual» HandleWork() : void</text><!--MD5=[49c293e7b586f80bbf4013178c064b81]
class IdleState--><rect codeLine="12" fill="#FEFECE" filter="url(#ftifw8odxkx0n)" height="61.8359" id="IdleState" style="stroke:#A80036;stroke-width:1.5;" width="176" x="666" y="1286"/><ellipse cx="725.75" cy="1302" fill="#ADD1B2" rx="11" ry="11" style="stroke:#A80036;stroke-width:1.0;"/><path d="M727.75,1298.5 Q727.9531,1298 728.1875,1297.75 Q728.4219,1297.5 728.6875,1297.5 Q729.1563,1297.5 729.4531,1297.7813 Q729.75,1298.0625 729.75,1298.7188 L729.75,1300.2813 Q729.75,1300.9375 729.4688,1301.2188 Q729.1875,1301.5 728.75,1301.5 Q728.3594,1301.5 728.1094,1301.3281 Q727.8594,1301.1563 727.75,1300.7031 Q727.7031,1300.3906 727.5313,1300.2188 Q727.2188,1299.8906 726.6563,1299.7031 Q726.0938,1299.5 725.5313,1299.5 Q724.8281,1299.5 724.2344,1299.7813 Q723.6563,1300.0625 723.2031,1300.6875 Q722.75,1301.3125 722.75,1302.1719 L722.75,1303.0938 Q722.75,1304.125 723.5938,1304.8125 Q724.4375,1305.5 725.9375,1305.5 Q726.8281,1305.5 727.4531,1305.2969 Q727.8125,1305.1875 728.2188,1304.8281 Q728.4844,1304.625 728.625,1304.5625 Q728.7656,1304.5 728.9375,1304.5 Q729.2656,1304.5 729.5,1304.7656 Q729.75,1305.0156 729.75,1305.375 Q729.75,1305.7188 729.4063,1306.125 Q728.9063,1306.7188 728.1094,1307.0469 Q727.0625,1307.5 725.7813,1307.5 Q724.2813,1307.5 723.0781,1306.9063 Q722.1094,1306.4375 721.4219,1305.4219 Q720.75,1304.4063 720.75,1303.2031 L720.75,1302.1094 Q720.75,1300.8594 721.3438,1299.7656 Q721.9531,1298.6719 723,1298.0938 Q724.0625,1297.5 725.25,1297.5 Q725.9688,1297.5 726.5938,1297.75 Q727.2188,1298 727.75,1298.5 Z " fill="#000000"/><text fill="#000000" font-family="sans-serif" font-size="12" lengthAdjust="spacing" textLength="48" x="746.25" y="1306.9102">IdleState</text><line style="stroke:#A80036;stroke-width:1.5;" x1="667" x2="841" y1="1318" y2="1318"/><line style="stroke:#A80036;stroke-width:1.5;" x1="667" x2="841" y1="1326" y2="1326"/><ellipse cx="677" cy="1337" fill="#84BE84" rx="3" ry="3" style="stroke:#038048;stroke-width:1.0;"/><text fill="#000000" font-family="sans-serif" font-size="11" lengthAdjust="spacing" textLength="150" x="686" y="1341.4189">«override» HandleBusy() : void</text><!--MD5=[baed7757e7ac533b1c299b01477eb642]
class BusyState--><rect codeLine="15" fill="#FEFECE" filter="url(#ftifw8odxkx0n)" height="61.8359" id="BusyState" style="stroke:#A80036;stroke-width:1.5;" width="193" x="877.5" y="1286"/><ellipse cx="942.25" cy="1302" fill="#ADD1B2" rx="11" ry="11" style="stroke:#A80036;stroke-width:1.0;"/><path d="M944.25,1298.5 Q944.4531,1298 944.6875,1297.75 Q944.9219,1297.5 945.1875,1297.5 Q945.6563,1297.5 945.9531,1297.7813 Q946.25,1298.0625 946.25,1298.7188 L946.25,1300.2813 Q946.25,1300.9375 945.9688,1301.2188 Q945.6875,1301.5 945.25,1301.5 Q944.8594,1301.5 944.6094,1301.3281 Q944.3594,1301.1563 944.25,1300.7031 Q944.2031,1300.3906 944.0313,1300.2188 Q943.7188,1299.8906 943.1563,1299.7031 Q942.5938,1299.5 942.0313,1299.5 Q941.3281,1299.5 940.7344,1299.7813 Q940.1563,1300.0625 939.7031,1300.6875 Q939.25,1301.3125 939.25,1302.1719 L939.25,1303.0938 Q939.25,1304.125 940.0938,1304.8125 Q940.9375,1305.5 942.4375,1305.5 Q943.3281,1305.5 943.9531,1305.2969 Q944.3125,1305.1875 944.7188,1304.8281 Q944.9844,1304.625 945.125,1304.5625 Q945.2656,1304.5 945.4375,1304.5 Q945.7656,1304.5 946,1304.7656 Q946.25,1305.0156 946.25,1305.375 Q946.25,1305.7188 945.9063,1306.125 Q945.4063,1306.7188 944.6094,1307.0469 Q943.5625,1307.5 942.2813,1307.5 Q940.7813,1307.5 939.5781,1306.9063 Q938.6094,1306.4375 937.9219,1305.4219 Q937.25,1304.4063 937.25,1303.2031 L937.25,1302.1094 Q937.25,1300.8594 937.8438,1299.7656 Q938.4531,1298.6719 939.5,1298.0938 Q940.5625,1297.5 941.75,1297.5 Q942.4688,1297.5 943.0938,1297.75 Q943.7188,1298 944.25,1298.5 Z " fill="#000000"/><text fill="#000000" font-family="sans-serif" font-size="12" lengthAdjust="spacing" textLength="55" x="962.75" y="1306.9102">BusyState</text><line style="stroke:#A80036;stroke-width:1.5;" x1="878.5" x2="1069.5" y1="1318" y2="1318"/><line style="stroke:#A80036;stroke-width:1.5;" x1="878.5" x2="1069.5" y1="1326" y2="1326"/><ellipse cx="888.5" cy="1337" fill="#84BE84" rx="3" ry="3" style="stroke:#038048;stroke-width:1.0;"/><text fill="#000000" font-family="sans-serif" font-size="11" lengthAdjust="spacing" textLength="167" x="897.5" y="1341.4189">«override» HandleTravelTo() : void</text><!--MD5=[119f702f9554fb0b67e2e22dd5eed024]
class WorkingState--><rect codeLine="18" fill="#FEFECE" filter="url(#ftifw8odxkx0n)" height="61.8359" id="WorkingState" style="stroke:#A80036;stroke-width:1.5;" width="213" x="1105.5" y="1286"/><ellipse cx="1171.25" cy="1302" fill="#ADD1B2" rx="11" ry="11" style="stroke:#A80036;stroke-width:1.0;"/><path d="M1173.25,1298.5 Q1173.4531,1298 1173.6875,1297.75 Q1173.9219,1297.5 1174.1875,1297.5 Q1174.6563,1297.5 1174.9531,1297.7813 Q1175.25,1298.0625 1175.25,1298.7188 L1175.25,1300.2813 Q1175.25,1300.9375 1174.9688,1301.2188 Q1174.6875,1301.5 1174.25,1301.5 Q1173.8594,1301.5 1173.6094,1301.3281 Q1173.3594,1301.1563 1173.25,1300.7031 Q1173.2031,1300.3906 1173.0313,1300.2188 Q1172.7188,1299.8906 1172.1563,1299.7031 Q1171.5938,1299.5 1171.0313,1299.5 Q1170.3281,1299.5 1169.7344,1299.7813 Q1169.1563,1300.0625 1168.7031,1300.6875 Q1168.25,1301.3125 1168.25,1302.1719 L1168.25,1303.0938 Q1168.25,1304.125 1169.0938,1304.8125 Q1169.9375,1305.5 1171.4375,1305.5 Q1172.3281,1305.5 1172.9531,1305.2969 Q1173.3125,1305.1875 1173.7188,1304.8281 Q1173.9844,1304.625 1174.125,1304.5625 Q1174.2656,1304.5 1174.4375,1304.5 Q1174.7656,1304.5 1175,1304.7656 Q1175.25,1305.0156 1175.25,1305.375 Q1175.25,1305.7188 1174.9063,1306.125 Q1174.4063,1306.7188 1173.6094,1307.0469 Q1172.5625,1307.5 1171.2813,1307.5 Q1169.7813,1307.5 1168.5781,1306.9063 Q1167.6094,1306.4375 1166.9219,1305.4219 Q1166.25,1304.4063 1166.25,1303.2031 L1166.25,1302.1094 Q1166.25,1300.8594 1166.8438,1299.7656 Q1167.4531,1298.6719 1168.5,1298.0938 Q1169.5625,1297.5 1170.75,1297.5 Q1171.4688,1297.5 1172.0938,1297.75 Q1172.7188,1298 1173.25,1298.5 Z " fill="#000000"/><text fill="#000000" font-family="sans-serif" font-size="12" lengthAdjust="spacing" textLength="73" x="1191.75" y="1306.9102">WorkingState</text><line style="stroke:#A80036;stroke-width:1.5;" x1="1106.5" x2="1317.5" y1="1318" y2="1318"/><line style="stroke:#A80036;stroke-width:1.5;" x1="1106.5" x2="1317.5" y1="1326" y2="1326"/><ellipse cx="1116.5" cy="1337" fill="#84BE84" rx="3" ry="3" style="stroke:#038048;stroke-width:1.0;"/><text fill="#000000" font-family="sans-serif" font-size="11" lengthAdjust="spacing" textLength="187" x="1125.5" y="1341.4189">«override» HandleTravelReturn() : void</text><!--MD5=[11946eeffcb508ae86b46d54e5e26606]
class TravellingFromState--><rect codeLine="21" fill="#FEFECE" filter="url(#ftifw8odxkx0n)" height="61.8359" id="TravellingFromState" style="stroke:#A80036;stroke-width:1.5;" width="173" x="1353.5" y="1286"/><ellipse cx="1382.45" cy="1302" fill="#ADD1B2" rx="11" ry="11" style="stroke:#A80036;stroke-width:1.0;"/><path d="M1384.45,1298.5 Q1384.6531,1298 1384.8875,1297.75 Q1385.1219,1297.5 1385.3875,1297.5 Q1385.8563,1297.5 1386.1531,1297.7813 Q1386.45,1298.0625 1386.45,1298.7188 L1386.45,1300.2813 Q1386.45,1300.9375 1386.1688,1301.2188 Q1385.8875,1301.5 1385.45,1301.5 Q1385.0594,1301.5 1384.8094,1301.3281 Q1384.5594,1301.1563 1384.45,1300.7031 Q1384.4031,1300.3906 1384.2313,1300.2188 Q1383.9188,1299.8906 1383.3563,1299.7031 Q1382.7938,1299.5 1382.2313,1299.5 Q1381.5281,1299.5 1380.9344,1299.7813 Q1380.3563,1300.0625 1379.9031,1300.6875 Q1379.45,1301.3125 1379.45,1302.1719 L1379.45,1303.0938 Q1379.45,1304.125 1380.2938,1304.8125 Q1381.1375,1305.5 1382.6375,1305.5 Q1383.5281,1305.5 1384.1531,1305.2969 Q1384.5125,1305.1875 1384.9188,1304.8281 Q1385.1844,1304.625 1385.325,1304.5625 Q1385.4656,1304.5 1385.6375,1304.5 Q1385.9656,1304.5 1386.2,1304.7656 Q1386.45,1305.0156 1386.45,1305.375 Q1386.45,1305.7188 1386.1063,1306.125 Q1385.6063,1306.7188 1384.8094,1307.0469 Q1383.7625,1307.5 1382.4813,1307.5 Q1380.9813,1307.5 1379.7781,1306.9063 Q1378.8094,1306.4375 1378.1219,1305.4219 Q1377.45,1304.4063 1377.45,1303.2031 L1377.45,1302.1094 Q1377.45,1300.8594 1378.0438,1299.7656 Q1378.6531,1298.6719 1379.7,1298.0938 Q1380.7625,1297.5 1381.95,1297.5 Q1382.6688,1297.5 1383.2938,1297.75 Q1383.9188,1298 1384.45,1298.5 Z " fill="#000000"/><text fill="#000000" font-family="sans-serif" font-size="12" lengthAdjust="spacing" textLength="110" x="1399.55" y="1306.9102">TravellingFromState</text><line style="stroke:#A80036;stroke-width:1.5;" x1="1354.5" x2="1525.5" y1="1318" y2="1318"/><line style="stroke:#A80036;stroke-width:1.5;" x1="1354.5" x2="1525.5" y1="1326" y2="1326"/><ellipse cx="1364.5" cy="1337" fill="#84BE84" rx="3" ry="3" style="stroke:#038048;stroke-width:1.0;"/><text fill="#000000" font-family="sans-serif" font-size="11" lengthAdjust="spacing" textLength="147" x="1373.5" y="1341.4189">«override» HandleFree() : void</text><!--MD5=[66927e23199f04ebbf5d8f2d7e82a9c5]
class TravellingToState--><rect codeLine="24" fill="#FEFECE" filter="url(#ftifw8odxkx0n)" height="75.6719" id="TravellingToState" style="stroke:#A80036;stroke-width:1.5;" width="213" x="1561.5" y="1279"/><ellipse cx="1616.25" cy="1295" fill="#ADD1B2" rx="11" ry="11" style="stroke:#A80036;stroke-width:1.0;"/><path d="M1618.25,1291.5 Q1618.4531,1291 1618.6875,1290.75 Q1618.9219,1290.5 1619.1875,1290.5 Q1619.6563,1290.5 1619.9531,1290.7813 Q1620.25,1291.0625 1620.25,1291.7188 L1620.25,1293.2813 Q1620.25,1293.9375 1619.9688,1294.2188 Q1619.6875,1294.5 1619.25,1294.5 Q1618.8594,1294.5 1618.6094,1294.3281 Q1618.3594,1294.1563 1618.25,1293.7031 Q1618.2031,1293.3906 1618.0313,1293.2188 Q1617.7188,1292.8906 1617.1563,1292.7031 Q1616.5938,1292.5 1616.0313,1292.5 Q1615.3281,1292.5 1614.7344,1292.7813 Q1614.1563,1293.0625 1613.7031,1293.6875 Q1613.25,1294.3125 1613.25,1295.1719 L1613.25,1296.0938 Q1613.25,1297.125 1614.0938,1297.8125 Q1614.9375,1298.5 1616.4375,1298.5 Q1617.3281,1298.5 1617.9531,1298.2969 Q1618.3125,1298.1875 1618.7188,1297.8281 Q1618.9844,1297.625 1619.125,1297.5625 Q1619.2656,1297.5 1619.4375,1297.5 Q1619.7656,1297.5 1620,1297.7656 Q1620.25,1298.0156 1620.25,1298.375 Q1620.25,1298.7188 1619.9063,1299.125 Q1619.4063,1299.7188 1618.6094,1300.0469 Q1617.5625,1300.5 1616.2813,1300.5 Q1614.7813,1300.5 1613.5781,1299.9063 Q1612.6094,1299.4375 1611.9219,1298.4219 Q1611.25,1297.4063 1611.25,1296.2031 L1611.25,1295.1094 Q1611.25,1293.8594 1611.8438,1292.7656 Q1612.4531,1291.6719 1613.5,1291.0938 Q1614.5625,1290.5 1615.75,1290.5 Q1616.4688,1290.5 1617.0938,1290.75 Q1617.7188,1291 1618.25,1291.5 Z " fill="#000000"/><text fill="#000000" font-family="sans-serif" font-size="12" lengthAdjust="spacing" textLength="95" x="1636.75" y="1299.9102">TravellingToState</text><line style="stroke:#A80036;stroke-width:1.5;" x1="1562.5" x2="1773.5" y1="1311" y2="1311"/><line style="stroke:#A80036;stroke-width:1.5;" x1="1562.5" x2="1773.5" y1="1319" y2="1319"/><ellipse cx="1572.5" cy="1330" fill="#84BE84" rx="3" ry="3" style="stroke:#038048;stroke-width:1.0;"/><text fill="#000000" font-family="sans-serif" font-size="11" lengthAdjust="spacing" textLength="150" x="1581.5" y="1334.4189">«override» HandleWork() : void</text><ellipse cx="1572.5" cy="1343.8359" fill="#84BE84" rx="3" ry="3" style="stroke:#038048;stroke-width:1.0;"/><text fill="#000000" font-family="sans-serif" font-size="11" lengthAdjust="spacing" textLength="187" x="1581.5" y="1348.2549">«override» HandleTravelReturn() : void</text><!--MD5=[299df6412cb7f1c0a479276b8c1d8efa]
class IExecutionStrategy--><rect codeLine="3" fill="#FEFECE" filter="url(#ftifw8odxkx0n)" height="61.8359" id="IExecutionStrategy" style="stroke:#A80036;stroke-width:1.5;" width="135" x="1562.5" y="320.5"/><ellipse cx="1577.5" cy="336.5" fill="#B4A7E5" rx="11" ry="11" style="stroke:#A80036;stroke-width:1.0;"/><path d="M1578.5,333.5 L1578.5,339.5 L1580.5,339.5 L1580.9844,339.5 L1581.5,340.125 L1581.5,340.5 L1581.5,340.875 L1580.9844,341.5 L1580.5,341.5 L1574.5,341.5 L1574.0156,341.5 L1573.5,340.875 L1573.5,340.5 L1573.5,340.125 L1574.0156,339.5 L1574.5,339.5 L1576.5,339.5 L1576.5,333.5 L1574.5,333.5 L1574.0156,333.5 L1573.5,332.875 L1573.5,332.5 L1573.5,332.125 L1574.0156,331.5 L1574.5,331.5 L1580.5,331.5 L1580.9844,331.5 L1581.5,332.125 L1581.5,332.5 L1581.5,332.875 L1580.9844,333.5 L1580.5,333.5 L1578.5,333.5 Z " fill="#000000"/><text fill="#000000" font-family="sans-serif" font-size="12" font-style="italic" lengthAdjust="spacing" textLength="103" x="1591.5" y="341.4102">IExecutionStrategy</text><line style="stroke:#A80036;stroke-width:1.5;" x1="1563.5" x2="1696.5" y1="352.5" y2="352.5"/><line style="stroke:#A80036;stroke-width:1.5;" x1="1563.5" x2="1696.5" y1="360.5" y2="360.5"/><text fill="#000000" font-family="sans-serif" font-size="11" lengthAdjust="spacing" textLength="77" x="1568.5" y="375.9189">execute() : float</text><!--MD5=[4fb047ded990add450a669c5a257225d]
class Emergency--><rect codeLine="6" fill="#FEFECE" filter="url(#ftifw8odxkx0n)" height="61.8359" id="Emergency" style="stroke:#A80036;stroke-width:1.5;" width="103" x="1562.5" y="550"/><ellipse cx="1581.55" cy="566" fill="#ADD1B2" rx="11" ry="11" style="stroke:#A80036;stroke-width:1.0;"/><path d="M1583.55,562.5 Q1583.7531,562 1583.9875,561.75 Q1584.2219,561.5 1584.4875,561.5 Q1584.9563,561.5 1585.2531,561.7813 Q1585.55,562.0625 1585.55,562.7188 L1585.55,564.2813 Q1585.55,564.9375 1585.2688,565.2188 Q1584.9875,565.5 1584.55,565.5 Q1584.1594,565.5 1583.9094,565.3281 Q1583.6594,565.1563 1583.55,564.7031 Q1583.5031,564.3906 1583.3313,564.2188 Q1583.0188,563.8906 1582.4563,563.7031 Q1581.8938,563.5 1581.3313,563.5 Q1580.6281,563.5 1580.0344,563.7813 Q1579.4563,564.0625 1579.0031,564.6875 Q1578.55,565.3125 1578.55,566.1719 L1578.55,567.0938 Q1578.55,568.125 1579.3938,568.8125 Q1580.2375,569.5 1581.7375,569.5 Q1582.6281,569.5 1583.2531,569.2969 Q1583.6125,569.1875 1584.0188,568.8281 Q1584.2844,568.625 1584.425,568.5625 Q1584.5656,568.5 1584.7375,568.5 Q1585.0656,568.5 1585.3,568.7656 Q1585.55,569.0156 1585.55,569.375 Q1585.55,569.7188 1585.2063,570.125 Q1584.7063,570.7188 1583.9094,571.0469 Q1582.8625,571.5 1581.5813,571.5 Q1580.0813,571.5 1578.8781,570.9063 Q1577.9094,570.4375 1577.2219,569.4219 Q1576.55,568.4063 1576.55,567.2031 L1576.55,566.1094 Q1576.55,564.8594 1577.1438,563.7656 Q1577.7531,562.6719 1578.8,562.0938 Q1579.8625,561.5 1581.05,561.5 Q1581.7688,561.5 1582.3938,561.75 Q1583.0188,562 1583.55,562.5 Z " fill="#000000"/><text fill="#000000" font-family="sans-serif" font-size="12" lengthAdjust="spacing" textLength="62" x="1596.45" y="570.9102">Emergency</text><line style="stroke:#A80036;stroke-width:1.5;" x1="1563.5" x2="1664.5" y1="582" y2="582"/><line style="stroke:#A80036;stroke-width:1.5;" x1="1563.5" x2="1664.5" y1="590" y2="590"/><ellipse cx="1573.5" cy="601" fill="#84BE84" rx="3" ry="3" style="stroke:#038048;stroke-width:1.0;"/><text fill="#000000" font-family="sans-serif" font-size="11" lengthAdjust="spacing" textLength="77" x="1582.5" y="605.4189">execute() : float</text><!--MD5=[9931e02840d41b042444b5d87a162ae8]
class Fake--><rect codeLine="9" fill="#FEFECE" filter="url(#ftifw8odxkx0n)" height="61.8359" id="Fake" style="stroke:#A80036;stroke-width:1.5;" width="103" x="1700.5" y="550"/><ellipse cx="1735.3" cy="566" fill="#ADD1B2" rx="11" ry="11" style="stroke:#A80036;stroke-width:1.0;"/><path d="M1737.3,562.5 Q1737.5031,562 1737.7375,561.75 Q1737.9719,561.5 1738.2375,561.5 Q1738.7063,561.5 1739.0031,561.7813 Q1739.3,562.0625 1739.3,562.7188 L1739.3,564.2813 Q1739.3,564.9375 1739.0188,565.2188 Q1738.7375,565.5 1738.3,565.5 Q1737.9094,565.5 1737.6594,565.3281 Q1737.4094,565.1563 1737.3,564.7031 Q1737.2531,564.3906 1737.0813,564.2188 Q1736.7688,563.8906 1736.2063,563.7031 Q1735.6438,563.5 1735.0813,563.5 Q1734.3781,563.5 1733.7844,563.7813 Q1733.2063,564.0625 1732.7531,564.6875 Q1732.3,565.3125 1732.3,566.1719 L1732.3,567.0938 Q1732.3,568.125 1733.1438,568.8125 Q1733.9875,569.5 1735.4875,569.5 Q1736.3781,569.5 1737.0031,569.2969 Q1737.3625,569.1875 1737.7688,568.8281 Q1738.0344,568.625 1738.175,568.5625 Q1738.3156,568.5 1738.4875,568.5 Q1738.8156,568.5 1739.05,568.7656 Q1739.3,569.0156 1739.3,569.375 Q1739.3,569.7188 1738.9563,570.125 Q1738.4563,570.7188 1737.6594,571.0469 Q1736.6125,571.5 1735.3313,571.5 Q1733.8313,571.5 1732.6281,570.9063 Q1731.6594,570.4375 1730.9719,569.4219 Q1730.3,568.4063 1730.3,567.2031 L1730.3,566.1094 Q1730.3,564.8594 1730.8938,563.7656 Q1731.5031,562.6719 1732.55,562.0938 Q1733.6125,561.5 1734.8,561.5 Q1735.5188,561.5 1736.1438,561.75 Q1736.7688,562 1737.3,562.5 Z " fill="#000000"/><text fill="#000000" font-family="sans-serif" font-size="12" lengthAdjust="spacing" textLength="27" x="1753.7" y="570.9102">Fake</text><line style="stroke:#A80036;stroke-width:1.5;" x1="1701.5" x2="1802.5" y1="582" y2="582"/><line style="stroke:#A80036;stroke-width:1.5;" x1="1701.5" x2="1802.5" y1="590" y2="590"/><ellipse cx="1711.5" cy="601" fill="#84BE84" rx="3" ry="3" style="stroke:#038048;stroke-width:1.0;"/><text fill="#000000" font-family="sans-serif" font-size="11" lengthAdjust="spacing" textLength="77" x="1720.5" y="605.4189">execute() : float</text><!--MD5=[bbff3ceeffb6f45eac3c69e23d3da763]
class IEventStrategy--><rect codeLine="3" fill="#FEFECE" filter="url(#ftifw8odxkx0n)" height="75.6719" id="IEventStrategy" style="stroke:#A80036;stroke-width:1.5;" width="362" x="1144" y="313.5"/><ellipse cx="1280.75" cy="329.5" fill="#A9DCDF" rx="11" ry="11" style="stroke:#A80036;stroke-width:1.0;"/><path d="M1282.5,331 L1279.2031,331 L1278.7656,332 L1278.7656,332 L1279.2344,332 L1279.75,332.625 L1279.75,333 L1279.75,333.375 L1279.2344,334 L1278.7656,334 L1276.875,334 L1276.2656,334 L1275.75,333.375 L1275.75,333 L1275.75,332.625 L1276.2656,332 L1276.875,332 L1279.1875,326 L1278.3125,326 L1277.2656,326 L1276.75,325.375 L1276.75,325 L1276.75,324.625 L1277.2656,324 L1278.3125,324 L1281.9844,324 L1284.6719,332 L1285.2344,332 L1285.2344,332 L1285.75,332.625 L1285.75,333 L1285.75,333.375 L1285.2344,334 L1284.6719,334 L1282.7813,334 L1282.2656,334 L1281.75,333.375 L1281.75,333 L1281.75,332.625 L1282.2656,332 L1282.7813,332 L1282.7813,332 L1282.5,331 Z M1281.9531,329 L1280.75,325.4219 L1279.7188,329 L1281.9531,329 Z " fill="#000000"/><text fill="#000000" font-family="sans-serif" font-size="12" font-style="italic" lengthAdjust="spacing" textLength="80" x="1301.25" y="334.4102">IEventStrategy</text><line style="stroke:#A80036;stroke-width:1.5;" x1="1145" x2="1505" y1="345.5" y2="345.5"/><line style="stroke:#A80036;stroke-width:1.5;" x1="1145" x2="1505" y1="353.5" y2="353.5"/><ellipse cx="1155" cy="364.5" fill="#84BE84" rx="3" ry="3" style="stroke:#038048;stroke-width:1.0;"/><text fill="#000000" font-family="sans-serif" font-size="11" font-style="italic" lengthAdjust="spacing" textLength="289" x="1164" y="368.9189">Execute(fireTrucks:IIterator&lt;FireTruck&gt;) : List&lt;FireTruck&gt;</text><polygon fill="#FFFF44" points="1155,373.3359,1159,377.3359,1155,381.3359,1151,377.3359" style="stroke:#B38D22;stroke-width:1.0;"/><text fill="#000000" font-family="sans-serif" font-size="11" lengthAdjust="spacing" textLength="336" x="1164" y="382.7549">GetClosest(fireTrucks:IIterator&lt;FireTruck&gt;, count:int) : List&lt;FireTruck&gt;</text><!--MD5=[415fd35c88f42b3db65e8c7c08b20f79]
class StrategyMz--><rect codeLine="7" fill="#FEFECE" filter="url(#ftifw8odxkx0n)" height="61.8359" id="StrategyMz" style="stroke:#A80036;stroke-width:1.5;" width="211" x="1048.5" y="550"/><ellipse cx="1120.75" cy="566" fill="#ADD1B2" rx="11" ry="11" style="stroke:#A80036;stroke-width:1.0;"/><path d="M1122.75,562.5 Q1122.9531,562 1123.1875,561.75 Q1123.4219,561.5 1123.6875,561.5 Q1124.1563,561.5 1124.4531,561.7813 Q1124.75,562.0625 1124.75,562.7188 L1124.75,564.2813 Q1124.75,564.9375 1124.4688,565.2188 Q1124.1875,565.5 1123.75,565.5 Q1123.3594,565.5 1123.1094,565.3281 Q1122.8594,565.1563 1122.75,564.7031 Q1122.7031,564.3906 1122.5313,564.2188 Q1122.2188,563.8906 1121.6563,563.7031 Q1121.0938,563.5 1120.5313,563.5 Q1119.8281,563.5 1119.2344,563.7813 Q1118.6563,564.0625 1118.2031,564.6875 Q1117.75,565.3125 1117.75,566.1719 L1117.75,567.0938 Q1117.75,568.125 1118.5938,568.8125 Q1119.4375,569.5 1120.9375,569.5 Q1121.8281,569.5 1122.4531,569.2969 Q1122.8125,569.1875 1123.2188,568.8281 Q1123.4844,568.625 1123.625,568.5625 Q1123.7656,568.5 1123.9375,568.5 Q1124.2656,568.5 1124.5,568.7656 Q1124.75,569.0156 1124.75,569.375 Q1124.75,569.7188 1124.4063,570.125 Q1123.9063,570.7188 1123.1094,571.0469 Q1122.0625,571.5 1120.7813,571.5 Q1119.2813,571.5 1118.0781,570.9063 Q1117.1094,570.4375 1116.4219,569.4219 Q1115.75,568.4063 1115.75,567.2031 L1115.75,566.1094 Q1115.75,564.8594 1116.3438,563.7656 Q1116.9531,562.6719 1118,562.0938 Q1119.0625,561.5 1120.25,561.5 Q1120.9688,561.5 1121.5938,561.75 Q1122.2188,562 1122.75,562.5 Z " fill="#000000"/><text fill="#000000" font-family="sans-serif" font-size="12" lengthAdjust="spacing" textLength="58" x="1141.25" y="570.9102">StrategyMz</text><line style="stroke:#A80036;stroke-width:1.5;" x1="1049.5" x2="1258.5" y1="582" y2="582"/><line style="stroke:#A80036;stroke-width:1.5;" x1="1049.5" x2="1258.5" y1="590" y2="590"/><ellipse cx="1059.5" cy="601" fill="#84BE84" rx="3" ry="3" style="stroke:#038048;stroke-width:1.0;"/><text fill="#000000" font-family="sans-serif" font-size="11" lengthAdjust="spacing" textLength="185" x="1068.5" y="605.4189">«override» Execute() : List&lt;FireTruck&gt;</text><!--MD5=[b82415e79366502edec35914ad6d6cb6]
class StrategyPz--><rect codeLine="10" fill="#FEFECE" filter="url(#ftifw8odxkx0n)" height="61.8359" id="StrategyPz" style="stroke:#A80036;stroke-width:1.5;" width="211" x="1294.5" y="550"/><ellipse cx="1367.25" cy="566" fill="#ADD1B2" rx="11" ry="11" style="stroke:#A80036;stroke-width:1.0;"/><path d="M1369.25,562.5 Q1369.4531,562 1369.6875,561.75 Q1369.9219,561.5 1370.1875,561.5 Q1370.6563,561.5 1370.9531,561.7813 Q1371.25,562.0625 1371.25,562.7188 L1371.25,564.2813 Q1371.25,564.9375 1370.9688,565.2188 Q1370.6875,565.5 1370.25,565.5 Q1369.8594,565.5 1369.6094,565.3281 Q1369.3594,565.1563 1369.25,564.7031 Q1369.2031,564.3906 1369.0313,564.2188 Q1368.7188,563.8906 1368.1563,563.7031 Q1367.5938,563.5 1367.0313,563.5 Q1366.3281,563.5 1365.7344,563.7813 Q1365.1563,564.0625 1364.7031,564.6875 Q1364.25,565.3125 1364.25,566.1719 L1364.25,567.0938 Q1364.25,568.125 1365.0938,568.8125 Q1365.9375,569.5 1367.4375,569.5 Q1368.3281,569.5 1368.9531,569.2969 Q1369.3125,569.1875 1369.7188,568.8281 Q1369.9844,568.625 1370.125,568.5625 Q1370.2656,568.5 1370.4375,568.5 Q1370.7656,568.5 1371,568.7656 Q1371.25,569.0156 1371.25,569.375 Q1371.25,569.7188 1370.9063,570.125 Q1370.4063,570.7188 1369.6094,571.0469 Q1368.5625,571.5 1367.2813,571.5 Q1365.7813,571.5 1364.5781,570.9063 Q1363.6094,570.4375 1362.9219,569.4219 Q1362.25,568.4063 1362.25,567.2031 L1362.25,566.1094 Q1362.25,564.8594 1362.8438,563.7656 Q1363.4531,562.6719 1364.5,562.0938 Q1365.5625,561.5 1366.75,561.5 Q1367.4688,561.5 1368.0938,561.75 Q1368.7188,562 1369.25,562.5 Z " fill="#000000"/><text fill="#000000" font-family="sans-serif" font-size="12" lengthAdjust="spacing" textLength="57" x="1387.75" y="570.9102">StrategyPz</text><line style="stroke:#A80036;stroke-width:1.5;" x1="1295.5" x2="1504.5" y1="582" y2="582"/><line style="stroke:#A80036;stroke-width:1.5;" x1="1295.5" x2="1504.5" y1="590" y2="590"/><ellipse cx="1305.5" cy="601" fill="#84BE84" rx="3" ry="3" style="stroke:#038048;stroke-width:1.0;"/><text fill="#000000" font-family="sans-serif" font-size="11" lengthAdjust="spacing" textLength="185" x="1314.5" y="605.4189">«override» Execute() : List&lt;FireTruck&gt;</text><!--MD5=[e7d6bffc1281e01b39a9257f28a19622]
class CSVParser--><rect codeLine="1" fill="#FEFECE" filter="url(#ftifw8odxkx0n)" height="61.8359" id="CSVParser" style="stroke:#A80036;stroke-width:1.5;" width="232" x="7" y="320.5"/><ellipse cx="88.25" cy="336.5" fill="#ADD1B2" rx="11" ry="11" style="stroke:#A80036;stroke-width:1.0;"/><path d="M90.25,333 Q90.4531,332.5 90.6875,332.25 Q90.9219,332 91.1875,332 Q91.6563,332 91.9531,332.2813 Q92.25,332.5625 92.25,333.2188 L92.25,334.7813 Q92.25,335.4375 91.9688,335.7188 Q91.6875,336 91.25,336 Q90.8594,336 90.6094,335.8281 Q90.3594,335.6563 90.25,335.2031 Q90.2031,334.8906 90.0313,334.7188 Q89.7188,334.3906 89.1563,334.2031 Q88.5938,334 88.0313,334 Q87.3281,334 86.7344,334.2813 Q86.1563,334.5625 85.7031,335.1875 Q85.25,335.8125 85.25,336.6719 L85.25,337.5938 Q85.25,338.625 86.0938,339.3125 Q86.9375,340 88.4375,340 Q89.3281,340 89.9531,339.7969 Q90.3125,339.6875 90.7188,339.3281 Q90.9844,339.125 91.125,339.0625 Q91.2656,339 91.4375,339 Q91.7656,339 92,339.2656 Q92.25,339.5156 92.25,339.875 Q92.25,340.2188 91.9063,340.625 Q91.4063,341.2188 90.6094,341.5469 Q89.5625,342 88.2813,342 Q86.7813,342 85.5781,341.4063 Q84.6094,340.9375 83.9219,339.9219 Q83.25,338.9063 83.25,337.7031 L83.25,336.6094 Q83.25,335.3594 83.8438,334.2656 Q84.4531,333.1719 85.5,332.5938 Q86.5625,332 87.75,332 Q88.4688,332 89.0938,332.25 Q89.7188,332.5 90.25,333 Z " fill="#000000"/><text fill="#000000" font-family="sans-serif" font-size="12" lengthAdjust="spacing" textLength="61" x="108.75" y="341.4102">CSVParser</text><line style="stroke:#A80036;stroke-width:1.5;" x1="8" x2="238" y1="352.5" y2="352.5"/><line style="stroke:#A80036;stroke-width:1.5;" x1="8" x2="238" y1="360.5" y2="360.5"/><ellipse cx="18" cy="371.5" fill="#84BE84" rx="3" ry="3" style="stroke:#038048;stroke-width:1.0;"/><text fill="#000000" font-family="sans-serif" font-size="11" lengthAdjust="spacing" text-decoration="underline" textLength="206" x="27" y="375.9189">LoadStationsFromCSV() : List&lt;FireStation&gt;</text><!--MD5=[325e3276c1765c128367154cd6e98f93]
class FireSquad--><rect codeLine="1" fill="#FEFECE" filter="url(#ftifw8odxkx0n)" height="186.3594" id="FireSquad" style="stroke:#A80036;stroke-width:1.5;" width="300" x="1262" y="7"/><ellipse cx="1379.25" cy="23" fill="#ADD1B2" rx="11" ry="11" style="stroke:#A80036;stroke-width:1.0;"/><path d="M1381.25,19.5 Q1381.4531,19 1381.6875,18.75 Q1381.9219,18.5 1382.1875,18.5 Q1382.6563,18.5 1382.9531,18.7813 Q1383.25,19.0625 1383.25,19.7188 L1383.25,21.2813 Q1383.25,21.9375 1382.9688,22.2188 Q1382.6875,22.5 1382.25,22.5 Q1381.8594,22.5 1381.6094,22.3281 Q1381.3594,22.1563 1381.25,21.7031 Q1381.2031,21.3906 1381.0313,21.2188 Q1380.7188,20.8906 1380.1563,20.7031 Q1379.5938,20.5 1379.0313,20.5 Q1378.3281,20.5 1377.7344,20.7813 Q1377.1563,21.0625 1376.7031,21.6875 Q1376.25,22.3125 1376.25,23.1719 L1376.25,24.0938 Q1376.25,25.125 1377.0938,25.8125 Q1377.9375,26.5 1379.4375,26.5 Q1380.3281,26.5 1380.9531,26.2969 Q1381.3125,26.1875 1381.7188,25.8281 Q1381.9844,25.625 1382.125,25.5625 Q1382.2656,25.5 1382.4375,25.5 Q1382.7656,25.5 1383,25.7656 Q1383.25,26.0156 1383.25,26.375 Q1383.25,26.7188 1382.9063,27.125 Q1382.4063,27.7188 1381.6094,28.0469 Q1380.5625,28.5 1379.2813,28.5 Q1377.7813,28.5 1376.5781,27.9063 Q1375.6094,27.4375 1374.9219,26.4219 Q1374.25,25.4063 1374.25,24.2031 L1374.25,23.1094 Q1374.25,21.8594 1374.8438,20.7656 Q1375.4531,19.6719 1376.5,19.0938 Q1377.5625,18.5 1378.75,18.5 Q1379.4688,18.5 1380.0938,18.75 Q1380.7188,19 1381.25,19.5 Z " fill="#000000"/><text fill="#000000" font-family="sans-serif" font-size="12" lengthAdjust="spacing" textLength="57" x="1399.75" y="27.9102">FireSquad</text><line style="stroke:#A80036;stroke-width:1.5;" x1="1263" x2="1561" y1="39" y2="39"/><rect fill="none" height="6" style="stroke:#C82930;stroke-width:1.0;" width="6" x="1270" y="47"/><text fill="#000000" font-family="sans-serif" font-size="11" lengthAdjust="spacing" textLength="62" x="1282" y="54.4189">name : string</text><rect fill="none" height="6" style="stroke:#C82930;stroke-width:1.0;" width="6" x="1270" y="60.8359"/><text fill="#000000" font-family="sans-serif" font-size="11" lengthAdjust="spacing" textLength="125" x="1282" y="68.2549">_strategy : IEventStrategy</text><line style="stroke:#A80036;stroke-width:1.5;" x1="1263" x2="1561" y1="74.6719" y2="74.6719"/><text fill="#000000" font-family="sans-serif" font-size="11" lengthAdjust="spacing" textLength="105" x="1282" y="90.0908">TrucksString() : string</text><ellipse cx="1273" cy="99.5078" fill="#84BE84" rx="3" ry="3" style="stroke:#038048;stroke-width:1.0;"/><text fill="#000000" font-family="sans-serif" font-size="11" lengthAdjust="spacing" textLength="117" x="1282" y="103.9268">FireSquad(task:Incident)</text><ellipse cx="1273" cy="113.3438" fill="#84BE84" rx="3" ry="3" style="stroke:#038048;stroke-width:1.0;"/><text fill="#000000" font-family="sans-serif" font-size="11" lengthAdjust="spacing" textLength="274" x="1282" y="117.7627">Step1PrepareTeam(fireTrucks:IIterator&lt;FireTruck&gt;) : void</text><rect fill="#F24D5C" height="6" style="stroke:#C82930;stroke-width:1.0;" width="6" x="1270" y="124.1797"/><text fill="#000000" font-family="sans-serif" font-size="11" lengthAdjust="spacing" textLength="180" x="1282" y="131.5986">«async» Step2GoToLocation() : Task</text><rect fill="#F24D5C" height="6" style="stroke:#C82930;stroke-width:1.0;" width="6" x="1270" y="138.0156"/><text fill="#000000" font-family="sans-serif" font-size="11" lengthAdjust="spacing" textLength="165" x="1282" y="145.4346">«async» Step3Investigate() : Task</text><ellipse cx="1273" cy="154.8516" fill="#84BE84" rx="3" ry="3" style="stroke:#038048;stroke-width:1.0;"/><text fill="#000000" font-family="sans-serif" font-size="11" lengthAdjust="spacing" textLength="139" x="1282" y="159.2705">«override» ToString() : string</text><ellipse cx="1273" cy="168.6875" fill="#84BE84" rx="3" ry="3" style="stroke:#038048;stroke-width:1.0;"/><text fill="#000000" font-family="sans-serif" font-size="11" lengthAdjust="spacing" textLength="96" x="1282" y="173.1064">«async» Go() : void</text><rect fill="#F24D5C" height="6" style="stroke:#C82930;stroke-width:1.0;" width="6" x="1270" y="179.5234"/><text fill="#000000" font-family="sans-serif" font-size="11" lengthAdjust="spacing" textLength="145" x="1282" y="186.9424">«async» Step4Return() : Task</text><!--MD5=[a2a32eb8740a34a1508bfb05a6833e01]
class Incident--><rect codeLine="1" fill="#FEFECE" filter="url(#ftifw8odxkx0n)" height="186.3594" id="Incident" style="stroke:#A80036;stroke-width:1.5;" width="211" x="218.5" y="488"/><ellipse cx="298.25" cy="504" fill="#ADD1B2" rx="11" ry="11" style="stroke:#A80036;stroke-width:1.0;"/><path d="M300.25,500.5 Q300.4531,500 300.6875,499.75 Q300.9219,499.5 301.1875,499.5 Q301.6563,499.5 301.9531,499.7813 Q302.25,500.0625 302.25,500.7188 L302.25,502.2813 Q302.25,502.9375 301.9688,503.2188 Q301.6875,503.5 301.25,503.5 Q300.8594,503.5 300.6094,503.3281 Q300.3594,503.1563 300.25,502.7031 Q300.2031,502.3906 300.0313,502.2188 Q299.7188,501.8906 299.1563,501.7031 Q298.5938,501.5 298.0313,501.5 Q297.3281,501.5 296.7344,501.7813 Q296.1563,502.0625 295.7031,502.6875 Q295.25,503.3125 295.25,504.1719 L295.25,505.0938 Q295.25,506.125 296.0938,506.8125 Q296.9375,507.5 298.4375,507.5 Q299.3281,507.5 299.9531,507.2969 Q300.3125,507.1875 300.7188,506.8281 Q300.9844,506.625 301.125,506.5625 Q301.2656,506.5 301.4375,506.5 Q301.7656,506.5 302,506.7656 Q302.25,507.0156 302.25,507.375 Q302.25,507.7188 301.9063,508.125 Q301.4063,508.7188 300.6094,509.0469 Q299.5625,509.5 298.2813,509.5 Q296.7813,509.5 295.5781,508.9063 Q294.6094,508.4375 293.9219,507.4219 Q293.25,506.4063 293.25,505.2031 L293.25,504.1094 Q293.25,502.8594 293.8438,501.7656 Q294.4531,500.6719 295.5,500.0938 Q296.5625,499.5 297.75,499.5 Q298.4688,499.5 299.0938,499.75 Q299.7188,500 300.25,500.5 Z " fill="#000000"/><text fill="#000000" font-family="sans-serif" font-size="12" lengthAdjust="spacing" textLength="43" x="318.75" y="508.9102">Incident</text><line style="stroke:#A80036;stroke-width:1.5;" x1="219.5" x2="428.5" y1="520" y2="520"/><rect fill="none" height="6" style="stroke:#C82930;stroke-width:1.0;" width="6" x="226.5" y="528"/><text fill="#000000" font-family="sans-serif" font-size="11" lengthAdjust="spacing" textLength="98" x="238.5" y="535.4189">objectName : string[]</text><ellipse cx="229.5" cy="544.8359" rx="3" ry="3" style="stroke:#038048;stroke-width:1.0;fill:none;"/><text fill="#000000" font-family="sans-serif" font-size="11" lengthAdjust="spacing" textLength="94" x="238.5" y="549.2549">Name : String «get»</text><ellipse cx="229.5" cy="558.6719" rx="3" ry="3" style="stroke:#038048;stroke-width:1.0;fill:none;"/><text fill="#000000" font-family="sans-serif" font-size="11" lengthAdjust="spacing" textLength="114" x="238.5" y="563.0908">Type : EventType «get»</text><ellipse cx="229.5" cy="572.5078" rx="3" ry="3" style="stroke:#038048;stroke-width:1.0;fill:none;"/><text fill="#000000" font-family="sans-serif" font-size="11" lengthAdjust="spacing" textLength="80" x="238.5" y="576.9268">Real : bool «get»</text><ellipse cx="229.5" cy="586.3438" rx="3" ry="3" style="stroke:#038048;stroke-width:1.0;fill:none;"/><text fill="#000000" font-family="sans-serif" font-size="11" lengthAdjust="spacing" textLength="119" x="238.5" y="590.7627">Location : Vector2 «get»</text><line style="stroke:#A80036;stroke-width:1.5;" x1="219.5" x2="428.5" y1="597.1797" y2="597.1797"/><ellipse cx="229.5" cy="608.1797" fill="#84BE84" rx="3" ry="3" style="stroke:#038048;stroke-width:1.0;"/><text fill="#000000" font-family="sans-serif" font-size="11" lengthAdjust="spacing" textLength="45" x="238.5" y="612.5986">Incident()</text><ellipse cx="229.5" cy="622.0156" fill="#84BE84" rx="3" ry="3" style="stroke:#038048;stroke-width:1.0;"/><text fill="#000000" font-family="sans-serif" font-size="11" lengthAdjust="spacing" textLength="139" x="238.5" y="626.4346">«override» ToString() : string</text><ellipse cx="229.5" cy="635.8516" fill="#84BE84" rx="3" ry="3" style="stroke:#038048;stroke-width:1.0;"/><text fill="#000000" font-family="sans-serif" font-size="11" lengthAdjust="spacing" text-decoration="underline" textLength="182" x="238.5" y="640.2705">FirstCharToUpper(input:string) : string</text><rect fill="#F24D5C" height="6" style="stroke:#C82930;stroke-width:1.0;" width="6" x="226.5" y="646.6875"/><text fill="#000000" font-family="sans-serif" font-size="11" lengthAdjust="spacing" textLength="185" x="238.5" y="654.1064">RandomName(type:EventType) : string</text><rect fill="#F24D5C" height="6" style="stroke:#C82930;stroke-width:1.0;" width="6" x="226.5" y="660.5234"/><text fill="#000000" font-family="sans-serif" font-size="11" lengthAdjust="spacing" text-decoration="underline" textLength="136" x="238.5" y="667.9424">RandomLocation() : Vector2</text><!--MD5=[51255159981deef4d2967e1585ccf960]
class EventType--><rect codeLine="13" fill="#FEFECE" filter="url(#ftifw8odxkx0n)" height="75.6719" id="EventType" style="stroke:#A80036;stroke-width:1.5;" width="88" x="272" y="790"/><ellipse cx="287" cy="806" fill="#EB937F" rx="11" ry="11" style="stroke:#A80036;stroke-width:1.0;"/><path d="M285.5,807 L285.5,809 L289.5,809 L289.5,808 L289.5,807.5156 L290.125,807 L290.5,807 L290.875,807 L291.5,807.5156 L291.5,808 L291.5,811 L283.5,811 L283.0156,811 L282.5,810.375 L282.5,810 L282.5,809.625 L283.0156,809 L283.5,809 L283.5,809 L283.5,803 L283.5,803 L283.0156,803 L282.5,802.375 L282.5,802 L282.5,801.625 L283.0156,801 L283.5,801 L291.5,801 L291.5,804 L291.5,804.4844 L290.875,805 L290.5,805 L290.125,805 L289.5,804.4844 L289.5,804 L289.5,803 L285.5,803 L285.5,805 L286.5,805 L286.5,804.5156 L286.5,804.5156 L287.125,804 L287.5,804 L287.875,804 L288.5,804.5156 L288.5,805 L288.5,807 L288.5,807.4844 L287.875,808 L287.875,808 L287.5,808 L287.125,808 L286.5,807.4844 L286.5,807.4844 L286.5,807 L285.5,807 Z " fill="#000000"/><text fill="#000000" font-family="sans-serif" font-size="12" lengthAdjust="spacing" textLength="56" x="301" y="810.9102">EventType</text><line style="stroke:#A80036;stroke-width:1.5;" x1="273" x2="359" y1="822" y2="822"/><text fill="#000000" font-family="sans-serif" font-size="11" lengthAdjust="spacing" textLength="16" x="278" y="837.4189">PZ,</text><text fill="#000000" font-family="sans-serif" font-size="11" lengthAdjust="spacing" textLength="18" x="278" y="851.2549">MZ,</text><line style="stroke:#A80036;stroke-width:1.5;" x1="273" x2="359" y1="857.6719" y2="857.6719"/><!--MD5=[2c7decc1f15996e793159cdad8298c6a]
class FireTruck--><rect codeLine="3" fill="#FEFECE" filter="url(#ftifw8odxkx0n)" height="186.3594" id="FireTruck" style="stroke:#A80036;stroke-width:1.5;" width="180" x="1122" y="735"/><ellipse cx="1182.25" cy="751" fill="#ADD1B2" rx="11" ry="11" style="stroke:#A80036;stroke-width:1.0;"/><path d="M1184.25,747.5 Q1184.4531,747 1184.6875,746.75 Q1184.9219,746.5 1185.1875,746.5 Q1185.6563,746.5 1185.9531,746.7813 Q1186.25,747.0625 1186.25,747.7188 L1186.25,749.2813 Q1186.25,749.9375 1185.9688,750.2188 Q1185.6875,750.5 1185.25,750.5 Q1184.8594,750.5 1184.6094,750.3281 Q1184.3594,750.1563 1184.25,749.7031 Q1184.2031,749.3906 1184.0313,749.2188 Q1183.7188,748.8906 1183.1563,748.7031 Q1182.5938,748.5 1182.0313,748.5 Q1181.3281,748.5 1180.7344,748.7813 Q1180.1563,749.0625 1179.7031,749.6875 Q1179.25,750.3125 1179.25,751.1719 L1179.25,752.0938 Q1179.25,753.125 1180.0938,753.8125 Q1180.9375,754.5 1182.4375,754.5 Q1183.3281,754.5 1183.9531,754.2969 Q1184.3125,754.1875 1184.7188,753.8281 Q1184.9844,753.625 1185.125,753.5625 Q1185.2656,753.5 1185.4375,753.5 Q1185.7656,753.5 1186,753.7656 Q1186.25,754.0156 1186.25,754.375 Q1186.25,754.7188 1185.9063,755.125 Q1185.4063,755.7188 1184.6094,756.0469 Q1183.5625,756.5 1182.2813,756.5 Q1180.7813,756.5 1179.5781,755.9063 Q1178.6094,755.4375 1177.9219,754.4219 Q1177.25,753.4063 1177.25,752.2031 L1177.25,751.1094 Q1177.25,749.8594 1177.8438,748.7656 Q1178.4531,747.6719 1179.5,747.0938 Q1180.5625,746.5 1181.75,746.5 Q1182.4688,746.5 1183.0938,746.75 Q1183.7188,747 1184.25,747.5 Z " fill="#000000"/><text fill="#000000" font-family="sans-serif" font-size="12" lengthAdjust="spacing" textLength="51" x="1202.75" y="755.9102">FireTruck</text><line style="stroke:#A80036;stroke-width:1.5;" x1="1123" x2="1301" y1="767" y2="767"/><rect fill="none" height="6" style="stroke:#C82930;stroke-width:1.0;" width="6" x="1130" y="775"/><text fill="#000000" font-family="sans-serif" font-size="11" lengthAdjust="spacing" textLength="62" x="1142" y="782.4189">name : string</text><ellipse cx="1133" cy="791.8359" rx="3" ry="3" style="stroke:#038048;stroke-width:1.0;fill:none;"/><text fill="#000000" font-family="sans-serif" font-size="11" lengthAdjust="spacing" textLength="58" x="1142" y="796.2549">state : State</text><line style="stroke:#A80036;stroke-width:1.5;" x1="1123" x2="1301" y1="802.6719" y2="802.6719"/><ellipse cx="1133" cy="813.6719" fill="#84BE84" rx="3" ry="3" style="stroke:#038048;stroke-width:1.0;"/><text fill="#000000" font-family="sans-serif" font-size="11" lengthAdjust="spacing" textLength="89" x="1142" y="818.0908">FireTruck(s:string)</text><ellipse cx="1133" cy="827.5078" fill="#84BE84" rx="3" ry="3" style="stroke:#038048;stroke-width:1.0;"/><text fill="#000000" font-family="sans-serif" font-size="11" lengthAdjust="spacing" textLength="139" x="1142" y="831.9268">«override» ToString() : string</text><ellipse cx="1133" cy="841.3438" fill="#84BE84" rx="3" ry="3" style="stroke:#038048;stroke-width:1.0;"/><text fill="#000000" font-family="sans-serif" font-size="11" lengthAdjust="spacing" textLength="154" x="1142" y="845.7627">TransitionTo(_state:State) : void</text><ellipse cx="1133" cy="855.1797" fill="#84BE84" rx="3" ry="3" style="stroke:#038048;stroke-width:1.0;"/><text fill="#000000" font-family="sans-serif" font-size="11" lengthAdjust="spacing" textLength="92" x="1142" y="859.5986">HandleFree() : void</text><ellipse cx="1133" cy="869.0156" fill="#84BE84" rx="3" ry="3" style="stroke:#038048;stroke-width:1.0;"/><text fill="#000000" font-family="sans-serif" font-size="11" lengthAdjust="spacing" textLength="112" x="1142" y="873.4346">HandleTravelTo() : void</text><ellipse cx="1133" cy="882.8516" fill="#84BE84" rx="3" ry="3" style="stroke:#038048;stroke-width:1.0;"/><text fill="#000000" font-family="sans-serif" font-size="11" lengthAdjust="spacing" textLength="95" x="1142" y="887.2705">HandleBusy() : void</text><ellipse cx="1133" cy="896.6875" fill="#84BE84" rx="3" ry="3" style="stroke:#038048;stroke-width:1.0;"/><text fill="#000000" font-family="sans-serif" font-size="11" lengthAdjust="spacing" textLength="132" x="1142" y="901.1064">HandleTravelReturn() : void</text><ellipse cx="1133" cy="910.5234" fill="#84BE84" rx="3" ry="3" style="stroke:#038048;stroke-width:1.0;"/><text fill="#000000" font-family="sans-serif" font-size="11" lengthAdjust="spacing" textLength="95" x="1142" y="914.9424">HandleWork() : void</text><!--MD5=[5006a590d4497dc871b9f944eabf0a99]
class IVector--><rect codeLine="1" fill="#FEFECE" filter="url(#ftifw8odxkx0n)" height="89.5078" id="IVector" style="stroke:#A80036;stroke-width:1.5;" width="150" x="395" y="783"/><ellipse cx="446.25" cy="799" fill="#B4A7E5" rx="11" ry="11" style="stroke:#A80036;stroke-width:1.0;"/><path d="M447.25,796 L447.25,802 L449.25,802 L449.7344,802 L450.25,802.625 L450.25,803 L450.25,803.375 L449.7344,804 L449.25,804 L443.25,804 L442.7656,804 L442.25,803.375 L442.25,803 L442.25,802.625 L442.7656,802 L443.25,802 L445.25,802 L445.25,796 L443.25,796 L442.7656,796 L442.25,795.375 L442.25,795 L442.25,794.625 L442.7656,794 L443.25,794 L449.25,794 L449.7344,794 L450.25,794.625 L450.25,795 L450.25,795.375 L449.7344,796 L449.25,796 L447.25,796 Z " fill="#000000"/><text fill="#000000" font-family="sans-serif" font-size="12" font-style="italic" lengthAdjust="spacing" textLength="39" x="466.75" y="803.9102">IVector</text><line style="stroke:#A80036;stroke-width:1.5;" x1="396" x2="544" y1="815" y2="815"/><line style="stroke:#A80036;stroke-width:1.5;" x1="396" x2="544" y1="823" y2="823"/><text fill="#000000" font-family="sans-serif" font-size="11" lengthAdjust="spacing" textLength="67" x="401" y="838.4189">abs() : double</text><text fill="#000000" font-family="sans-serif" font-size="11" lengthAdjust="spacing" textLength="138" x="401" y="852.2549">cdot(param:IVector) : double</text><text fill="#000000" font-family="sans-serif" font-size="11" lengthAdjust="spacing" textLength="130" x="401" y="866.0908">getComponents() : double[]</text><!--MD5=[3f551f1273bbfa514d2f681c1c48b5c1]
class Vector2--><rect codeLine="1" fill="#FEFECE" filter="url(#ftifw8odxkx0n)" height="158.6875" id="Vector2" style="stroke:#A80036;stroke-width:1.5;" width="208" x="386" y="997"/><ellipse cx="465.25" cy="1013" fill="#ADD1B2" rx="11" ry="11" style="stroke:#A80036;stroke-width:1.0;"/><path d="M467.25,1009.5 Q467.4531,1009 467.6875,1008.75 Q467.9219,1008.5 468.1875,1008.5 Q468.6563,1008.5 468.9531,1008.7813 Q469.25,1009.0625 469.25,1009.7188 L469.25,1011.2813 Q469.25,1011.9375 468.9688,1012.2188 Q468.6875,1012.5 468.25,1012.5 Q467.8594,1012.5 467.6094,1012.3281 Q467.3594,1012.1563 467.25,1011.7031 Q467.2031,1011.3906 467.0313,1011.2188 Q466.7188,1010.8906 466.1563,1010.7031 Q465.5938,1010.5 465.0313,1010.5 Q464.3281,1010.5 463.7344,1010.7813 Q463.1563,1011.0625 462.7031,1011.6875 Q462.25,1012.3125 462.25,1013.1719 L462.25,1014.0938 Q462.25,1015.125 463.0938,1015.8125 Q463.9375,1016.5 465.4375,1016.5 Q466.3281,1016.5 466.9531,1016.2969 Q467.3125,1016.1875 467.7188,1015.8281 Q467.9844,1015.625 468.125,1015.5625 Q468.2656,1015.5 468.4375,1015.5 Q468.7656,1015.5 469,1015.7656 Q469.25,1016.0156 469.25,1016.375 Q469.25,1016.7188 468.9063,1017.125 Q468.4063,1017.7188 467.6094,1018.0469 Q466.5625,1018.5 465.2813,1018.5 Q463.7813,1018.5 462.5781,1017.9063 Q461.6094,1017.4375 460.9219,1016.4219 Q460.25,1015.4063 460.25,1014.2031 L460.25,1013.1094 Q460.25,1011.8594 460.8438,1010.7656 Q461.4531,1009.6719 462.5,1009.0938 Q463.5625,1008.5 464.75,1008.5 Q465.4688,1008.5 466.0938,1008.75 Q466.7188,1009 467.25,1009.5 Z " fill="#000000"/><text fill="#000000" font-family="sans-serif" font-size="12" lengthAdjust="spacing" textLength="41" x="485.75" y="1017.9102">Vector2</text><line style="stroke:#A80036;stroke-width:1.5;" x1="387" x2="593" y1="1029" y2="1029"/><ellipse cx="397" cy="1040" rx="3" ry="3" style="stroke:#038048;stroke-width:1.0;fill:none;"/><text fill="#000000" font-family="sans-serif" font-size="11" lengthAdjust="spacing" textLength="78" x="406" y="1044.4189">X : double «get»</text><ellipse cx="397" cy="1053.8359" rx="3" ry="3" style="stroke:#038048;stroke-width:1.0;fill:none;"/><text fill="#000000" font-family="sans-serif" font-size="11" lengthAdjust="spacing" textLength="79" x="406" y="1058.2549">Y : double «get»</text><line style="stroke:#A80036;stroke-width:1.5;" x1="387" x2="593" y1="1064.6719" y2="1064.6719"/><ellipse cx="397" cy="1075.6719" fill="#84BE84" rx="3" ry="3" style="stroke:#038048;stroke-width:1.0;"/><text fill="#000000" font-family="sans-serif" font-size="11" lengthAdjust="spacing" textLength="135" x="406" y="1080.0908">Vector2(x:double, y:double)</text><ellipse cx="397" cy="1089.5078" fill="#84BE84" rx="3" ry="3" style="stroke:#038048;stroke-width:1.0;"/><text fill="#000000" font-family="sans-serif" font-size="11" lengthAdjust="spacing" textLength="67" x="406" y="1093.9268">abs() : double</text><ellipse cx="397" cy="1103.3438" fill="#84BE84" rx="3" ry="3" style="stroke:#038048;stroke-width:1.0;"/><text fill="#000000" font-family="sans-serif" font-size="11" lengthAdjust="spacing" textLength="138" x="406" y="1107.7627">cdot(param:IVector) : double</text><ellipse cx="397" cy="1117.1797" fill="#84BE84" rx="3" ry="3" style="stroke:#038048;stroke-width:1.0;"/><text fill="#000000" font-family="sans-serif" font-size="11" lengthAdjust="spacing" textLength="130" x="406" y="1121.5986">getComponents() : double[]</text><ellipse cx="397" cy="1131.0156" fill="#84BE84" rx="3" ry="3" style="stroke:#038048;stroke-width:1.0;"/><text fill="#000000" font-family="sans-serif" font-size="11" lengthAdjust="spacing" textLength="139" x="406" y="1135.4346">«override» ToString() : string</text><ellipse cx="397" cy="1144.8516" fill="#84BE84" rx="3" ry="3" style="stroke:#038048;stroke-width:1.0;"/><text fill="#000000" font-family="sans-serif" font-size="11" lengthAdjust="spacing" textLength="182" x="406" y="1149.2705">DistanceTo(position:Vector2) : double</text><!--MD5=[175f95e045c1a44aed0b30df3abe0e5c]
class Program--><rect codeLine="16" fill="#FEFECE" filter="url(#ftifw8odxkx0n)" height="48" id="Program" style="stroke:#A80036;stroke-width:1.5;" width="80" x="269" y="76"/><ellipse cx="284" cy="92" fill="#ADD1B2" rx="11" ry="11" style="stroke:#A80036;stroke-width:1.0;"/><path d="M286,88.5 Q286.2031,88 286.4375,87.75 Q286.6719,87.5 286.9375,87.5 Q287.4063,87.5 287.7031,87.7813 Q288,88.0625 288,88.7188 L288,90.2813 Q288,90.9375 287.7188,91.2188 Q287.4375,91.5 287,91.5 Q286.6094,91.5 286.3594,91.3281 Q286.1094,91.1563 286,90.7031 Q285.9531,90.3906 285.7813,90.2188 Q285.4688,89.8906 284.9063,89.7031 Q284.3438,89.5 283.7813,89.5 Q283.0781,89.5 282.4844,89.7813 Q281.9063,90.0625 281.4531,90.6875 Q281,91.3125 281,92.1719 L281,93.0938 Q281,94.125 281.8438,94.8125 Q282.6875,95.5 284.1875,95.5 Q285.0781,95.5 285.7031,95.2969 Q286.0625,95.1875 286.4688,94.8281 Q286.7344,94.625 286.875,94.5625 Q287.0156,94.5 287.1875,94.5 Q287.5156,94.5 287.75,94.7656 Q288,95.0156 288,95.375 Q288,95.7188 287.6563,96.125 Q287.1563,96.7188 286.3594,97.0469 Q285.3125,97.5 284.0313,97.5 Q282.5313,97.5 281.3281,96.9063 Q280.3594,96.4375 279.6719,95.4219 Q279,94.4063 279,93.2031 L279,92.1094 Q279,90.8594 279.5938,89.7656 Q280.2031,88.6719 281.25,88.0938 Q282.3125,87.5 283.5,87.5 Q284.2188,87.5 284.8438,87.75 Q285.4688,88 286,88.5 Z " fill="#000000"/><text fill="#000000" font-family="sans-serif" font-size="12" lengthAdjust="spacing" textLength="48" x="298" y="96.9102">Program</text><line style="stroke:#A80036;stroke-width:1.5;" x1="270" x2="348" y1="108" y2="108"/><line style="stroke:#A80036;stroke-width:1.5;" x1="270" x2="348" y1="116" y2="116"/><!--MD5=[fc832535ce6d06a048690cb088a7c9eb]
reverse link IIterator`1 to ClosestFireTrucksIterator--><path codeLine="8" d="M904,409.62 C904,448.77 904,499.93 904,535.94 " fill="none" id="IIterator`1-backto-ClosestFireTrucksIterator" style="stroke:#A80036;stroke-width:1.0;"/><polygon fill="none" points="897,409.56,904,389.56,911,409.56,897,409.56" style="stroke:#A80036;stroke-width:1.0;"/><text fill="#000000" font-family="sans-serif" font-size="13" lengthAdjust="spacing" textLength="70" x="828.2031" y="410.7401">&lt;FireTruck&gt;</text><!--MD5=[a5eb61decc8bcf76fb2b3dbbd4338d1b]
reverse link Incident to EventType--><path codeLine="17" d="M320.49,689.51 C319.32,725.4 318.09,763.03 317.21,789.83 " fill="none" id="Incident-backto-EventType" style="stroke:#A80036;stroke-width:1.0;"/><ellipse cx="320.7308" cy="682.2658" fill="#FFFFFF" rx="8" ry="8" style="stroke:#A80036;stroke-width:1.0;"/><line style="stroke:#A80036;stroke-width:1.0;" x1="320.4717" x2="320.99" y1="690.2616" y2="674.27"/><line style="stroke:#A80036;stroke-width:1.0;" x1="312.735" x2="328.7266" y1="682.0066" y2="682.525"/><!--MD5=[d1644b7c5e6536e4ec822ae57d042cc6]
reverse link State to IdleState--><path codeLine="28" d="M1087.62,1142.27 C997.8,1189.04 880.63,1250.06 811.73,1285.94 " fill="none" id="State-backto-IdleState" style="stroke:#A80036;stroke-width:1.0;"/><polygon fill="none" points="1084.51,1136,1105.49,1132.97,1090.98,1148.41,1084.51,1136" style="stroke:#A80036;stroke-width:1.0;"/><!--MD5=[0607b48f52edf9de41ade643930a150f]
reverse link State to BusyState--><path codeLine="29" d="M1126.39,1163.29 C1083.7,1206.07 1034.78,1255.1 1004.13,1285.81 " fill="none" id="State-backto-BusyState" style="stroke:#A80036;stroke-width:1.0;"/><polygon fill="none" points="1121.51,1158.27,1140.59,1149.06,1131.42,1168.16,1121.51,1158.27" style="stroke:#A80036;stroke-width:1.0;"/><!--MD5=[02ba31c9e88adbb55a78afdeb6674045]
reverse link State to WorkingState--><path codeLine="30" d="M1212,1169.19 C1212,1210.51 1212,1256.5 1212,1285.81 " fill="none" id="State-backto-WorkingState" style="stroke:#A80036;stroke-width:1.0;"/><polygon fill="none" points="1205,1169.06,1212,1149.06,1219,1169.06,1205,1169.06" style="stroke:#A80036;stroke-width:1.0;"/><!--MD5=[b5c9d30421626da00a9c3634c2664eb7]
reverse link State to TravellingFromState--><path codeLine="31" d="M1294.28,1163.57 C1335.11,1206.28 1381.84,1255.16 1411.14,1285.81 " fill="none" id="State-backto-TravellingFromState" style="stroke:#A80036;stroke-width:1.0;"/><polygon fill="none" points="1289.17,1168.35,1280.41,1149.06,1299.29,1158.68,1289.17,1168.35" style="stroke:#A80036;stroke-width:1.0;"/><!--MD5=[b9a8ac8341ebf4100eee95bd027c33b3]
reverse link State to TravellingToState--><path codeLine="32" d="M1336.39,1142.56 C1420.16,1186.37 1527.63,1242.58 1597.15,1278.94 " fill="none" id="State-backto-TravellingToState" style="stroke:#A80036;stroke-width:1.0;"/><polygon fill="none" points="1333.1,1148.74,1318.62,1133.27,1339.59,1136.33,1333.1,1148.74" style="stroke:#A80036;stroke-width:1.0;"/><!--MD5=[473caf973b36cd38b5e5d5da06b82751]
reverse link IExecutionStrategy to Emergency--><path codeLine="12" d="M1626.47,402.72 C1623.31,447.67 1618.77,512.13 1616.13,549.66 " fill="none" id="IExecutionStrategy-backto-Emergency" style="stroke:#A80036;stroke-width:1.0;"/><polygon fill="none" points="1619.49,402.17,1627.88,382.71,1633.45,403.15,1619.49,402.17" style="stroke:#A80036;stroke-width:1.0;"/><!--MD5=[7342c2a8afea55b6d2b3055a9b5ecdb2]
reverse link IExecutionStrategy to Fake--><path codeLine="13" d="M1655.79,400.59 C1679.94,445.62 1715.28,511.53 1735.73,549.66 " fill="none" id="IExecutionStrategy-backto-Fake" style="stroke:#A80036;stroke-width:1.0;"/><polygon fill="none" points="1649.48,403.64,1646.2,382.71,1661.82,397.03,1649.48,403.64" style="stroke:#A80036;stroke-width:1.0;"/><!--MD5=[51a05d4582f85d0fd144f318182fe7ab]
reverse link IEventStrategy to StrategyMz--><path codeLine="13" d="M1284.94,405.8 C1251.22,450.66 1204.2,513.21 1176.65,549.87 " fill="none" id="IEventStrategy-backto-StrategyMz" style="stroke:#A80036;stroke-width:1.0;"/><polygon fill="none" points="1279.53,401.34,1297.15,389.56,1290.72,409.75,1279.53,401.34" style="stroke:#A80036;stroke-width:1.0;"/><!--MD5=[6dddbfe35ec4609f33e0984953d43661]
reverse link IEventStrategy to StrategyPz--><path codeLine="14" d="M1343.56,408.79 C1358.26,453.4 1378.25,514.02 1390.07,549.87 " fill="none" id="IEventStrategy-backto-StrategyPz" style="stroke:#A80036;stroke-width:1.0;"/><polygon fill="none" points="1336.83,410.74,1337.22,389.56,1350.13,406.36,1336.83,410.74" style="stroke:#A80036;stroke-width:1.0;"/><!--MD5=[690eb6ddbce4f781f85b963796a29379]
reverse link IVector to Vector2--><path codeLine="11" d="M475.22,893.29 C477.79,924.99 480.91,963.5 483.63,996.93 " fill="none" id="IVector-backto-Vector2" style="stroke:#A80036;stroke-width:1.0;"/><polygon fill="none" points="468.22,893.57,473.58,873.07,482.17,892.44,468.22,893.57" style="stroke:#A80036;stroke-width:1.0;"/><!--MD5=[60950accb16d50fa84df3bc0d914d397]
link Program to CSVParser--><path codeLine="18" d="M291.83,124.03 C258.11,169.26 183.22,269.73 145.55,320.25 " fill="none" id="Program-CSVParser" style="stroke:#A80036;stroke-width:1.0;"/><text fill="#000000" font-family="sans-serif" font-size="13" lengthAdjust="spacing" textLength="30" x="217" y="237.4951">Uses</text><!--MD5=[6aa073de125b9f14d78f57d2bb227e0f]
link Program to Incident--><path codeLine="19" d="M309.72,124.1 C311.75,188.76 317.56,374.23 321.11,487.7 " fill="none" id="Program-Incident" style="stroke:#A80036;stroke-width:1.0;"/><text fill="#000000" font-family="sans-serif" font-size="13" lengthAdjust="spacing" textLength="45" x="320" y="356.9951">Creates</text><!--MD5=[c7ae54517f86346da8f7a7f33247dc4d]
reverse link Program to ControlStation--><path codeLine="20" d="M346.96,132.36 C395.57,172.52 480.76,242.9 541.22,292.85 " fill="none" id="Program-backto-ControlStation" style="stroke:#A80036;stroke-width:1.0;"/><polygon fill="#A80036" points="336.87,124.03,338.9429,130.9367,346.1156,131.6797,344.0427,124.773,336.87,124.03" style="stroke:#A80036;stroke-width:1.0;"/><!--MD5=[55ec74d9208a2960484f3d673f2fd0f0]
reverse link Incident to Vector2--><path codeLine="22" d="M440.68,670.6 C442.46,671.75 444.23,672.88 446,674 C495.58,705.32 532.59,684.86 563,735 C611.82,815.52 574.22,924.1 537.28,996.79 " fill="none" id="Incident-backto-Vector2" style="stroke:#A80036;stroke-width:1.0;"/><polygon fill="#FFFFFF" points="429.72,663.35,432.5178,669.9962,439.7289,669.9698,436.9311,663.3236,429.72,663.35" style="stroke:#A80036;stroke-width:1.0;"/><text fill="#000000" font-family="sans-serif" font-size="13" lengthAdjust="spacing" textLength="72" x="587" y="833.4951">Has location</text><!--MD5=[b498f6fe71feeaa1aae13e619c9b9447]
reverse link ControlStation to FireStation--><path codeLine="23" d="M619.41,423.37 C623.77,460.07 628.95,503.75 632.74,535.64 " fill="none" id="ControlStation-backto-FireStation" style="stroke:#A80036;stroke-width:1.0;"/><polygon fill="#FFFFFF" points="617.85,410.2,614.583,416.6286,619.2605,422.1168,622.5275,415.6882,617.85,410.2" style="stroke:#A80036;stroke-width:1.0;"/><!--MD5=[cf032d70b619ab1006df4e835a439789]
reverse link ControlStation to Incident--><path codeLine="24" d="M527.97,418.32 C497.23,442.68 461.97,470.63 429.5,496.37 " fill="none" id="ControlStation-backto-Incident" style="stroke:#A80036;stroke-width:1.0;"/><polygon fill="#FFFFFF" points="538.21,410.2,531.0237,410.7976,528.8113,417.6609,535.9976,417.0633,538.21,410.2" style="stroke:#A80036;stroke-width:1.0;"/><!--MD5=[9c1490dc6f6d2b968cfa23391cf1c527]
link ControlStation to ClosestFireTrucksIterator--><path codeLine="25" d="M685.32,410.2 C735.5,449.17 800.75,499.83 846.87,535.64 " fill="none" id="ControlStation-ClosestFireTrucksIterator" style="stroke:#A80036;stroke-width:1.0;"/><text fill="#000000" font-family="sans-serif" font-size="13" lengthAdjust="spacing" textLength="23" x="740" y="454.4951">Use</text><!--MD5=[46573bf8de5328e4c4cc9c94a453a837]
reverse link FireStation to FireTruck--><path codeLine="26" d="M721.63,632.89 C746.43,647.05 773.93,661.85 800,674 C907.89,724.27 1037.28,770.09 1121.9,798.21 " fill="none" id="FireStation-backto-FireTruck" style="stroke:#A80036;stroke-width:1.0;"/><polygon fill="#FFFFFF" points="710.07,626.23,713.2659,632.6942,720.462,632.2305,717.2662,625.7662,710.07,626.23" style="stroke:#A80036;stroke-width:1.0;"/><text fill="#000000" font-family="sans-serif" font-size="13" lengthAdjust="spacing" textLength="7" x="712.2841" y="646.9346">1</text><text fill="#000000" font-family="sans-serif" font-size="13" lengthAdjust="spacing" textLength="32" x="1082.1083" y="792.9296">many</text><!--MD5=[cf1eb8b14e8902124fb9551d385c807f]
reverse link FireSquad to FireTruck--><path codeLine="27" d="M1575.06,115.88 C1663.09,133.19 1764.76,170.2 1820,249 C1928.43,403.67 1936.13,525.03 1820,674 C1756.76,755.12 1455.5,799.86 1302.14,817.72 " fill="none" id="FireSquad-backto-FireTruck" style="stroke:#A80036;stroke-width:1.0;"/><polygon fill="#FFFFFF" points="1562.18,113.47,1567.3445,118.5027,1573.9764,115.6711,1568.8119,110.6384,1562.18,113.47" style="stroke:#A80036;stroke-width:1.0;"/><text fill="#000000" font-family="sans-serif" font-size="13" lengthAdjust="spacing" textLength="7" x="1570.1041" y="111.247">1</text><text fill="#000000" font-family="sans-serif" font-size="13" lengthAdjust="spacing" textLength="32" x="1309.9347" y="813.8724">many</text><!--MD5=[287df3ec9a01935f3d99cf7765a17ac9]
reverse link FireSquad to Incident--><path codeLine="28" d="M1248.56,106.37 C1005.87,117.54 565.92,151.06 446,249 C426.61,264.84 382.22,395.46 352.68,487.79 " fill="none" id="FireSquad-backto-Incident" style="stroke:#A80036;stroke-width:1.0;"/><polygon fill="#FFFFFF" points="1261.75,105.78,1255.5759,102.0544,1249.7622,106.3207,1255.9363,110.0463,1261.75,105.78" style="stroke:#A80036;stroke-width:1.0;"/><text fill="#000000" font-family="sans-serif" font-size="13" lengthAdjust="spacing" textLength="7" x="1246.8223" y="103.1604">1</text><text fill="#000000" font-family="sans-serif" font-size="13" lengthAdjust="spacing" textLength="7" x="347.6865" y="477.2196">1</text><!--MD5=[4d73acb779e39fd68784b6a0a753428f]
reverse link FireTruck to State--><path codeLine="29" d="M1212,934.42 C1212,957.85 1212,982.16 1212,1003.87 " fill="none" id="FireTruck-backto-State" style="stroke:#A80036;stroke-width:1.0;"/><polygon fill="#FFFFFF" points="1212,921.14,1208,927.14,1212,933.14,1216,927.14,1212,921.14" style="stroke:#A80036;stroke-width:1.0;"/><!--MD5=[69821e658e7f7527e55b922214faa41f]
reverse link FireSquad to IEventStrategy--><path codeLine="30" d="M1375.55,205.53 C1362.19,243.85 1347.92,284.78 1337.96,313.35 " fill="none" id="FireSquad-backto-IEventStrategy" style="stroke:#A80036;stroke-width:1.0;"/><polygon fill="#FFFFFF" points="1379.85,193.2,1374.097,197.5477,1375.8975,204.5304,1381.6506,200.1827,1379.85,193.2" style="stroke:#A80036;stroke-width:1.0;"/><!--MD5=[77f79cbb0c190a17aeef545490ff0188]
reverse link FireSquad to IExecutionStrategy--><path codeLine="31" d="M1501.12,203 C1538.07,245.28 1578.17,291.18 1603.66,320.35 " fill="none" id="FireSquad-backto-IExecutionStrategy" style="stroke:#A80036;stroke-width:1.0;"/><polygon fill="#FFFFFF" points="1492.56,193.2,1493.4933,200.3504,1500.4527,202.2391,1499.5194,195.0886,1492.56,193.2" style="stroke:#A80036;stroke-width:1.0;"/><!--MD5=[0e4c3c8b13499006332a39fa93ca4c4c]
@startuml TO_LAB_5

!include .\\puml-classes\CSVParser.puml
!include .\\puml-classes\ClosestFireTrucksIterator.puml
!include .\\puml-classes\ControlStation.puml
!include .\\puml-classes\FireSquad.puml
!include .\\puml-classes\FireStation.puml
!include .\\puml-classes\Incident.puml
!include .\\puml-classes\IIterator.puml
!include .\\puml-classes\FireTruck.puml
!include .\\puml-classes\State.puml
!include .\\puml-classes\EmergencyExecutionStrategy.puml
!include .\\puml-classes\EmergencyPredictionStrategy.puml
!include .\\puml-classes\IVector.puml
!include .\\puml-classes\Vector2.puml

class Program{}

Program - - CSVParser : "Uses"
Program - - Incident : "Creates"
Program *- - ControlStation

Incident o- - - Vector2 : "Has location"
ControlStation o- - FireStation
ControlStation o- - Incident
ControlStation - - ClosestFireTrucksIterator : "Use"
FireStation "1" o- - "many" FireTruck
FireSquad "1" o- - "many" FireTruck
FireSquad "1" o- - - "1" Incident
FireTruck o- - State
FireSquad o- - IEventStrategy
FireSquad o- - IExecutionStrategy



@enduml

@startuml TO_LAB_5

class CSVParser {
    + {static} LoadStationsFromCSV() : List<FireStation>
}

package Iterator{
class ClosestFireTrucksIterator {
    - _fireStations : List<FireStation>
    + hasNext() : bool
    + getNext() : FireTruck
}
"IIterator`1" "<FireTruck>" <|- - ClosestFireTrucksIterator

}

package Observer{
class ControlStation {
    - <<readonly>> _observators : List<FireStation>
    - <<readonly>> _incidents : List<Incident>
    + ControlStation()
    + RegisterIncident(incident:Incident) : void
    + RegisterFireStations(fireStations:List<FireStation>) : void
}
}
class FireSquad {
    - name : string
    - _strategy : IEventStrategy
    TrucksString() : string
    + FireSquad(task:Incident)
    + Step1PrepareTeam(fireTrucks:IIterator<FireTruck>) : void
    - <<async>> Step2GoToLocation() : Task
    - <<async>> Step3Investigate() : Task
    + <<override>> ToString() : string
    + <<async>> Go() : void
    - <<async>> Step4Return() : Task
}

package Observer{
class FireStation {
    + Name : string <<get>>
    + FireStation(name:string, position:Vector2)
    + <<override>> ToString() : string
}
}
class Incident {
    + Incident()
    + <<override>> ToString() : string
    + {static} FirstCharToUpper(input:string) : string
    - objectName : string[]
    - RandomName(type:EventType) : string
    - {static} RandomLocation() : Vector2
    + Name : String <<get>>
    + Type : EventType <<get>>
    + Real : bool <<get>>
    + Location : Vector2 <<get>>
}
enum EventType {
    PZ,
    MZ,
}
Incident +- - EventType
interface "IIterator`1"<out T> {
    hasNext() : bool
    getNext() : T
}


class FireTruck {
    - name : string
    + state : State
    + FireTruck(s:string)
    + <<override>> ToString() : string
    + TransitionTo(_state:State) : void
    + HandleFree() : void
    + HandleTravelTo() : void
    + HandleBusy() : void
    + HandleTravelReturn() : void
    + HandleWork() : void
}


package StateMachine{
abstract class State {
    # fireTruck : FireTruck
    + SetContext(newTruck:FireTruck) : void
    + <<virtual>> HandleFree() : void
    + <<virtual>> HandleTravelTo() : void
    + <<virtual>> HandleBusy() : void
    + <<virtual>> HandleTravelReturn() : void
    + <<virtual>> HandleWork() : void
}
class IdleState {
    + <<override>> HandleBusy() : void
}
class BusyState {
    + <<override>> HandleTravelTo() : void
}
class WorkingState {
    + <<override>> HandleTravelReturn() : void
}
class TravellingFromState {
    + <<override>> HandleFree() : void
}
class TravellingToState {
    + <<override>> HandleWork() : void
    + <<override>> HandleTravelReturn() : void
}
State <|-D- - IdleState
State <|-D- - BusyState
State <|-D- - WorkingState
State <|-D- - TravellingFromState
State <|-D- - TravellingToState


}
package ExecutionStrategy{

interface IExecutionStrategy {
    execute() : float
}
class Emergency {
    + execute() : float
}
class Fake {
    + execute() : float
}
IExecutionStrategy <|- - Emergency
IExecutionStrategy <|- - Fake

}

package EventStrategy{
abstract class IEventStrategy {
    + {abstract} Execute(fireTrucks:IIterator<FireTruck>) : List<FireTruck>
    # GetClosest(fireTrucks:IIterator<FireTruck>, count:int) : List<FireTruck>
}
class StrategyMz {
    + <<override>> Execute() : List<FireTruck>
}
class StrategyPz {
    + <<override>> Execute() : List<FireTruck>
}
IEventStrategy <|- - StrategyMz
IEventStrategy <|- - StrategyPz
}
interface IVector {
    abs() : double
    cdot(param:IVector) : double
    getComponents() : double[]
}
class Vector2 {
    + X : double <<get>>
    + Y : double <<get>>
    + Vector2(x:double, y:double)
    + abs() : double
    + cdot(param:IVector) : double
    + getComponents() : double[]
    + <<override>> ToString() : string
    + DistanceTo(position:Vector2) : double
}
IVector <|- - Vector2

class Program{}

Program - - CSVParser : "Uses"
Program - - Incident : "Creates"
Program *- - ControlStation

Incident o- - - Vector2 : "Has location"
ControlStation o- - FireStation
ControlStation o- - Incident
ControlStation - - ClosestFireTrucksIterator : "Use"
FireStation "1" o- - "many" FireTruck
FireSquad "1" o- - "many" FireTruck
FireSquad "1" o- - - "1" Incident
FireTruck o- - State
FireSquad o- - IEventStrategy
FireSquad o- - IExecutionStrategy



@enduml

PlantUML version 1.2021.11(Sat Oct 02 15:26:11 CEST 2021)
(GPL source distribution)
Java Runtime: OpenJDK Runtime Environment
JVM: Dynamic Code Evolution 64-Bit Server VM
Default Encoding: Cp1252
Language: en
Country: US
--></g></svg>